<svg xmlns="http://www.w3.org/2000/svg" width="256.775" height="64.508" viewBox="0 0 256.775 64.508">
  <g id="그룹_17" data-name="그룹 17" transform="translate(-59.875 -166.752)">
    <path id="패스_1" data-name="패스 1" d="M-110.1-14.325h3.675v1.85a1.184,1.184,0,0,1-.238.737.736.736,0,0,1-.612.313H-110.1v4.55a.727.727,0,0,1-.325.612,1.2,1.2,0,0,1-.725.238h-2.15V-19h2.15a1.2,1.2,0,0,1,.725.238.727.727,0,0,1,.325.613Zm-14.85,6.65a1.511,1.511,0,0,1-1.025-.425L-127.7-9.825a1.511,1.511,0,0,1-.425-1.025v-7.5h11.575v1.85a1.184,1.184,0,0,1-.238.737.736.736,0,0,1-.612.313h-7.525v4.875h8.375v1.85a1.184,1.184,0,0,1-.238.737.736.736,0,0,1-.612.313Zm6.925,1.525a9.5,9.5,0,0,1,5.5,1.575,4.688,4.688,0,0,1,2.3,3.875,3.939,3.939,0,0,1-.612,2.113,6.014,6.014,0,0,1-1.675,1.738A8.48,8.48,0,0,1-115,4.325a10.532,10.532,0,0,1-3.025.425,10.977,10.977,0,0,1-2.537-.325,9.48,9.48,0,0,1-2.538-1,6.568,6.568,0,0,1-1.962-1.7A3.865,3.865,0,0,1-125.85-.7a4.679,4.679,0,0,1,2.325-3.875A9.423,9.423,0,0,1-118.025-6.15ZM-122.65-.7a1.666,1.666,0,0,0,.5,1.225,3.718,3.718,0,0,0,1.225.8,7.167,7.167,0,0,0,1.512.438,8.187,8.187,0,0,0,1.388.138,7.974,7.974,0,0,0,1.375-.138,6.306,6.306,0,0,0,1.475-.45,3.959,3.959,0,0,0,1.2-.812,1.831,1.831,0,0,0,.55-1.2,1.831,1.831,0,0,0-.55-1.2,3.959,3.959,0,0,0-1.2-.812,6.306,6.306,0,0,0-1.475-.45,7.974,7.974,0,0,0-1.375-.137,7.839,7.839,0,0,0-1.8.2,5.667,5.667,0,0,0-1.475.55,3.16,3.16,0,0,0-.988.825A1.656,1.656,0,0,0-122.65-.7ZM-87.025-19a1.245,1.245,0,0,1,.725.225.718.718,0,0,1,.325.625v12.6a.718.718,0,0,1-.325.625,1.245,1.245,0,0,1-.725.225h-2.15V-19ZM-98.75,1.1h12.775V2.925a1.3,1.3,0,0,1-.225.737A.711.711,0,0,1-86.825,4H-98.75a1.263,1.263,0,0,1-.537-.1,2.092,2.092,0,0,1-.488-.35l-1.7-1.425a1.412,1.412,0,0,1-.45-1.025V-4.675H-99.8a1.3,1.3,0,0,1,.725.213.711.711,0,0,1,.325.637Zm4.5-8.125Q-95.4-8.15-96.525-9.413a23.63,23.63,0,0,1-2.025-2.613,22.126,22.126,0,0,1-2.075,2.637Q-101.8-8.1-102.975-7a.765.765,0,0,1-.55.25.664.664,0,0,1-.5-.25l-1-1.05a.858.858,0,0,1-.35-.65.806.806,0,0,1,.15-.45q.625-.575,1.487-1.5a25.337,25.337,0,0,0,1.65-1.963,15.386,15.386,0,0,0,1.35-2.1,4.484,4.484,0,0,0,.588-1.937v-1.975H-98a1.407,1.407,0,0,1,.825.175.624.624,0,0,1,.225.525V-16.8a5.258,5.258,0,0,0,.587,2.037,14.888,14.888,0,0,0,1.288,2.125,20.334,20.334,0,0,0,1.6,1.95q.85.912,1.525,1.512a.748.748,0,0,1,.225.55.885.885,0,0,1-.3.625L-93.1-7a.813.813,0,0,1-.575.275A.847.847,0,0,1-94.25-7.025ZM-83-3.25h15.55V-1.4a1.218,1.218,0,0,1-.237.713.7.7,0,0,1-.588.338H-82.15a.736.736,0,0,1-.613-.312A1.184,1.184,0,0,1-83-1.4Zm14.1-8.4a6.275,6.275,0,0,1-.488,2.475,6.285,6.285,0,0,1-1.35,2.012,6.285,6.285,0,0,1-2.012,1.35,6.275,6.275,0,0,1-2.475.488A6.275,6.275,0,0,1-77.7-5.813a6.285,6.285,0,0,1-2.012-1.35,6.285,6.285,0,0,1-1.35-2.012,6.275,6.275,0,0,1-.487-2.475,6.275,6.275,0,0,1,.487-2.475,6.285,6.285,0,0,1,1.35-2.013,6.285,6.285,0,0,1,2.012-1.35,6.275,6.275,0,0,1,2.475-.487,6.275,6.275,0,0,1,2.475.487,6.285,6.285,0,0,1,2.012,1.35,6.285,6.285,0,0,1,1.35,2.013A6.275,6.275,0,0,1-68.9-11.65Zm-6.325-3.3a3.146,3.146,0,0,0-1.275.262,3.393,3.393,0,0,0-1.05.713,3.393,3.393,0,0,0-.713,1.05,3.146,3.146,0,0,0-.262,1.275,3.146,3.146,0,0,0,.262,1.275,3.393,3.393,0,0,0,.713,1.05,3.393,3.393,0,0,0,1.05.713,3.146,3.146,0,0,0,1.275.262,3.374,3.374,0,0,0,1.288-.25,3.188,3.188,0,0,0,1.062-.7,3.393,3.393,0,0,0,.713-1.05,3.208,3.208,0,0,0,.263-1.3,3.146,3.146,0,0,0-.263-1.275,3.393,3.393,0,0,0-.713-1.05,3.353,3.353,0,0,0-1.062-.713A3.235,3.235,0,0,0-75.225-14.95ZM-64.2-19a1.285,1.285,0,0,1,.75.225.7.7,0,0,1,.325.6V1.65a1.044,1.044,0,0,1-.3.725L-64.875,3.8a1.075,1.075,0,0,1-.65.2h-.8V-19Zm26.8,4.375h3.675v1.85a1.184,1.184,0,0,1-.237.738.736.736,0,0,1-.612.313H-37.4V-8.2a.688.688,0,0,1-.325.612,1.3,1.3,0,0,1-.725.213H-40.6V-19h2.15a1.2,1.2,0,0,1,.725.238.727.727,0,0,1,.325.613Zm-14.85,6.95A1.511,1.511,0,0,1-53.275-8.1L-55-9.825a1.428,1.428,0,0,1-.312-.475,1.443,1.443,0,0,1-.112-.55v-7.5h2.15a1.2,1.2,0,0,1,.725.237.727.727,0,0,1,.325.612v1.675H-47V-18.35h2.15a1.2,1.2,0,0,1,.725.237.727.727,0,0,1,.325.612v8.775a1.184,1.184,0,0,1-.237.737.736.736,0,0,1-.612.313Zm.025-5.25v2.35H-47v-2.35Zm-1.125,6.65H-37.4V-.9a1.184,1.184,0,0,1-.237.738A.736.736,0,0,1-38.25.15h-11.9V1.425H-37.4v1.5a1.132,1.132,0,0,1-.237.725A.908.908,0,0,1-38.25,4H-50.625a1.571,1.571,0,0,1-1-.475l-1.275-1.7a1.855,1.855,0,0,1-.45-1.2v-3.05H-40.6V-3.7H-52.475a.742.742,0,0,1-.65-.325,1.245,1.245,0,0,1-.225-.725Zm20.5-1.775a2.077,2.077,0,0,1-.237-.287A.622.622,0,0,1-33.2-8.7a.666.666,0,0,1,.175-.45q.525-.475,1.237-1.213t1.412-1.575a17.491,17.491,0,0,0,1.288-1.75A8.525,8.525,0,0,0-28.2-15.45h-3.35a.7.7,0,0,1-.638-.337A1.316,1.316,0,0,1-32.4-16.5v-1.85h12.15v1.85a1.16,1.16,0,0,1-.25.725.76.76,0,0,1-.625.325H-24.5a8.437,8.437,0,0,0,.863,1.8A16.694,16.694,0,0,0-22.4-11.925q.675.825,1.362,1.538t1.263,1.213a.765.765,0,0,1,.25.55A.806.806,0,0,1-19.85-8l-1.075,1a.792.792,0,0,1-.55.275.735.735,0,0,1-.575-.3Q-23.2-8.15-24.338-9.413a20.835,20.835,0,0,1-2.013-2.613,22.127,22.127,0,0,1-2.075,2.637Q-29.6-8.1-30.775-7a.9.9,0,0,1-.55.25A.741.741,0,0,1-31.85-7ZM-14.15-19a1.229,1.229,0,0,1,.737.225.7.7,0,0,1,.313.6V-5.55a.736.736,0,0,1-.312.613,1.184,1.184,0,0,1-.737.237H-16.3v-6.775h-3.475a.736.736,0,0,1-.613-.312,1.184,1.184,0,0,1-.237-.738v-1.85H-16.3V-19ZM-26.525,1.1h12.75V2.925a1.238,1.238,0,0,1-.238.75A.727.727,0,0,1-14.625,4h-11.9a1.412,1.412,0,0,1-1.025-.45l-1.7-1.425a1.353,1.353,0,0,1-.475-1.05v-5.75h2.15a1.184,1.184,0,0,1,.737.238.736.736,0,0,1,.313.612ZM10.6-8.95V-7.1a1.245,1.245,0,0,1-.225.725.718.718,0,0,1-.625.325H-9.75a.718.718,0,0,1-.625-.325A1.245,1.245,0,0,1-10.6-7.1V-8.95ZM-5.475-11.025a5.437,5.437,0,0,1-1.7-1.563,3.238,3.238,0,0,1-.6-1.837,3.154,3.154,0,0,1,.612-1.863A5.641,5.641,0,0,1-5.5-17.8a9.08,9.08,0,0,1,2.463-1.025A11.8,11.8,0,0,1,0-19.2a11.771,11.771,0,0,1,2.938.362,10.028,10.028,0,0,1,2.537,1.013,5.437,5.437,0,0,1,1.7,1.563,3.238,3.238,0,0,1,.6,1.838,3.173,3.173,0,0,1-.613,1.85A5.517,5.517,0,0,1,5.487-11.05a9.281,9.281,0,0,1-2.475,1.025A11.7,11.7,0,0,1,0-9.65a11.829,11.829,0,0,1-2.975-.363A9.634,9.634,0,0,1-5.475-11.025ZM0-16.525a9.52,9.52,0,0,0-1.813.163,6.689,6.689,0,0,0-1.475.45,3.089,3.089,0,0,0-1,.675,1.182,1.182,0,0,0-.362.813A1.226,1.226,0,0,0-4.113-13.4a4.324,4.324,0,0,0,1.287.637,8.722,8.722,0,0,0,1.538.338,10.637,10.637,0,0,0,1.287.1,9.576,9.576,0,0,0,1.8-.163,6.669,6.669,0,0,0,1.488-.45,3.089,3.089,0,0,0,1-.675,1.182,1.182,0,0,0,.363-.812A1.218,1.218,0,0,0,4.1-15.45a4.5,4.5,0,0,0-1.3-.638,8.721,8.721,0,0,0-1.538-.337A10.53,10.53,0,0,0,0-16.525ZM-7.975-5.15H7.975V-.325A1.2,1.2,0,0,1,7.737.4a.727.727,0,0,1-.612.325h-11.9V1.4H7.975V2.925a1.184,1.184,0,0,1-.237.737.736.736,0,0,1-.612.313L-5.25,4a1.433,1.433,0,0,1-1.025-.475l-1.275-1.7a1.991,1.991,0,0,1-.425-1.2v-2.5H4.775V-2.55h-11.9a.736.736,0,0,1-.613-.312A1.184,1.184,0,0,1-7.975-3.6Zm37.05-10.325a1.463,1.463,0,0,1,.312.462,1.413,1.413,0,0,1,.112.563v12.6a.736.736,0,0,1-.312.612A1.184,1.184,0,0,1,28.45-1H26.3V-14.75H18.725a.711.711,0,0,1-.625-.337,1.264,1.264,0,0,1-.225-.713v-1.85h8.45a1.332,1.332,0,0,1,1,.45ZM35.2-19a1.2,1.2,0,0,1,.725.238.727.727,0,0,1,.325.613V1.625a1.044,1.044,0,0,1-.3.725L34.5,3.775a1.009,1.009,0,0,1-.65.2h-.8V-19ZM51.625-8h9v1.85a1.2,1.2,0,0,1-.237.725.727.727,0,0,1-.613.325H40.25a.706.706,0,0,1-.587-.325,1.2,1.2,0,0,1-.237-.725V-8h9V-9.125H44.95A1.378,1.378,0,0,1,43.925-9.6L42.65-11.3a1.855,1.855,0,0,1-.45-1.2v-2.925H54.625v-.85H43.075a.77.77,0,0,1-.625-.312,1.145,1.145,0,0,1-.25-.738V-19H57.825v5.25a1.2,1.2,0,0,1-.238.725.727.727,0,0,1-.612.325H45.4v.85H57.825v1.65a1.238,1.238,0,0,1-.238.75.727.727,0,0,1-.612.325h-5.35ZM42.05-4.025H58v7.15a.76.76,0,0,1-.325.625A1.16,1.16,0,0,1,56.95,4H54.8V-1.125H42.9a.736.736,0,0,1-.612-.312,1.184,1.184,0,0,1-.237-.738ZM80.9-11h3.675v1.85a1.184,1.184,0,0,1-.238.738.736.736,0,0,1-.612.313H80.9V1.625a1.044,1.044,0,0,1-.3.725L79.15,3.775A1.218,1.218,0,0,1,78.5,4h-.8V-19h2.125a1.2,1.2,0,0,1,.75.25.738.738,0,0,1,.325.6ZM70.425-16.425h5.15v1.85a1.184,1.184,0,0,1-.238.738.736.736,0,0,1-.612.312h-11.8a.736.736,0,0,1-.612-.312,1.184,1.184,0,0,1-.237-.738v-1.85h5.15V-19.4h2.15a1.184,1.184,0,0,1,.737.237.736.736,0,0,1,.313.613ZM62.925-6.7a6.175,6.175,0,0,1,.45-2.338,6.222,6.222,0,0,1,1.237-1.95,5.837,5.837,0,0,1,1.863-1.325,5.623,5.623,0,0,1,2.35-.487,5.623,5.623,0,0,1,2.35.487,5.837,5.837,0,0,1,1.863,1.325,6.222,6.222,0,0,1,1.237,1.95,6.175,6.175,0,0,1,.45,2.338,6.146,6.146,0,0,1-.45,2.35A6.418,6.418,0,0,1,73.037-2.4a5.746,5.746,0,0,1-1.863,1.338,5.623,5.623,0,0,1-2.35.487,5.623,5.623,0,0,1-2.35-.487A5.746,5.746,0,0,1,64.612-2.4a6.418,6.418,0,0,1-1.237-1.95A6.146,6.146,0,0,1,62.925-6.7Zm5.9,3.2a2.528,2.528,0,0,0,1.1-.25,2.923,2.923,0,0,0,.912-.675,3.2,3.2,0,0,0,.613-1,3.4,3.4,0,0,0,.225-1.25,3.5,3.5,0,0,0-.225-1.262,3.164,3.164,0,0,0-.613-1.012,2.923,2.923,0,0,0-.912-.675,2.528,2.528,0,0,0-1.1-.25,2.528,2.528,0,0,0-1.1.25,2.923,2.923,0,0,0-.912.675A3.164,3.164,0,0,0,66.2-7.938a3.5,3.5,0,0,0-.225,1.262,3.4,3.4,0,0,0,.225,1.25,3.2,3.2,0,0,0,.613,1,2.923,2.923,0,0,0,.912.675A2.528,2.528,0,0,0,68.825-3.5Zm23.4-11.025a14.08,14.08,0,0,0,.338,3.1,17.668,17.668,0,0,0,.925,2.912,19.712,19.712,0,0,0,1.4,2.738Q95.7-4.45,96.65-3.2a.954.954,0,0,1,.175.5.739.739,0,0,1-.45.65l-1,.8a.693.693,0,0,1-.5.225.668.668,0,0,1-.55-.3A16.959,16.959,0,0,1,92.213-4.3a28.477,28.477,0,0,1-1.588-3.3,21.856,21.856,0,0,1-1.55,3.275,22.154,22.154,0,0,1-2.1,3A.719.719,0,0,1,86.4-1a.765.765,0,0,1-.55-.25l-.95-.825q-.15-.125-.312-.288a.591.591,0,0,1-.162-.437.551.551,0,0,1,.175-.4,24.961,24.961,0,0,0,1.763-2.538,19.672,19.672,0,0,0,1.4-2.775,18.344,18.344,0,0,0,.925-2.95,14.02,14.02,0,0,0,.338-3.062V-17.65h2.15a1.356,1.356,0,0,1,.725.2.582.582,0,0,1,.325.5ZM99.625-19a1.2,1.2,0,0,1,.75.25.738.738,0,0,1,.325.6V1.625a1.044,1.044,0,0,1-.3.725L98.95,3.775a1.85,1.85,0,0,1-.287.138A1.54,1.54,0,0,1,98.3,4h-.8V-8.775H95.35A.742.742,0,0,1,94.7-9.1a1.245,1.245,0,0,1-.225-.725v-1.85H97.5V-19Zm4.6,0a1.16,1.16,0,0,1,.725.25.738.738,0,0,1,.325.6V1.625a1.044,1.044,0,0,1-.3.725l-1.45,1.425a1.85,1.85,0,0,1-.287.138,1.54,1.54,0,0,1-.363.088h-.8V-19Zm19.1,17.65h5.325V.5a1.2,1.2,0,0,1-.238.725.706.706,0,0,1-.588.325H108.3a.727.727,0,0,1-.613-.325A1.2,1.2,0,0,1,107.45.5V-1.35h5.325V-6.575a7.608,7.608,0,0,1-1.838-2.263,5.7,5.7,0,0,1-.662-2.687,5.849,5.849,0,0,1,.675-2.825,6.836,6.836,0,0,1,1.775-2.125,8.223,8.223,0,0,1,2.5-1.35,8.741,8.741,0,0,1,2.825-.475,8.741,8.741,0,0,1,2.825.475,8.223,8.223,0,0,1,2.5,1.35,6.836,6.836,0,0,1,1.775,2.125,5.849,5.849,0,0,1,.675,2.825,6.1,6.1,0,0,1-.65,2.787,5.988,5.988,0,0,1-1.85,2.163ZM118.05-15.275a5.418,5.418,0,0,0-1.625.25,4.765,4.765,0,0,0-1.45.738,3.871,3.871,0,0,0-1.05,1.187,3.117,3.117,0,0,0-.4,1.575,3.117,3.117,0,0,0,.4,1.575,3.871,3.871,0,0,0,1.05,1.188,4.765,4.765,0,0,0,1.45.738,5.418,5.418,0,0,0,1.625.25,5.54,5.54,0,0,0,1.637-.25,4.582,4.582,0,0,0,1.45-.738,4,4,0,0,0,1.037-1.175,3.1,3.1,0,0,0,.4-1.588,3.117,3.117,0,0,0-.4-1.575,3.871,3.871,0,0,0-1.05-1.187,4.765,4.765,0,0,0-1.45-.738A5.418,5.418,0,0,0,118.05-15.275ZM115.975-1.35h4.15V-5.025a9.946,9.946,0,0,1-2.05.275,10.083,10.083,0,0,1-2.1-.275Z" transform="translate(188 186.152)" fill="#3f3f3f"/>
    <path id="패스_2" data-name="패스 2" d="M-108.3-2.22a.736.736,0,0,1,.22-.5q.68-.84,1.45-1.91a22.726,22.726,0,0,0,1.42-2.24,15.081,15.081,0,0,0,1.07-2.38,7.042,7.042,0,0,0,.42-2.31v-.24h-2.88a.589.589,0,0,1-.49-.25.947.947,0,0,1-.19-.59v-1.48h9.72v1.48a.947.947,0,0,1-.19.59.589.589,0,0,1-.49.25h-2.92v.18a7.518,7.518,0,0,0,.53,2.77A14.994,14.994,0,0,0-99.34-6.3a27.412,27.412,0,0,0,2.58,3.58.733.733,0,0,1,.2.46.647.647,0,0,1-.28.52l-.92.76a.722.722,0,0,1-.42.16.6.6,0,0,1-.5-.28,11.85,11.85,0,0,1-.98-1.19q-.52-.71-1.03-1.49t-.97-1.55q-.46-.77-.78-1.37a10.726,10.726,0,0,1-.64,1.23q-.44.75-.98,1.56t-1.12,1.59a13.513,13.513,0,0,1-1.06,1.28.856.856,0,0,1-.44.26.529.529,0,0,1-.46-.2l-.9-.74A.645.645,0,0,1-108.3-2.22ZM-89.72-8.8v1.48a1.037,1.037,0,0,1-.17.58.569.569,0,0,1-.51.26h-2.26V1.3a.8.8,0,0,1-.26.58l-1.14,1.14a.561.561,0,0,1-.22.14.961.961,0,0,1-.3.04h-.64V-15.2h1.7a1.042,1.042,0,0,1,.59.18.587.587,0,0,1,.27.52v5.7Zm10.08-3.58a1.17,1.17,0,0,1,.25.37,1.13,1.13,0,0,1,.09.45V-1.48a.589.589,0,0,1-.25.49.947.947,0,0,1-.59.19h-1.72v-11h-6.06a.569.569,0,0,1-.5-.27,1.011,1.011,0,0,1-.18-.57v-1.48h6.76a1.066,1.066,0,0,1,.8.36Zm4.9-2.82a.96.96,0,0,1,.58.19.582.582,0,0,1,.26.49V1.3a.835.835,0,0,1-.24.58L-75.3,3.02a.807.807,0,0,1-.52.16h-.64V-15.2Zm15.12,0a1.042,1.042,0,0,1,.59.18.569.569,0,0,1,.27.5V1.32a.769.769,0,0,1-.05.31,1.024,1.024,0,0,1-.21.27l-1.14,1.14a.759.759,0,0,1-.52.16h-.64V-3.88h-1.84v2.4a.569.569,0,0,1-.26.51A1.037,1.037,0,0,1-64-.8h-1.72v-11h-5a.575.575,0,0,1-.5-.26,1,1,0,0,1-.18-.58v-1.48h5.7a1.13,1.13,0,0,1,.82.36l1.36,1.36a1.293,1.293,0,0,1,.29.39,1.2,1.2,0,0,1,.07.45v.16h1.84v-3.8Zm-1.7,9V-9.08h-1.84V-6.2Zm5.36-9a1.042,1.042,0,0,1,.59.18.569.569,0,0,1,.27.5V1.32a.8.8,0,0,1-.26.58L-56.5,3.04a.759.759,0,0,1-.52.16h-.64V-15.2Zm17.3,3.5h2.94v1.48a.947.947,0,0,1-.19.59.589.589,0,0,1-.49.25h-2.26v2.82a.55.55,0,0,1-.26.49,1.037,1.037,0,0,1-.58.17h-1.72v-9.3h1.72a.96.96,0,0,1,.58.19.582.582,0,0,1,.26.49ZM-50.54-6.14a1.209,1.209,0,0,1-.82-.34l-1.38-1.38a1.142,1.142,0,0,1-.25-.38,1.154,1.154,0,0,1-.09-.44v-6h1.72a.96.96,0,0,1,.58.19.582.582,0,0,1,.26.49v1.34h4.18v-2.02h1.72a.96.96,0,0,1,.58.19.582.582,0,0,1,.26.49v7.02a.947.947,0,0,1-.19.59.589.589,0,0,1-.49.25Zm.02-4.2v1.88h4.18v-1.88Zm-.9,5.32h12.76v4.3a.947.947,0,0,1-.19.59.589.589,0,0,1-.49.25h-9.52V1.14h10.2v1.2a.906.906,0,0,1-.19.58.726.726,0,0,1-.49.28h-9.9a1.256,1.256,0,0,1-.8-.38l-1.02-1.36A1.484,1.484,0,0,1-51.42.5V-1.94h10.2V-2.96h-9.5a.593.593,0,0,1-.52-.26,1,1,0,0,1-.18-.58Zm29.38-7.36a1.17,1.17,0,0,1,.25.37,1.13,1.13,0,0,1,.09.45V-1.48a.589.589,0,0,1-.25.49.947.947,0,0,1-.59.19h-1.72v-11h-6.06a.569.569,0,0,1-.5-.27,1.011,1.011,0,0,1-.18-.57v-1.48h6.76a1.066,1.066,0,0,1,.8.36Zm4.9-2.82a.96.96,0,0,1,.58.19.582.582,0,0,1,.26.49V1.3a.835.835,0,0,1-.24.58L-17.7,3.02a.807.807,0,0,1-.52.16h-.64V-15.2Zm13,8.8h7.2v1.48a.96.96,0,0,1-.19.58.582.582,0,0,1-.49.26H-13.24a.565.565,0,0,1-.47-.26.96.96,0,0,1-.19-.58V-6.4h7.2v-.9H-9.48a1.1,1.1,0,0,1-.82-.38l-1.02-1.36a1.484,1.484,0,0,1-.36-.96v-2.34h9.94v-.68h-9.24a.616.616,0,0,1-.5-.25.916.916,0,0,1-.2-.59V-15.2H.82V-11a.96.96,0,0,1-.19.58.582.582,0,0,1-.49.26H-9.12v.68H.82v1.32a.99.99,0,0,1-.19.6.582.582,0,0,1-.49.26H-4.14ZM-11.8-3.22H.96V2.5A.608.608,0,0,1,.7,3a.928.928,0,0,1-.58.2H-1.6V-.9h-9.52a.589.589,0,0,1-.49-.25.947.947,0,0,1-.19-.59ZM7.86-1.08H15.7a1.238,1.238,0,0,0,.75-.2A.842.842,0,0,0,16.72-2V-3.68a1.122,1.122,0,0,0-.35-.98A2.55,2.55,0,0,0,15.3-5l-3.8-.5a9.158,9.158,0,0,1-1.38-.29,3.394,3.394,0,0,1-1.11-.55,2.494,2.494,0,0,1-.74-.93A3.337,3.337,0,0,1,8-8.7v-1.82a3.333,3.333,0,0,1,1.07-2.71,4.4,4.4,0,0,1,2.85-.85h6.7v1.5a.79.79,0,0,1-.24.58.79.79,0,0,1-.58.24H11.74a1.421,1.421,0,0,0-.89.23,1.065,1.065,0,0,0-.29.87v1.72a.626.626,0,0,0,.15.43,1.084,1.084,0,0,0,.37.27,2.447,2.447,0,0,0,.5.16A4.134,4.134,0,0,0,12.1-8l3.66.48a7.174,7.174,0,0,1,1.42.32,3.5,3.5,0,0,1,1.11.61,2.629,2.629,0,0,1,.73.98,3.593,3.593,0,0,1,.26,1.45v2.1a3.365,3.365,0,0,1-.9,2.52,3.6,3.6,0,0,1-2.5.78H8.68A.79.79,0,0,1,8.1,1,.79.79,0,0,1,7.86.42ZM30.38-14.1h1.54a.775.775,0,0,1,.58.25.824.824,0,0,1,.24.59V.42a.887.887,0,0,1-.25.58.758.758,0,0,1-.57.24H29.18l-5.9-12.52V.42a.79.79,0,0,1-.24.58.79.79,0,0,1-.58.24H20.92V-14.1h3.06a.927.927,0,0,1,.42.1.64.64,0,0,1,.3.32L30.38-1.62ZM34.66-1.08H42.5a1.238,1.238,0,0,0,.75-.2A.842.842,0,0,0,43.52-2V-3.68a1.122,1.122,0,0,0-.35-.98A2.55,2.55,0,0,0,42.1-5l-3.8-.5a9.158,9.158,0,0,1-1.38-.29,3.394,3.394,0,0,1-1.11-.55,2.494,2.494,0,0,1-.74-.93A3.337,3.337,0,0,1,34.8-8.7v-1.82a3.333,3.333,0,0,1,1.07-2.71,4.4,4.4,0,0,1,2.85-.85h6.7v1.5a.79.79,0,0,1-.24.58.79.79,0,0,1-.58.24H38.54a1.421,1.421,0,0,0-.89.23,1.065,1.065,0,0,0-.29.87v1.72a.626.626,0,0,0,.15.43,1.084,1.084,0,0,0,.37.27,2.447,2.447,0,0,0,.5.16A4.134,4.134,0,0,0,38.9-8l3.66.48a7.174,7.174,0,0,1,1.42.32,3.5,3.5,0,0,1,1.11.61,2.629,2.629,0,0,1,.73.98,3.593,3.593,0,0,1,.26,1.45v2.1a3.365,3.365,0,0,1-.9,2.52,3.6,3.6,0,0,1-2.5.78h-7.2A.79.79,0,0,1,34.9,1a.79.79,0,0,1-.24-.58Zm15.12-.24V.94a2.775,2.775,0,0,1-.2,1.04,3.709,3.709,0,0,1-.52.91,4.726,4.726,0,0,1-.72.74,5.811,5.811,0,0,1-.78.55l-.68-.66a3.8,3.8,0,0,0,.42-.4,3.335,3.335,0,0,0,.4-.54,4.057,4.057,0,0,0,.31-.64,1.944,1.944,0,0,0,.13-.7h-.92V-.44a.837.837,0,0,1,.26-.63.864.864,0,0,1,.62-.25ZM69.38-11.7h2.94v1.48a.947.947,0,0,1-.19.59.589.589,0,0,1-.49.25H69.38v2.82a.563.563,0,0,1-.25.48.983.983,0,0,1-.59.18H66.82v-9.3h1.72a.947.947,0,0,1,.59.19.589.589,0,0,1,.25.49ZM54.4-14.68H65.2v1.48a.96.96,0,0,1-.19.58.582.582,0,0,1-.49.26H63.4v3.9h1.8v1.48a.947.947,0,0,1-.19.59.589.589,0,0,1-.49.25H55.08a.569.569,0,0,1-.51-.26,1.037,1.037,0,0,1-.17-.58V-8.46h1.8v-3.9H55.08a.563.563,0,0,1-.51-.27,1.053,1.053,0,0,1-.17-.57Zm6.44,6.22v-3.9H58.76v3.9ZM56.62-5.02H69.38v4.3a.947.947,0,0,1-.19.59.589.589,0,0,1-.49.25H59.18V1.14h10.2v1.2a.906.906,0,0,1-.19.58.726.726,0,0,1-.49.28H58.8a1.256,1.256,0,0,1-.8-.38L56.98,1.46A1.484,1.484,0,0,1,56.62.5V-1.94h10.2V-2.96h-9.5a.593.593,0,0,1-.52-.26,1,1,0,0,1-.18-.58Zm16.56-9.1h7.5v6.98a.983.983,0,0,1-.18.59.6.6,0,0,1-.52.25H75.74v3.18h4.94v1.48a1.011,1.011,0,0,1-.18.57.587.587,0,0,1-.52.27H75.74a1.209,1.209,0,0,1-.82-.34l-1.38-1.4a1.109,1.109,0,0,1-.36-.8V-8.62h4.94V-11.8H73.86a.582.582,0,0,1-.49-.26.96.96,0,0,1-.19-.58ZM84.42-15.2a.957.957,0,0,1,.6.2.591.591,0,0,1,.26.48V1.3a.835.835,0,0,1-.24.58L83.88,3.02a1.48,1.48,0,0,1-.23.11,1.232,1.232,0,0,1-.29.07h-.64V-6.48h-.98a.593.593,0,0,1-.52-.26,1,1,0,0,1-.18-.58V-8.8h1.68v-6.4Zm3.68,0a.928.928,0,0,1,.58.2.591.591,0,0,1,.26.48V1.3a.835.835,0,0,1-.24.58L87.54,3.02a1.479,1.479,0,0,1-.23.11,1.232,1.232,0,0,1-.29.07h-.64V-15.2ZM90.56-1.08H107.5V.4a1.053,1.053,0,0,1-.17.57.545.545,0,0,1-.49.27H91.22a.557.557,0,0,1-.48-.26A1,1,0,0,1,90.56.4Zm4.78-2.36a1.209,1.209,0,0,1-.82-.34L93.14-5.16a1.209,1.209,0,0,1-.34-.82V-14.1h12.48v1.48a.947.947,0,0,1-.19.59.589.589,0,0,1-.49.25H95.36v1.84h9.4v1.48a.916.916,0,0,1-.2.59.616.616,0,0,1-.5.25h-8.7v1.86h9.92v1.48a.947.947,0,0,1-.19.59.589.589,0,0,1-.49.25Z" transform="translate(188 227.081)" fill="#533aff"/>
  </g>
</svg>
