<svg xmlns="http://www.w3.org/2000/svg" width="216" height="72" viewBox="0 0 216 72">
  <g id="그룹_10" data-name="그룹 10" transform="translate(-980 -501)">
    <g id="패스_1" data-name="패스 1" transform="translate(980 501)" fill="#533aff">
      <path d="M 211 71.5 L 5 71.5 C 2.518694400787354 71.5 0.5 69.48130798339844 0.5 67 L 0.5 5 C 0.5 2.518694400787354 2.518694400787354 0.5 5 0.5 L 211 0.5 C 213.4813079833984 0.5 215.5 2.518694400787354 215.5 5 L 215.5 67 C 215.5 69.48130798339844 213.4813079833984 71.5 211 71.5 Z" stroke="none"/>
      <path d="M 5 1 C 2.794387817382813 1 1 2.794387817382813 1 5 L 1 67 C 1 69.20561218261719 2.794387817382813 71 5 71 L 211 71 C 213.2056121826172 71 215 69.20561218261719 215 67 L 215 5 C 215 2.794387817382813 213.2056121826172 1 211 1 L 5 1 M 5 0 L 211 0 C 213.7614135742188 0 216 2.23858642578125 216 5 L 216 67 C 216 69.76141357421875 213.7614135742188 72 211 72 L 5 72 C 2.238555908203125 72 0 69.76141357421875 0 67 L 0 5 C 0 2.23858642578125 2.238555908203125 0 5 0 Z" stroke="none" fill="#d6d6d6"/>
    </g>
    <path id="패스_5" data-name="패스 5" d="M19.975-5.45a1.091,1.091,0,0,1,.638.2.613.613,0,0,1,.288.525v7.65a1.085,1.085,0,0,1-.212.662.644.644,0,0,1-.538.287H8.25A1.315,1.315,0,0,1,7.3,3.45L5.6,1.75A1.3,1.3,0,0,1,5.2.8V-5.45H7.225a1.142,1.142,0,0,1,.638.188.6.6,0,0,1,.288.537v1.3h9.8V-5.45ZM11.1-9.025A5.217,5.217,0,0,1,7.175-7.35,5.255,5.255,0,0,1,3.25-9a5.544,5.544,0,0,1-1.625-4,5.545,5.545,0,0,1,.437-2.2A5.884,5.884,0,0,1,3.25-17a5.414,5.414,0,0,1,1.763-1.212,5.393,5.393,0,0,1,2.162-.438A5.307,5.307,0,0,1,11.1-17a5.544,5.544,0,0,1,1.625,4A5.515,5.515,0,0,1,11.1-9.025Zm9.525-9.85a1.126,1.126,0,0,1,.65.188.589.589,0,0,1,.275.513v10.65a.592.592,0,0,1-.288.5,1.091,1.091,0,0,1-.637.2H18.6V-11.55H16.55v4.025a.592.592,0,0,1-.288.5,1.091,1.091,0,0,1-.638.2H13.6v-12.05h2.025a1.142,1.142,0,0,1,.638.188.583.583,0,0,1,.288.513V-14.2H18.6v-4.675ZM4.3-12.975a3.041,3.041,0,0,0,.825,2.125,2.718,2.718,0,0,0,2.05.9,2.641,2.641,0,0,0,2.025-.9A2.967,2.967,0,0,0,10.05-13a2.967,2.967,0,0,0-.85-2.15,2.641,2.641,0,0,0-2.025-.9,2.718,2.718,0,0,0-2.05.9A3.072,3.072,0,0,0,4.3-13Zm13.65,14.2v-2H8.15v2Zm28.525-20.1a1.142,1.142,0,0,1,.638.188.6.6,0,0,1,.287.538v12.6a.6.6,0,0,1-.287.538,1.142,1.142,0,0,1-.638.188H44.45v-14.05Zm-11.85,20.1H47.4v1.7a1.2,1.2,0,0,1-.187.65.6.6,0,0,1-.537.3H34.75a1.113,1.113,0,0,1-.5-.1,1.7,1.7,0,0,1-.425-.325L32.1,2.025a1.449,1.449,0,0,1-.312-.425,1.25,1.25,0,0,1-.087-.5V-4.55h2a1.142,1.142,0,0,1,.638.188.6.6,0,0,1,.287.537ZM39.35-7.1a25.272,25.272,0,0,1-2.475-2.625Q35.4-11.55,34.95-12.25a22.364,22.364,0,0,1-2.1,2.65q-.725.825-1.325,1.45T30.45-7.1a.563.563,0,0,1-.9,0l-1-1.025q-.475-.55-.175-.95a25.2,25.2,0,0,0,1.888-1.888,24.428,24.428,0,0,0,1.587-1.962,7.735,7.735,0,0,0,1.6-3.25,1.822,1.822,0,0,0,.025-.3V-18.5H35.5a1.363,1.363,0,0,1,.725.137.493.493,0,0,1,.2.438V-16.8a3.349,3.349,0,0,0,.125.9,12.138,12.138,0,0,0,1.55,3.075,19.96,19.96,0,0,0,3.35,3.75.649.649,0,0,1,.2.475.644.644,0,0,1-.275.5L40.3-7.075A.6.6,0,0,1,39.35-7.1ZM66.875-4.45a4.55,4.55,0,0,1,2.25,3.775,4.44,4.44,0,0,1-2.275,3.75A9.22,9.22,0,0,1,61.425,4.65,9.22,9.22,0,0,1,56,3.075a4.448,4.448,0,0,1-2.25-3.75,3.432,3.432,0,0,1,.575-2.05,6.1,6.1,0,0,1,1.688-1.712A8.735,8.735,0,0,1,58.475-5.6a9.564,9.564,0,0,1,2.95-.4A9.445,9.445,0,0,1,66.875-4.45ZM58.1,1.25a6.592,6.592,0,0,0,3.325.8,6.645,6.645,0,0,0,3.35-.8,3.314,3.314,0,0,0,1.063-.9A1.729,1.729,0,0,0,66.2-.675,1.729,1.729,0,0,0,65.838-1.7a3.314,3.314,0,0,0-1.062-.9,7.414,7.414,0,0,0-6.7,0,3.235,3.235,0,0,0-1.025.9A1.768,1.768,0,0,0,56.7-.675,1.768,1.768,0,0,0,57.05.35,3.17,3.17,0,0,0,58.1,1.25ZM68.9-18.875a1.126,1.126,0,0,1,.65.188.589.589,0,0,1,.275.513v11.3a.62.62,0,0,1-.275.525,1.075,1.075,0,0,1-.65.2H66.875v-4.775h-3.6a.613.613,0,0,1-.525-.288,1.091,1.091,0,0,1-.2-.638v-1.725h4.325v-5.3ZM50.15-9.325a24.679,24.679,0,0,0,2.813-2.5A12.5,12.5,0,0,0,54.825-14.3H51.1a.6.6,0,0,1-.537-.3,1.2,1.2,0,0,1-.187-.65v-1.7H55.2v-3h2.025a1.048,1.048,0,0,1,.638.212.644.644,0,0,1,.288.538v2.25h4.825v1.7a1.131,1.131,0,0,1-.2.662.613.613,0,0,1-.525.287H58.525a19.718,19.718,0,0,0,4.7,4.975.526.526,0,0,1,.213.463.7.7,0,0,1-.287.512l-1.075,1a.594.594,0,0,1-.95,0Q59.9-8.4,58.7-9.638A18.64,18.64,0,0,1,56.725-12a17.137,17.137,0,0,1-1.962,2.4,22.741,22.741,0,0,1-2.538,2.25.9.9,0,0,1-.45.2.578.578,0,0,1-.45-.175l-1-1.05Q49.85-8.925,50.15-9.325Zm40.55-1.55h3.675V-9.15a1.075,1.075,0,0,1-.2.65.62.62,0,0,1-.525.275H90.7v9.85a.861.861,0,0,1-.275.625L89,3.675a1.225,1.225,0,0,1-.575.2H87.75v-22.75h2a1.085,1.085,0,0,1,.663.213.623.623,0,0,1,.287.513ZM80.225-16.3h5.15v1.725a1.075,1.075,0,0,1-.2.65.62.62,0,0,1-.525.275H72.85a.62.62,0,0,1-.525-.275,1.075,1.075,0,0,1-.2-.65V-16.3h5.15v-2.975H79.3a1.075,1.075,0,0,1,.65.2.62.62,0,0,1,.275.525Zm-5.55,5.375a5.429,5.429,0,0,1,4.075-1.75,5.429,5.429,0,0,1,4.075,1.75,5.9,5.9,0,0,1,1.7,4.225,5.928,5.928,0,0,1-1.7,4.25A5.429,5.429,0,0,1,78.75-.7a5.457,5.457,0,0,1-4.1-1.75A5.92,5.92,0,0,1,72.975-6.7,5.9,5.9,0,0,1,74.675-10.925Zm4.075,7.55a2.756,2.756,0,0,0,2.1-.95,3.455,3.455,0,0,0,.875-2.35,3.339,3.339,0,0,0-.875-2.35A2.726,2.726,0,0,0,78.75-10a2.677,2.677,0,0,0-2.1.975,3.339,3.339,0,0,0-.875,2.35,3.455,3.455,0,0,0,.875,2.35A2.756,2.756,0,0,0,78.75-3.375ZM106.5-15.4a1.3,1.3,0,0,1,.4.95v12.6a.62.62,0,0,1-.275.525,1.075,1.075,0,0,1-.65.2H103.95v-13.75h-7.7a.6.6,0,0,1-.537-.287,1.142,1.142,0,0,1-.187-.638v-1.725h8.325a1.29,1.29,0,0,1,.925.425Zm6.225-3.475a1.091,1.091,0,0,1,.637.2.613.613,0,0,1,.287.525V1.65a.861.861,0,0,1-.275.625L111.95,3.7a.791.791,0,0,1-.575.175H110.7v-22.75Z" transform="translate(1029.555 545.142)" fill="#fff"/>
  </g>
</svg>
