<svg xmlns="http://www.w3.org/2000/svg" width="457.171" height="40.437" viewBox="0 0 457.171 40.437">
  <g id="그룹_11" data-name="그룹 11" transform="translate(-979.388 -414.427)">
    <path id="패스_3" data-name="패스 3" d="M-.167-4.632A1.535,1.535,0,0,1,.292-5.675Q1.711-7.428,3.318-9.661A47.416,47.416,0,0,0,6.28-14.334,31.463,31.463,0,0,0,8.513-19.3a14.694,14.694,0,0,0,.876-4.82v-.5H3.38a1.229,1.229,0,0,1-1.022-.522,1.976,1.976,0,0,1-.4-1.231v-3.088H22.242v3.088a1.976,1.976,0,0,1-.4,1.231,1.229,1.229,0,0,1-1.022.522H14.731v.376a15.686,15.686,0,0,0,1.106,5.78,31.285,31.285,0,0,0,2.692,5.321,57.2,57.2,0,0,0,5.383,7.47,1.528,1.528,0,0,1,.417.96,1.35,1.35,0,0,1-.584,1.085l-1.92,1.586a1.507,1.507,0,0,1-.876.334A1.243,1.243,0,0,1,19.905-2.3a24.723,24.723,0,0,1-2.045-2.483Q16.776-6.26,15.711-7.887t-2.024-3.234q-.96-1.607-1.627-2.859a22.381,22.381,0,0,1-1.335,2.566Q9.807-9.848,8.68-8.158T6.343-4.841A28.2,28.2,0,0,1,4.131-2.17a1.785,1.785,0,0,1-.918.542,1.1,1.1,0,0,1-.96-.417L.376-3.589A1.346,1.346,0,0,1-.167-4.632ZM38.6-18.361v3.088a2.164,2.164,0,0,1-.355,1.21,1.187,1.187,0,0,1-1.064.542H32.466V2.712a1.676,1.676,0,0,1-.542,1.21L29.545,6.3a1.171,1.171,0,0,1-.459.292,2,2,0,0,1-.626.083H27.125V-31.715h3.547a2.174,2.174,0,0,1,1.231.376,1.224,1.224,0,0,1,.563,1.085v11.893Zm21.032-7.47a2.442,2.442,0,0,1,.522.772,2.358,2.358,0,0,1,.188.939V-3.088a1.229,1.229,0,0,1-.522,1.022,1.976,1.976,0,0,1-1.231.4H55V-24.621H42.356a1.187,1.187,0,0,1-1.043-.563,2.109,2.109,0,0,1-.376-1.189v-3.088h14.1a2.224,2.224,0,0,1,1.669.751Zm10.224-5.884a2,2,0,0,1,1.21.4,1.214,1.214,0,0,1,.542,1.022V2.712a1.742,1.742,0,0,1-.5,1.21L68.688,6.3a1.684,1.684,0,0,1-1.085.334H66.268v-38.35Zm31.548,0a2.174,2.174,0,0,1,1.231.376A1.187,1.187,0,0,1,103.2-30.3V2.754a1.605,1.605,0,0,1-.1.647,2.137,2.137,0,0,1-.438.563l-2.379,2.379a1.583,1.583,0,0,1-1.085.334H97.857V-8.1H94.018v5.008a1.187,1.187,0,0,1-.542,1.064,2.164,2.164,0,0,1-1.21.355H88.677V-24.621H78.244a1.2,1.2,0,0,1-1.043-.542,2.078,2.078,0,0,1-.376-1.21v-3.088H88.719a2.357,2.357,0,0,1,1.711.751l2.838,2.838a2.7,2.7,0,0,1,.605.814,2.508,2.508,0,0,1,.146.939v.334h3.839v-7.929ZM97.857-12.936v-6.009H94.018v6.009Zm11.184-18.779a2.174,2.174,0,0,1,1.231.376,1.187,1.187,0,0,1,.563,1.043V2.754a1.676,1.676,0,0,1-.542,1.21l-2.379,2.379a1.583,1.583,0,0,1-1.085.334h-1.335V-31.715Zm36.1,7.3h6.134v3.088a1.976,1.976,0,0,1-.4,1.231,1.229,1.229,0,0,1-1.022.522h-4.716v5.884a1.148,1.148,0,0,1-.542,1.022,2.164,2.164,0,0,1-1.21.355H139.8v-19.4h3.589a2,2,0,0,1,1.21.4,1.214,1.214,0,0,1,.542,1.022Zm-24.788,11.6a2.523,2.523,0,0,1-1.711-.709L115.76-16.4a2.384,2.384,0,0,1-.522-.793,2.409,2.409,0,0,1-.188-.918V-30.63h3.589a2,2,0,0,1,1.21.4,1.214,1.214,0,0,1,.542,1.022v2.8h8.722V-30.63H132.7a2,2,0,0,1,1.21.4,1.214,1.214,0,0,1,.542,1.022v14.647a1.976,1.976,0,0,1-.4,1.231,1.229,1.229,0,0,1-1.022.522Zm.042-8.763v3.923h8.722v-3.923Zm-1.878,11.1h26.624V-1.5a1.976,1.976,0,0,1-.4,1.231,1.229,1.229,0,0,1-1.022.522H123.855V2.379h21.282v2.5a1.889,1.889,0,0,1-.4,1.21,1.515,1.515,0,0,1-1.022.584H123.063a2.621,2.621,0,0,1-1.669-.793l-2.128-2.838a3.1,3.1,0,0,1-.751-2V-4.048H139.8V-6.176H119.974a1.238,1.238,0,0,1-1.085-.542,2.078,2.078,0,0,1-.376-1.21Zm61.3-15.357a2.442,2.442,0,0,1,.522.772,2.358,2.358,0,0,1,.188.939V-3.088A1.229,1.229,0,0,1,180-2.066a1.976,1.976,0,0,1-1.231.4h-3.589V-24.621H162.539a1.187,1.187,0,0,1-1.043-.563,2.109,2.109,0,0,1-.376-1.189v-3.088h14.1a2.224,2.224,0,0,1,1.669.751Zm10.224-5.884a2,2,0,0,1,1.21.4,1.214,1.214,0,0,1,.542,1.022V2.712a1.742,1.742,0,0,1-.5,1.21L188.871,6.3a1.684,1.684,0,0,1-1.085.334h-1.335v-38.35Zm27.125,18.361h15.023v3.088a2,2,0,0,1-.4,1.21,1.214,1.214,0,0,1-1.022.542H198.177a1.179,1.179,0,0,1-.981-.542,2,2,0,0,1-.4-1.21v-3.088h15.023v-1.878h-5.8a2.3,2.3,0,0,1-1.711-.793l-2.128-2.838a3.1,3.1,0,0,1-.751-2v-4.882h20.74v-1.419H202.893a1.285,1.285,0,0,1-1.043-.522,1.911,1.911,0,0,1-.417-1.231v-2.8h26.081v8.763a2,2,0,0,1-.4,1.21,1.214,1.214,0,0,1-1.022.542H206.773v1.419h20.74v2.754a2.066,2.066,0,0,1-.4,1.252,1.214,1.214,0,0,1-1.022.542h-8.93ZM201.182-6.719h26.624V5.216a1.268,1.268,0,0,1-.542,1.043,1.937,1.937,0,0,1-1.21.417h-3.589V-1.878H202.6a1.229,1.229,0,0,1-1.022-.522,1.976,1.976,0,0,1-.4-1.231ZM242.2-2.253h16.358a2.583,2.583,0,0,0,1.565-.417,1.758,1.758,0,0,0,.563-1.5V-7.678a2.341,2.341,0,0,0-.73-2.045,5.321,5.321,0,0,0-2.233-.709L249.8-11.476a19.108,19.108,0,0,1-2.879-.605,7.081,7.081,0,0,1-2.316-1.148,5.2,5.2,0,0,1-1.544-1.94,6.963,6.963,0,0,1-.563-2.984v-3.8q.042-3.881,2.233-5.654a9.183,9.183,0,0,1,5.947-1.774h13.98v3.13a1.649,1.649,0,0,1-.5,1.21,1.649,1.649,0,0,1-1.21.5H250.3a2.966,2.966,0,0,0-1.857.48,2.222,2.222,0,0,0-.605,1.815v3.589a1.306,1.306,0,0,0,.313.9,2.263,2.263,0,0,0,.772.563,5.1,5.1,0,0,0,1.043.334,8.625,8.625,0,0,0,1.085.167l7.637,1a14.968,14.968,0,0,1,2.963.668,7.3,7.3,0,0,1,2.316,1.273,5.485,5.485,0,0,1,1.523,2.045,7.5,7.5,0,0,1,.542,3.025V-4.3Q265.947-.668,264.153.96a7.514,7.514,0,0,1-5.216,1.627H243.913a1.649,1.649,0,0,1-1.21-.5,1.649,1.649,0,0,1-.5-1.21ZM289.191-29.42H292.4a1.616,1.616,0,0,1,1.21.522,1.719,1.719,0,0,1,.5,1.231V.876a1.851,1.851,0,0,1-.522,1.21,1.581,1.581,0,0,1-1.189.5h-5.717l-12.31-26.123V.876a1.649,1.649,0,0,1-.5,1.21,1.649,1.649,0,0,1-1.21.5h-3.213V-29.42h6.385a1.935,1.935,0,0,1,.876.209,1.335,1.335,0,0,1,.626.668L289.191-3.38Zm8.93,27.166h16.358a2.583,2.583,0,0,0,1.565-.417,1.758,1.758,0,0,0,.563-1.5V-7.678a2.341,2.341,0,0,0-.73-2.045,5.321,5.321,0,0,0-2.233-.709l-7.929-1.043a19.108,19.108,0,0,1-2.879-.605,7.081,7.081,0,0,1-2.316-1.148,5.2,5.2,0,0,1-1.544-1.94,6.963,6.963,0,0,1-.563-2.984v-3.8q.042-3.881,2.233-5.654a9.183,9.183,0,0,1,5.947-1.774h13.98v3.13a1.649,1.649,0,0,1-.5,1.21,1.649,1.649,0,0,1-1.21.5H306.217a2.966,2.966,0,0,0-1.857.48,2.222,2.222,0,0,0-.605,1.815v3.589a1.306,1.306,0,0,0,.313.9,2.263,2.263,0,0,0,.772.563,5.1,5.1,0,0,0,1.043.334,8.626,8.626,0,0,0,1.085.167l7.637,1a14.969,14.969,0,0,1,2.963.668,7.3,7.3,0,0,1,2.316,1.273,5.485,5.485,0,0,1,1.523,2.045,7.5,7.5,0,0,1,.543,3.025V-4.3Q321.865-.668,320.071.96a7.514,7.514,0,0,1-5.216,1.627H299.832a1.649,1.649,0,0,1-1.21-.5,1.649,1.649,0,0,1-.5-1.21Zm31.548-.5V1.961a5.79,5.79,0,0,1-.417,2.17,7.737,7.737,0,0,1-1.085,1.9,9.861,9.861,0,0,1-1.5,1.544,12.124,12.124,0,0,1-1.627,1.148l-1.419-1.377a7.932,7.932,0,0,0,.876-.835,6.959,6.959,0,0,0,.835-1.127,8.468,8.468,0,0,0,.647-1.335,4.057,4.057,0,0,0,.271-1.461h-1.92V-.918a1.747,1.747,0,0,1,.542-1.315,1.8,1.8,0,0,1,1.294-.522Z" transform="translate(979.555 446.142)" fill="#040000"/>
    <path id="패스_4" data-name="패스 4" d="M32.466-24.412H38.6v3.088a1.976,1.976,0,0,1-.4,1.231,1.229,1.229,0,0,1-1.022.522H32.466v5.884a1.175,1.175,0,0,1-.522,1,2.051,2.051,0,0,1-1.231.376H27.125v-19.4h3.589a1.976,1.976,0,0,1,1.231.4,1.229,1.229,0,0,1,.522,1.022ZM1.21-30.63H23.745v3.088a2,2,0,0,1-.4,1.21,1.214,1.214,0,0,1-1.022.542H19.989v8.137h3.756v3.088a1.976,1.976,0,0,1-.4,1.231,1.229,1.229,0,0,1-1.022.522H2.629a1.187,1.187,0,0,1-1.064-.542,2.164,2.164,0,0,1-.355-1.21v-3.088H4.966v-8.137H2.629a1.174,1.174,0,0,1-1.064-.563,2.2,2.2,0,0,1-.355-1.189ZM14.647-17.652v-8.137h-4.34v8.137ZM5.842-10.474H32.466V-1.5a1.976,1.976,0,0,1-.4,1.231A1.229,1.229,0,0,1,31.047.25H11.184V2.379H32.466v2.5a1.889,1.889,0,0,1-.4,1.21,1.515,1.515,0,0,1-1.022.584H10.391a2.621,2.621,0,0,1-1.669-.793L6.593,3.046a3.1,3.1,0,0,1-.751-2V-4.048H27.125V-6.176H7.3a1.238,1.238,0,0,1-1.085-.542,2.078,2.078,0,0,1-.376-1.21ZM40.395-29.462H56.044V-14.9a2.051,2.051,0,0,1-.376,1.231,1.255,1.255,0,0,1-1.085.522H45.736V-6.51H56.044v3.088a2.109,2.109,0,0,1-.376,1.189,1.224,1.224,0,0,1-1.085.563H45.736a2.523,2.523,0,0,1-1.711-.709L41.146-5.3a2.314,2.314,0,0,1-.751-1.669V-17.986H50.7v-6.635H41.814a1.214,1.214,0,0,1-1.022-.542,2,2,0,0,1-.4-1.21Zm23.452-2.253A2,2,0,0,1,65.1-31.3a1.233,1.233,0,0,1,.542,1V2.712a1.742,1.742,0,0,1-.5,1.21L62.721,6.3a3.087,3.087,0,0,1-.48.23,2.571,2.571,0,0,1-.605.146H60.3v-20.2H58.255a1.238,1.238,0,0,1-1.085-.542,2.078,2.078,0,0,1-.376-1.21v-3.088H60.3V-31.715Zm7.678,0a1.937,1.937,0,0,1,1.21.417,1.233,1.233,0,0,1,.542,1V2.712a1.742,1.742,0,0,1-.5,1.21L70.357,6.3a3.088,3.088,0,0,1-.48.23,2.571,2.571,0,0,1-.605.146H67.937V-31.715ZM76.658-2.253H112V.835a2.2,2.2,0,0,1-.355,1.189,1.138,1.138,0,0,1-1.022.563H78.036a1.162,1.162,0,0,1-1-.542,2.078,2.078,0,0,1-.376-1.21Zm9.974-4.924a2.523,2.523,0,0,1-1.711-.709l-2.879-2.879a2.523,2.523,0,0,1-.709-1.711V-29.42h26.04v3.088a1.976,1.976,0,0,1-.4,1.231,1.229,1.229,0,0,1-1.022.522H86.674v3.839h19.613v3.088a1.911,1.911,0,0,1-.417,1.231,1.285,1.285,0,0,1-1.043.522H86.674v3.881h20.7V-8.93a1.976,1.976,0,0,1-.4,1.231,1.229,1.229,0,0,1-1.022.522Z" transform="translate(1324.555 446.142)" fill="#533aff"/>
  </g>
</svg>
