<svg xmlns="http://www.w3.org/2000/svg" width="489.922" height="181.344" viewBox="0 0 489.922 181.344">
  <g id="그룹_13" data-name="그룹 13" transform="translate(-1071.385 -280)">
    <path id="패스_6" data-name="패스 6" d="M1.62-11.79H39.78v3.33a2.131,2.131,0,0,1-.428,1.327,1.325,1.325,0,0,1-1.1.562H23.58V2.97a1.879,1.879,0,0,1-.54,1.305l-2.655,2.61A2.05,2.05,0,0,1,19.26,7.2H17.82V-6.57H3.105a1.261,1.261,0,0,1-1.058-.607A2.192,2.192,0,0,1,1.62-8.46Zm5.85-7.065a2.691,2.691,0,0,1-.81-1.89V-34.2h3.87a2.159,2.159,0,0,1,1.305.427,1.309,1.309,0,0,1,.585,1.1v3.645H29.025V-34.2H32.9a2.333,2.333,0,0,1,1.305.382,1.28,1.28,0,0,1,.585,1.147v15.8a2.159,2.159,0,0,1-.428,1.305,1.309,1.309,0,0,1-1.1.585H12.42a2.917,2.917,0,0,1-1.89-.81Zm21.555-4.95H12.42v3.6H29.025ZM77.535-34.2a2.088,2.088,0,0,1,1.305.45,1.368,1.368,0,0,1,.585,1.125V2.97a1.879,1.879,0,0,1-.54,1.305L77.243,5.918q-.653.652-.968.923a1.936,1.936,0,0,1-1.17.36h-1.44V-14.58h-3.24V2.97a1.879,1.879,0,0,1-.54,1.305L67.275,6.84a1.936,1.936,0,0,1-1.17.36h-1.44V-34.2H68.49a2.313,2.313,0,0,1,1.35.4,1.335,1.335,0,0,1,.585,1.17V-19.8h3.24V-34.2Zm-17.1,6.345A2.721,2.721,0,0,1,61.2-26.01V-3.33a1.325,1.325,0,0,1-.562,1.1A2.131,2.131,0,0,1,59.31-1.8H55.44V-14.445H45.36a1.32,1.32,0,0,1-1.17-.608,2.275,2.275,0,0,1-.4-1.283v-3.33H55.44V-26.55H44.19a1.309,1.309,0,0,1-1.1-.585,2.228,2.228,0,0,1-.428-1.35V-31.77H55.485a2.4,2.4,0,0,1,1.8.81Z" transform="translate(1071 371.152)" fill="#3f3f3f"/>
    <path id="패스_7" data-name="패스 7" d="M3.47-7.5v-6.549H4.69v2.283h7.62v-2.283h1.22V-7.5Zm8.84-3.179H4.69v2.092h7.62ZM9.114-4.3V1.494H7.869V-4.3h-6.8V-5.42H15.929V-4.3ZM29.531,1.494V-6.458H27.539V1h-1.22v-15.19h1.22v6.632h1.992v-6.956h1.237V1.494Zm-5.2-14.618A13.315,13.315,0,0,1,18.308-2.316l-.988-.863a10.337,10.337,0,0,0,2.909-2.4A11.2,11.2,0,0,0,22.135-8.6l-4.067.523-.44-1.17,4.914-.374a8.993,8.993,0,0,0,.473-2.416h-4.74v-1.087Zm21.5,6.475V1.494H44.593V-14.518H45.83V-7.77H48.6v1.121ZM34.442-2.108V-8.417h5.835V-11.97H34.442v-1.1h7.072V-7.33H35.687V-3.2a46.6,46.6,0,0,0,7.4-.357l.174,1.087A68.964,68.964,0,0,1,34.442-2.108ZM52.194-8.566v-5.371H53.43V-9.67h8.757v1.1ZM49.521-5.238V-6.358H64.379v1.121ZM52.119.88V-3.876h1.245V-.241h8.857V.88Zm29.262.614V-14.518h1.237V1.494ZM78.168-13.041a11.14,11.14,0,0,1-1.909,6.105,14.9,14.9,0,0,1-5.3,4.694l-.946-1A11.862,11.862,0,0,0,74.5-6.583a10,10,0,0,0,2.341-5.354H70.665v-1.1ZM88.3-9.081v-5.1h1.237v3.993h8.774v1.1ZM85.628-6.226v-1.1h14.858v1.1Zm7.429,7.521a7.668,7.668,0,0,1-3.864-.8,2.44,2.44,0,0,1-1.357-2.179,2.434,2.434,0,0,1,1.357-2.171,9.72,9.72,0,0,1,7.728,0,2.434,2.434,0,0,1,1.357,2.171A2.44,2.44,0,0,1,96.921.494,7.668,7.668,0,0,1,93.057,1.295Zm0-4.9a6.477,6.477,0,0,0-2.914.519,1.564,1.564,0,0,0-1,1.4,1.571,1.571,0,0,0,.988,1.4,6.424,6.424,0,0,0,2.922.523,6.428,6.428,0,0,0,2.918-.523,1.572,1.572,0,0,0,.992-1.4,1.56,1.56,0,0,0-1-1.4A6.523,6.523,0,0,0,93.057-3.6Zm16.15-5.2a7.686,7.686,0,0,1-3.8-.768,2.31,2.31,0,0,1-1.328-2.054,2.313,2.313,0,0,1,1.332-2.05,7.655,7.655,0,0,1,3.8-.772,7.748,7.748,0,0,1,3.81.76,2.305,2.305,0,0,1,1.32,2.063,2.308,2.308,0,0,1-1.324,2.059A7.717,7.717,0,0,1,109.207-8.807Zm0-4.657a6.425,6.425,0,0,0-2.847.506,1.508,1.508,0,0,0-1,1.328,1.518,1.518,0,0,0,1,1.345,6.434,6.434,0,0,0,2.839.506,6.353,6.353,0,0,0,2.831-.515,1.526,1.526,0,0,0,1.013-1.336,1.518,1.518,0,0,0-1.009-1.32A6.348,6.348,0,0,0,109.207-13.464Zm-7.429,7.039V-7.446h14.858v1.021Zm2.4,7.753V-2.333H113V-3.893h-8.824V-4.931H114.22v3.569H105.4V.291h9.247V1.328Zm17.558-6.583v-1.1h6.815V-8.01H124.2v-6.151h9.978v1.1h-8.741v1.428H133.9v1.087h-8.467V-9.1h8.948V-8.01h-4.59v1.652h6.8v1.1Zm7.429,6.732a8.035,8.035,0,0,1-3.885-.755,2.323,2.323,0,0,1-1.336-2.1,2.323,2.323,0,0,1,1.336-2.1,10.367,10.367,0,0,1,7.77,0,2.323,2.323,0,0,1,1.336,2.1,2.323,2.323,0,0,1-1.336,2.1A8.035,8.035,0,0,1,129.163,1.478Zm0-4.657q-3.91,0-3.91,1.8t3.91,1.8q3.91,0,3.91-1.8T129.163-3.179ZM150.41,1.494V-6.035h-1.9V.988h-1.22v-15.2h1.22v7.072h1.9v-7.379h1.245V1.494ZM137.917-10.542v-1.1h3.553v-2.482h1.245v2.482h3.553v1.1Zm4.217,8.16a3.519,3.519,0,0,1-2.54-.992A3.358,3.358,0,0,1,138.565-5.9a3.372,3.372,0,0,1,1.025-2.519,3.5,3.5,0,0,1,2.544-1,3.491,3.491,0,0,1,2.532.992A3.372,3.372,0,0,1,145.687-5.9a3.359,3.359,0,0,1-1.025,2.536A3.511,3.511,0,0,1,142.134-2.382Zm0-5.952a2.277,2.277,0,0,0-1.722.689,2.419,2.419,0,0,0-.66,1.743,2.4,2.4,0,0,0,.664,1.751,2.3,2.3,0,0,0,1.718.681,2.309,2.309,0,0,0,1.71-.677,2.383,2.383,0,0,0,.672-1.756,2.4,2.4,0,0,0-.668-1.747A2.291,2.291,0,0,0,142.134-8.334Zm28.1,9.828V-6.292h-1.917V1h-1.229v-15.2h1.229v6.782h1.917v-7.105h1.245V1.494ZM165.22-2.258a11.562,11.562,0,0,1-3.013-5.005,9.769,9.769,0,0,1-1.22,2.689,12.766,12.766,0,0,1-1.992,2.532l-.963-.78a8.69,8.69,0,0,0,2.486-3.15,9.192,9.192,0,0,0,1.1-4.213v-3.163h1.22v3.179a9.037,9.037,0,0,0,.959,3.943,9.33,9.33,0,0,0,2.353,3.163ZM176.232-9.67H185.3v-2.366h-9.031v-1.087h10.268V-8.6h-9.04v2.648H187v1.1h-4.947v2.914h6.8v1.1H173.991v-1.1h6.815V-4.848h-4.574ZM197.57-7.853a6.5,6.5,0,0,1-3.686-.892,2.687,2.687,0,0,1-1.312-2.3,2.7,2.7,0,0,1,1.312-2.32,6.5,6.5,0,0,1,3.686-.892,6.517,6.517,0,0,1,3.7.9,2.7,2.7,0,0,1,1.316,2.316,2.689,2.689,0,0,1-1.316,2.3A6.517,6.517,0,0,1,197.57-7.853Zm0-5.337a5.34,5.34,0,0,0-2.735.581,1.759,1.759,0,0,0-.967,1.561,1.761,1.761,0,0,0,.975,1.556,5.316,5.316,0,0,0,2.727.585,5.316,5.316,0,0,0,2.727-.585,1.761,1.761,0,0,0,.975-1.556,1.759,1.759,0,0,0-.967-1.561A5.34,5.34,0,0,0,197.57-13.19Zm-.506,11.629V-5.254h-6.923V-6.375H205v1.121h-6.7v3.694ZM192.557.988V-3.744h1.237V-.116h9.1v1.1Zm30-7.894v8.4H221.32V-14.518h1.237V-8.01h2.772v1.1Zm-2.582,3.254a11.445,11.445,0,0,1-2.183.253q-1.37.054-6.524.054V-13.19h1.245v8.732l3.038.017q1.619,0,2.656-.071A13.88,13.88,0,0,0,219.8-4.69Zm19.072-4.7H228.663v-3.461h8.807V-13.19h-8.807v-1.054h10.027v3.4h-8.807V-9.4h9.164Zm2.059,2.4H226.248V-7.006h14.858Zm-2.025,7.28H228.613v-3.5h8.89V-3.553h-8.89V-4.607h10.11v3.42h-8.89V.274h9.247ZM258.747-9.521v3.146h-1.22v-8.143h1.22v3.893h2.416v1.1Zm-11.6,2.283V-13.97h1.22v2.5h4.9v-2.5h1.22v6.732ZM253.26-10.4h-4.9v2.092h4.9Zm-4.283,11.7V-2.631h8.55V-4.4h-8.55V-5.5h9.77V-1.6H250.2V.208h9V1.295Zm25.447-4.1V-6.035h-3.362V-7.122h3.362V-9.961h-3.2v-1.087h3.2v-3.47h1.245V-2.806ZM270.854-13.48A8.077,8.077,0,0,1,268.8-8.4a12.555,12.555,0,0,1-5.184,3.789l-.9-1A10.946,10.946,0,0,0,267.2-8.388a7.569,7.569,0,0,0,2.241-3.989h-5.661v-1.1Zm-5,14.344V-4.009h1.237V-.257h8.965V.863Zm25.107-6.915V1.494h-1.237V-14.518h1.237v7.363h2.706v1.1Zm-12.285-4.8V-11.97H282.8v-2.548h1.245v2.548h4.142v1.121Zm4.74,8.367A4.123,4.123,0,0,1,280.53-3.5a3.287,3.287,0,0,1-1.121-2.532,3.3,3.3,0,0,1,1.121-2.552A4.157,4.157,0,0,1,283.435-9.6a4.15,4.15,0,0,1,2.9,1.021,3.318,3.318,0,0,1,1.125,2.565,3.253,3.253,0,0,1-1.125,2.528A4.2,4.2,0,0,1,283.419-2.482Zm.017-6.068a2.833,2.833,0,0,0-2.017.739,2.348,2.348,0,0,0-.789,1.776,2.321,2.321,0,0,0,.793,1.764,2.845,2.845,0,0,0,2.013.735,2.845,2.845,0,0,0,2.013-.735,2.321,2.321,0,0,0,.793-1.764,2.348,2.348,0,0,0-.789-1.776A2.833,2.833,0,0,0,283.435-8.55ZM306.965,1.494V-14.518H308.2V1.494ZM304.059,1V-7.9H301.27v-1.1h2.789v-5.188h1.22V1Zm-2.2-3.262a11.492,11.492,0,0,1-3-5.005,9.3,9.3,0,0,1-1.208,2.689,12.7,12.7,0,0,1-2,2.532l-.971-.78a8.365,8.365,0,0,0,2.5-3.15,9.31,9.31,0,0,0,1.087-4.213v-3.163h1.229v3.179a8.957,8.957,0,0,0,.975,3.984A9.382,9.382,0,0,0,302.8-3.063Zm8.945,1.22v-1.1h3.843V-6.226a3.4,3.4,0,0,1-1.818-3.138,3.366,3.366,0,0,1,1.49-2.926,6.7,6.7,0,0,1,3.914-1.042,6.652,6.652,0,0,1,3.91,1.042,3.375,3.375,0,0,1,1.478,2.926,3.4,3.4,0,0,1-1.8,3.138v4.084h3.843v1.1Zm3.312-8.326a2.392,2.392,0,0,0,1.133,2.1,5.272,5.272,0,0,0,2.984.76,5.209,5.209,0,0,0,2.976-.764,2.4,2.4,0,0,0,1.125-2.092,2.422,2.422,0,0,0-1.133-2.108,5.175,5.175,0,0,0-2.968-.772,5.211,5.211,0,0,0-2.98.772A2.42,2.42,0,0,0,314.116-9.363Zm1.768,3.652v3.569h4.7V-5.711a8.009,8.009,0,0,1-2.349.307A8.789,8.789,0,0,1,315.885-5.711ZM327.735.183a.881.881,0,0,1-.652-.274.9.9,0,0,1-.27-.656.916.916,0,0,1,.27-.66.875.875,0,0,1,.652-.278.9.9,0,0,1,.664.278.908.908,0,0,1,.274.66.9.9,0,0,1-.274.656A.9.9,0,0,1,327.735.183ZM11.148,22.471a7.354,7.354,0,0,1-2.561-1.009A4.941,4.941,0,0,1,6.9,19.939a4.773,4.773,0,0,1-1.7,1.639,8.979,8.979,0,0,1-2.6,1.183l-.8-.971A6.436,6.436,0,0,0,4.79,20.574a3.244,3.244,0,0,0,1.436-2.137H2.449v-1.1H6.275V15.465H7.512v1.868h3.71v1.1H7.545a2.879,2.879,0,0,0,1.365,1.93A6.423,6.423,0,0,0,11.9,21.434Zm2.125,9.023V15.482h1.245V31.494Zm-6.964-.457V25.069q-3.976.066-5.1.066l-.116-1.087q1.917,0,5.877-.071t5.379-.162l.066,1.071q-1.826.116-4.864.149v6Zm22.816.457V15.482h1.237V31.494Zm-10.8-4.707V16.893h7.62v9.895ZM24.7,17.98H19.57V25.7H24.7Zm21.471,3.669H35.786V18.188h8.807V16.81H35.786V15.756H45.814v3.4H37.007V20.6h9.164Zm2.059,2.4H33.371V22.994H48.229ZM46.2,31.328H35.737v-3.5h8.89V26.447h-8.89V25.393h10.11v3.42h-8.89v1.461H46.2Zm19.027.166V15.482h1.237V31.494ZM62.018,16.959a11.14,11.14,0,0,1-1.909,6.105,14.9,14.9,0,0,1-5.3,4.694l-.946-1a11.862,11.862,0,0,0,4.491-3.337,10,10,0,0,0,2.341-5.354H54.515v-1.1ZM69.478,25V23.916h6.8V22.164h-4.3V18.42h8.633V16.926H71.976V15.839h9.861v3.652H73.2v1.585h9.006v1.087H77.538v1.751h6.8V25ZM80.65,31.494V27.667H71.586V26.547h10.3v4.947Zm17.437-7.545v7.545H96.85V15.482h1.237v7.363h2.706v1.1ZM85.8,19.151V18.03h4.125V15.482h1.245V18.03h4.142v1.121Zm4.74,8.367A4.123,4.123,0,0,1,87.653,26.5a3.444,3.444,0,0,1,0-5.084,4.645,4.645,0,0,1,5.806,0,3.318,3.318,0,0,1,1.125,2.565,3.253,3.253,0,0,1-1.125,2.528A4.2,4.2,0,0,1,90.542,27.518Zm.017-6.068a2.833,2.833,0,0,0-2.017.739,2.348,2.348,0,0,0-.789,1.776,2.321,2.321,0,0,0,.793,1.764,3.125,3.125,0,0,0,4.026,0,2.321,2.321,0,0,0,.793-1.764,2.348,2.348,0,0,0-.789-1.776A2.833,2.833,0,0,0,90.558,21.45ZM113.88,25.6l-1.2-.108a44.993,44.993,0,0,0,.291-4.881v-2.5h-9.031V16.993H114.2v3.644A39.25,39.25,0,0,1,113.88,25.6Zm-12.1,3.038V27.518h5.9V22.3h1.237v5.221h7.72v1.121Zm17.7-.531-1.328,4.084h-.971l.971-4.084Zm16.993,3.387V15.482h1.237V31.494ZM125.69,27.128V16.686h1.245v4.1h5.18v-4.1h1.245V27.128Zm6.425-5.238h-5.18v4.134h5.18Zm22.035-.581a10.345,10.345,0,0,1-3.686-1.291,6.723,6.723,0,0,1-2.3-1.971A6.844,6.844,0,0,1,145.854,20a10.02,10.02,0,0,1-3.623,1.291l-.73-1a8.577,8.577,0,0,0,4.262-1.457q1.772-1.241,1.772-2.436v-.564h1.229V16.4q0,1.2,1.731,2.445a8.4,8.4,0,0,0,4.3,1.465ZM140.72,24.065V22.944h14.858v1.121ZM153.76,31.22a8.881,8.881,0,0,1-5.611-3.428,6.509,6.509,0,0,1-2.216,2.079A10.372,10.372,0,0,1,142.6,31.22l-.78-.963a8.364,8.364,0,0,0,3.984-1.59,3.572,3.572,0,0,0,1.71-2.677v-.564h1.245v.548a3.509,3.509,0,0,0,1.677,2.665,8.41,8.41,0,0,0,4.018,1.619Zm15.652-8.425V27.4h-1.237V15.482h1.237v6.184h2.416v1.129Zm-12.426-4.067v-1.1h4.134V15.548h1.262v2.075h4.125v1.1Zm4.765,6.89a4.362,4.362,0,0,1-2.868-.876,2.694,2.694,0,0,1-1.058-2.154,2.667,2.667,0,0,1,1.058-2.133,5.212,5.212,0,0,1,5.765,0,2.66,2.66,0,0,1,1.063,2.137,2.694,2.694,0,0,1-1.067,2.146A4.4,4.4,0,0,1,161.751,25.617Zm.017-4.98a3.25,3.25,0,0,0-1.992.548,1.682,1.682,0,0,0-.73,1.4,1.708,1.708,0,0,0,.735,1.419,3.831,3.831,0,0,0,3.976,0,1.708,1.708,0,0,0,.735-1.419,1.682,1.682,0,0,0-.73-1.4A3.25,3.25,0,0,0,161.767,20.637ZM159.675,31.2V26.771h1.22V30.1h9.015v1.1Zm29.611-8.11v8.4h-1.237V15.482h1.237V21.99h2.772v1.1ZM185.7,27.435a13.161,13.161,0,0,1-2.507-2.577,9.17,9.17,0,0,1-1.5-2.694A9.785,9.785,0,0,1,180.2,25a12.808,12.808,0,0,1-2.482,2.635l-.955-.83a10.013,10.013,0,0,0,3.129-3.391,8.428,8.428,0,0,0,1.17-4.2V16.586H182.3v2.565a7.945,7.945,0,0,0,1.158,4.067,9.627,9.627,0,0,0,3.117,3.246Zm19.819-6.682V24.7h-1.237V15.482h1.237v4.167h2.416v1.1Zm-2.781,2.889a20.418,20.418,0,0,1-2.644.261q-1.341.046-6,.046V19.342h5.918V17.233H194.1v-1.1h7.155v4.3h-5.91v2.432q3.71,0,4.972-.054a15.428,15.428,0,0,0,2.216-.237Zm-6.973,7.479V25.584h9.753v5.537Zm8.533-4.433h-7.313v3.329H204.3Zm7.326-6V15.839h9.928v1.054h-8.7v2.739h8.89v1.054Zm-2.5,2.714V22.347h14.858V23.4Zm2.416,7.894V27.667h8.774V26.09h-8.774V25.036h9.994v3.619h-8.774v1.585h9.2v1.054Zm29.1-8.367h-2.615v8.566h-1.262V15.482h1.245v6.342h2.631Zm-6.267-5.935q0,4.657-.307,8.226l-1.212-.083q.1-.88.187-3.308t.087-3.731h-6.8v-1.1Zm1.3,11.239q-4.333.241-10.725.241l-.116-1.087q.855,0,4.009-.042V21.807h1.245v5.52l5.5-.166Zm22.273-5.711v4.9H256.7V15.482h1.245V21.4h2.4v1.121Zm-3.5-5.952a52.005,52.005,0,0,1-.257,5.595l-1.2-.083a44.117,44.117,0,0,0,.224-4.408h-6.732v-1.1Zm1.087,7.936q-1.121.091-4.727.183t-5.557.091l-.116-1.1q2.125,0,3.943-.05V20.072h1.237v3.536q3.1-.042,5.155-.174Zm-7.579,6.45V26.331h1.237v3.52h9.181v1.1Zm25.754.54V15.482h1.237V31.494Zm-2.938-.523V24.887h-3.287V23.774h3.287V20.4h-2.839a13.446,13.446,0,0,1-5.462,7.271l-.988-.847a10.807,10.807,0,0,0,3.852-3.661,10.482,10.482,0,0,0,1.843-5.2h-4.74V16.876h6.051a13.3,13.3,0,0,1-.291,2.416h2.573V15.806h1.22V30.971Zm22.928-6.6v-3.4h-1.868v3.4H290.6V15.806h1.229v4.042H293.7V15.482h1.237v8.89Zm-11.405-.955V16.262h6.574v7.155Zm5.371-6.068H283.5v4.964h4.167Zm7.579,13.788a9.2,9.2,0,0,1-3.217-1.253,7.667,7.667,0,0,1-2.411-2.059A7.139,7.139,0,0,1,287.25,29.9a8.983,8.983,0,0,1-3.237,1.241l-.714-1a7.865,7.865,0,0,0,3.777-1.407,4.067,4.067,0,0,0,1.9-2.362h-4.831v-1.1h10.965v1.1H290.3a4.078,4.078,0,0,0,1.868,2.32,8.238,8.238,0,0,0,3.793,1.448ZM309.593,25.6l-1.2-.108a44.991,44.991,0,0,0,.291-4.881v-2.5h-9.031V16.993h10.268v3.644A39.25,39.25,0,0,1,309.593,25.6Zm-12.1,3.038V27.518h5.9V22.3h1.237v5.221h7.72v1.121Zm17.7-.531-1.328,4.084h-.971l.971-4.084Zm17.367,3.387V15.482H333.8V31.494ZM321,17.964V16.876h9.687v1.087Zm10.492,9.006a13.367,13.367,0,0,1-2.59.241h-8.425v-1.1h2.482l-.174-6.973h1.245l.149,6.973H327.5l.158-6.973h1.22l-.166,6.973a12.84,12.84,0,0,0,2.648-.191Zm17.287-8.89h-8.583v4.98h8.84v1.112H338.947v-7.2h9.828ZM336.432,28.722v-1.1h14.858v1.1Zm28.51-4.109V20.869h-1.851v3.744h-1.229V15.806h1.229v3.943h1.851V15.482h1.237v9.131Zm-11.405-.888V16.163h1.22V19.1h4.117V16.163h1.22v7.562Zm5.337-3.52h-4.117v2.416h4.117Zm6.068,11.289V26.6h-9.23v-1.1h10.467v6Zm11.219-10.3a7.686,7.686,0,0,1-3.8-.768,2.248,2.248,0,0,1,0-4.1,7.655,7.655,0,0,1,3.8-.772,7.748,7.748,0,0,1,3.81.76,2.267,2.267,0,0,1,0,4.121A7.717,7.717,0,0,1,376.161,21.193Zm0-4.657a6.425,6.425,0,0,0-2.847.506,1.393,1.393,0,0,0,.008,2.673,6.434,6.434,0,0,0,2.839.506,6.353,6.353,0,0,0,2.831-.515A1.526,1.526,0,0,0,380,18.371,1.518,1.518,0,0,0,379,17.051,6.348,6.348,0,0,0,376.161,16.536Zm-7.429,7.039V22.554h14.858v1.021Zm2.4,7.753V27.667h8.824V26.107h-8.824V25.069h10.044v3.569h-8.824v1.652H381.6v1.038Zm30-5.661-1.22-.141q.232-2.382.232-5.08V18.113h-9.521V16.993h10.8v3.453A52.272,52.272,0,0,1,401.132,25.667ZM388.689,28.78V27.651h3.843V22.214h1.22v5.437h2.839V22.214h1.229v5.437h5.728V28.78Zm28.933-5.852v4.848h-1.237V15.482h1.237v6.342h2.4v1.1Zm-12.235-4.557V17.283H409.5V15.515h1.229v1.768h4.092v1.087Zm9.928,7.67q-5.039.291-10.3.291l-.125-1.087q1.693,0,4.59-.075v-1.2a4.548,4.548,0,0,1-2.486-.793,2.042,2.042,0,0,1-.876-1.673,2.076,2.076,0,0,1,1.063-1.814A5.341,5.341,0,0,1,410.093,19a5.157,5.157,0,0,1,2.9.718,2.1,2.1,0,0,1,1.075,1.781,2.045,2.045,0,0,1-.872,1.673,4.539,4.539,0,0,1-2.49.793v1.187q2.789-.066,4.532-.183Zm-5.221-6.035a4.061,4.061,0,0,0-2.021.423,1.235,1.235,0,0,0-.735,1.071,1.217,1.217,0,0,0,.743,1.063,5.089,5.089,0,0,0,4.026,0,1.217,1.217,0,0,0,.743-1.062,1.235,1.235,0,0,0-.735-1.071A4.061,4.061,0,0,0,410.093,20.006Zm-2.582,11.289v-4.1h1.22v3.013H418v1.087Zm26,.2V23.965h-1.9v7.022h-1.22v-15.2h1.22v7.072h1.9V15.482h1.245V31.494ZM421.022,19.458v-1.1h3.553V15.872h1.245v2.482h3.553v1.1Zm4.217,8.16a3.519,3.519,0,0,1-2.54-.992,3.613,3.613,0,0,1,0-5.047,3.731,3.731,0,0,1,5.076-.008,3.644,3.644,0,0,1,0,5.063A3.511,3.511,0,0,1,425.239,27.618Zm0-5.952a2.277,2.277,0,0,0-1.722.689,2.637,2.637,0,0,0,0,3.495,2.5,2.5,0,0,0,3.428,0,2.623,2.623,0,0,0,0-3.5A2.291,2.291,0,0,0,425.239,21.666Zm19.96,2.88v3.445H452v1.1H437.139v-1.1h6.8V24.546h-4.4V16.86h1.237v2.772h7.587V16.86h1.22v7.687Zm3.163-3.793h-7.587v2.665h7.587ZM465.6,31.494V15.482h1.237V31.494ZM462.694,31V22.1H459.9v-1.1h2.789V15.806h1.22V31Zm-2.2-3.262a11.492,11.492,0,0,1-3-5.005,9.3,9.3,0,0,1-1.208,2.689,12.7,12.7,0,0,1-2,2.532l-.971-.78a8.365,8.365,0,0,0,2.5-3.15,9.31,9.31,0,0,0,1.087-4.213V16.652h1.229v3.179a8.957,8.957,0,0,0,.975,3.984,9.382,9.382,0,0,0,2.337,3.121Zm8.945,1.22v-1.1h3.843V23.774a3.4,3.4,0,0,1-1.818-3.138,3.366,3.366,0,0,1,1.49-2.926,7.865,7.865,0,0,1,7.823,0,3.375,3.375,0,0,1,1.478,2.926,3.4,3.4,0,0,1-1.8,3.138v4.084H484.3v1.1Zm3.312-8.326a2.392,2.392,0,0,0,1.133,2.1,5.272,5.272,0,0,0,2.984.76,5.209,5.209,0,0,0,2.976-.764,2.518,2.518,0,0,0-.008-4.2,6.114,6.114,0,0,0-5.948,0A2.42,2.42,0,0,0,472.751,20.637Zm1.768,3.652v3.569h4.7V24.289a8.009,8.009,0,0,1-2.349.307A8.789,8.789,0,0,1,474.519,24.289Zm11.85,5.894a.881.881,0,0,1-.652-.274.9.9,0,0,1-.27-.656.916.916,0,0,1,.27-.66.875.875,0,0,1,.652-.278.9.9,0,0,1,.664.278.908.908,0,0,1,.274.66.9.9,0,0,1-.274.656A.9.9,0,0,1,486.369,30.183Z" transform="translate(1074 429.152)" fill="#444"/>
    <g id="그룹_1" data-name="그룹 1" transform="translate(111.385 -838)">
      <rect id="사각형_6" data-name="사각형 6" width="39" height="4" transform="translate(960 1118)" fill="#533aff"/>
    </g>
  </g>
</svg>
