<svg xmlns="http://www.w3.org/2000/svg" width="231.248" height="107.055" viewBox="0 0 231.248 107.055">
  <g id="그룹_17" data-name="그룹 17" transform="translate(-72.437 -87.152)">
    <path id="패스_1" data-name="패스 1" d="M.9-6.55H22.1V-4.7a1.184,1.184,0,0,1-.238.738.736.736,0,0,1-.613.312H13.1v5.3a1.044,1.044,0,0,1-.3.725l-1.475,1.45A1.139,1.139,0,0,1,10.7,4H9.9V-3.65H1.725a.7.7,0,0,1-.588-.337A1.218,1.218,0,0,1,.9-4.7Zm3.25-3.925a1.5,1.5,0,0,1-.45-1.05V-19H5.85a1.2,1.2,0,0,1,.725.238.727.727,0,0,1,.325.613v2.025h9.225V-19h2.15a1.3,1.3,0,0,1,.725.213.711.711,0,0,1,.325.638v8.775a1.2,1.2,0,0,1-.237.725.727.727,0,0,1-.613.325H6.9a1.62,1.62,0,0,1-1.05-.45Zm11.975-2.75H6.9v2h9.225ZM43.075-19a1.16,1.16,0,0,1,.725.25.76.76,0,0,1,.325.625V1.65a1.044,1.044,0,0,1-.3.725l-.912.912q-.362.362-.538.513a1.075,1.075,0,0,1-.65.2h-.8V-8.1h-1.8V1.65a1.044,1.044,0,0,1-.3.725L37.375,3.8a1.075,1.075,0,0,1-.65.2h-.8V-19H38.05a1.285,1.285,0,0,1,.75.225.742.742,0,0,1,.325.65V-11h1.8v-8Zm-9.5,3.525A1.511,1.511,0,0,1,34-14.45v12.6a.736.736,0,0,1-.312.612A1.184,1.184,0,0,1,32.95-1H30.8V-8.025H25.2a.734.734,0,0,1-.65-.337,1.264,1.264,0,0,1-.225-.712v-1.85H30.8V-14.75H24.55a.727.727,0,0,1-.612-.325,1.238,1.238,0,0,1-.237-.75V-17.65h7.125a1.332,1.332,0,0,1,1,.45Z" transform="translate(165 106.152)" fill="#3f3f3f"/>
    <path id="패스_2" data-name="패스 2" d="M-113.869-5.291V-9.914h.861V-8.3h5.379V-9.914h.861v4.623Zm6.24-2.244h-5.379v1.477h5.379Zm-2.256,4.5v4.09h-.879v-4.09h-4.8v-.791h10.488v.791Zm14.412,4.09V-4.559h-1.406V.7h-.861V-10.02h.861v4.682h1.406v-4.91h.873v11.3ZM-99.147-9.264A9.4,9.4,0,0,1-103.4-1.635l-.7-.609a7.3,7.3,0,0,0,2.054-1.7,7.9,7.9,0,0,0,1.345-2.13l-2.871.369-.311-.826,3.469-.264a6.348,6.348,0,0,0,.334-1.705h-3.346v-.768Zm15.179,4.57V1.055h-.873v-11.3h.873v4.764h1.957v.791Zm-8.039,3.205V-5.941h4.119V-8.449h-4.119v-.779h4.992v4.055h-4.113v2.918A32.9,32.9,0,0,0-85.9-2.508l.123.768A48.68,48.68,0,0,1-92.007-1.488Zm12.531-4.559V-9.838h.873v3.012h6.182v.779ZM-81.363-3.7v-.791h10.488V-3.7ZM-79.529.621V-2.736h.879V-.17H-72.4V.621Zm20.655.434v-11.3H-58v11.3Zm-2.268-10.26A7.864,7.864,0,0,1-62.488-4.9a10.515,10.515,0,0,1-3.744,3.313l-.668-.709a8.373,8.373,0,0,0,3.17-2.355,7.057,7.057,0,0,0,1.652-3.779h-4.359v-.779Zm7.152,2.795v-3.6h.873v2.818h6.193v.779Zm-1.887,2.016v-.779h10.488v.779ZM-50.631.914A5.412,5.412,0,0,1-53.359.349a1.722,1.722,0,0,1-.958-1.538,1.718,1.718,0,0,1,.958-1.532,5.412,5.412,0,0,1,2.728-.565,5.412,5.412,0,0,1,2.728.565,1.718,1.718,0,0,1,.958,1.532A1.722,1.722,0,0,1-47.9.349,5.412,5.412,0,0,1-50.631.914Zm0-3.457a4.572,4.572,0,0,0-2.057.366,1.1,1.1,0,0,0-.7.987,1.109,1.109,0,0,0,.7.99A4.534,4.534,0,0,0-50.631.17,4.537,4.537,0,0,0-48.572-.2a1.109,1.109,0,0,0,.7-.99,1.1,1.1,0,0,0-.7-.99A4.6,4.6,0,0,0-50.631-2.543Zm11.4-3.674a5.425,5.425,0,0,1-2.684-.542,1.631,1.631,0,0,1-.937-1.45,1.633,1.633,0,0,1,.94-1.447,5.4,5.4,0,0,1,2.681-.545,5.469,5.469,0,0,1,2.689.536,1.627,1.627,0,0,1,.932,1.456,1.629,1.629,0,0,1-.935,1.453A5.447,5.447,0,0,1-39.231-6.217Zm0-3.287a4.535,4.535,0,0,0-2.01.357,1.065,1.065,0,0,0-.7.938,1.071,1.071,0,0,0,.709.949,4.542,4.542,0,0,0,2,.357,4.484,4.484,0,0,0,2-.363,1.077,1.077,0,0,0,.715-.943,1.071,1.071,0,0,0-.712-.932A4.481,4.481,0,0,0-39.231-9.5Zm-5.244,4.969v-.721h10.488v.721ZM-42.782.938V-1.646h6.229v-1.1h-6.229V-3.48h7.09v2.52h-6.229V.205h6.527V.938Zm12.394-4.646v-.779h4.811V-5.654h-3.07V-10h7.043v.779h-6.17v1.008H-21.8v.768h-5.977v1.02h6.316v.768H-24.7v1.166h4.8v.779Zm5.244,4.752A5.672,5.672,0,0,1-27.887.51,1.64,1.64,0,0,1-28.83-.973a1.64,1.64,0,0,1,.943-1.482,5.672,5.672,0,0,1,2.742-.533,5.672,5.672,0,0,1,2.742.533,1.64,1.64,0,0,1,.943,1.482A1.64,1.64,0,0,1-22.4.51,5.672,5.672,0,0,1-25.144,1.043Zm0-3.287q-2.76,0-2.76,1.271T-25.144.3q2.76,0,2.76-1.271T-25.144-2.244Zm15,3.3V-4.26h-1.342V.7h-.861V-10.031h.861v4.992h1.342v-5.209h.879v11.3Zm-8.818-8.5v-.779h2.508V-9.973h.879v1.752h2.508v.779Zm2.977,5.76a2.484,2.484,0,0,1-1.793-.7,2.371,2.371,0,0,1-.727-1.784,2.381,2.381,0,0,1,.724-1.778,2.47,2.47,0,0,1,1.8-.706,2.464,2.464,0,0,1,1.787.7,2.38,2.38,0,0,1,.721,1.784,2.371,2.371,0,0,1-.724,1.79A2.478,2.478,0,0,1-15.988-1.682Zm0-4.2A1.607,1.607,0,0,0-17.2-5.4a1.707,1.707,0,0,0-.466,1.23A1.7,1.7,0,0,0-17.2-2.93a1.62,1.62,0,0,0,1.213.48,1.63,1.63,0,0,0,1.207-.478,1.682,1.682,0,0,0,.475-1.239A1.693,1.693,0,0,0-14.779-5.4,1.617,1.617,0,0,0-15.988-5.883ZM3.847,1.055v-5.5H2.493V.709H1.626V-10.02h.867v4.787H3.847v-5.016h.879v11.3ZM.308-1.594A8.161,8.161,0,0,1-1.819-5.127a6.9,6.9,0,0,1-.861,1.9A9.011,9.011,0,0,1-4.087-1.441l-.68-.551A6.134,6.134,0,0,0-3.012-4.216a6.489,6.489,0,0,0,.776-2.974V-9.422h.861v2.244A6.379,6.379,0,0,0-.7-4.395,6.586,6.586,0,0,0,.964-2.162ZM8.081-6.826h6.4V-8.5H8.1v-.768h7.248V-6.07H8.971V-4.2H15.68v.779H12.188v2.057h4.8v.779H6.5v-.779h4.811V-3.422H8.081ZM23.143-5.543a4.59,4.59,0,0,1-2.6-.63A1.9,1.9,0,0,1,19.615-7.8a1.906,1.906,0,0,1,.926-1.638,4.59,4.59,0,0,1,2.6-.63,4.6,4.6,0,0,1,2.61.633A1.907,1.907,0,0,1,26.682-7.8a1.9,1.9,0,0,1-.929,1.623A4.6,4.6,0,0,1,23.143-5.543Zm0-3.768a3.769,3.769,0,0,0-1.931.41,1.242,1.242,0,0,0-.683,1.1,1.243,1.243,0,0,0,.688,1.1,3.753,3.753,0,0,0,1.925.413A3.753,3.753,0,0,0,25.068-6.7a1.243,1.243,0,0,0,.688-1.1,1.242,1.242,0,0,0-.683-1.1A3.769,3.769,0,0,0,23.143-9.311ZM22.785-1.1V-3.709H17.9V-4.5H28.387v.791H23.658V-1.1ZM19.6.7v-3.34h.873V-.082H26.9V.7ZM40.781-4.875v5.93h-.873v-11.3h.873v4.594h1.957v.779Zm-1.822,2.3a8.079,8.079,0,0,1-1.541.179q-.967.038-4.605.038V-9.311h.879v6.164l2.145.012q1.143,0,1.875-.05a9.8,9.8,0,0,0,1.125-.126ZM52.421-5.895h-7.33V-8.338h6.217v-.973H45.091v-.744h7.078v2.4H45.952v1.02h6.469ZM53.874-4.2H43.386v-.744H53.874ZM52.444.938H45.056V-1.535h6.275v-.973H45.056v-.744h7.137V-.838H45.917V.193h6.527ZM66.326-6.721V-4.5h-.861v-5.748h.861V-7.5h1.705v.779ZM58.135-5.109V-9.861H59V-8.1h3.457V-9.861h.861v4.752Zm4.318-2.232H59v1.477h3.457ZM59.43.914V-1.857h6.035V-3.105H59.43v-.773h6.9v2.748H60.291V.146h6.352V.914ZM77.392-1.98V-4.26H75.019v-.768h2.373v-2H75.137V-7.8h2.256v-2.449h.879V-1.98Zm-2.52-7.535a5.7,5.7,0,0,1-1.45,3.589,8.862,8.862,0,0,1-3.659,2.675l-.639-.709a7.727,7.727,0,0,0,3.17-1.96,5.343,5.343,0,0,0,1.582-2.815h-4v-.779ZM71.345.609V-2.83h.873V-.182h6.328V.609ZM89.068-4.271V1.055h-.873v-11.3h.873v5.2h1.91v.779ZM80.4-7.658v-.791h2.912v-1.8h.879v1.8h2.924v.791Zm3.346,5.906A2.91,2.91,0,0,1,81.7-2.473a2.32,2.32,0,0,1-.791-1.787,2.33,2.33,0,0,1,.791-1.8,2.934,2.934,0,0,1,2.051-.718,2.929,2.929,0,0,1,2.048.721A2.342,2.342,0,0,1,86.6-4.248,2.3,2.3,0,0,1,85.8-2.464,2.968,2.968,0,0,1,83.742-1.752Zm.012-4.283a2,2,0,0,0-1.424.521,1.657,1.657,0,0,0-.557,1.254,1.638,1.638,0,0,0,.56,1.245,2.009,2.009,0,0,0,1.421.519,2.009,2.009,0,0,0,1.421-.519,1.638,1.638,0,0,0,.56-1.245,1.657,1.657,0,0,0-.557-1.254A2,2,0,0,0,83.753-6.035Zm16.609,7.09v-11.3h.873v11.3ZM98.312.709V-5.578H96.343v-.779h1.969V-10.02h.861V.709Zm-1.553-2.3a8.112,8.112,0,0,1-2.121-3.533,6.563,6.563,0,0,1-.853,1.9A8.964,8.964,0,0,1,92.37-1.441l-.686-.551a5.9,5.9,0,0,0,1.764-2.224,6.572,6.572,0,0,0,.768-2.974V-9.422h.867v2.244a6.322,6.322,0,0,0,.688,2.813,6.623,6.623,0,0,0,1.649,2.2Zm6.314.861v-.779h2.713V-4.395A2.4,2.4,0,0,1,104.5-6.609a2.376,2.376,0,0,1,1.052-2.065,4.726,4.726,0,0,1,2.763-.735,4.7,4.7,0,0,1,2.76.735,2.382,2.382,0,0,1,1.043,2.065,2.4,2.4,0,0,1-1.271,2.215v2.883h2.713v.779Zm2.338-5.877a1.688,1.688,0,0,0,.8,1.479,3.721,3.721,0,0,0,2.106.536,3.677,3.677,0,0,0,2.1-.539,1.694,1.694,0,0,0,.794-1.477,1.71,1.71,0,0,0-.8-1.488,3.653,3.653,0,0,0-2.095-.545,3.678,3.678,0,0,0-2.1.545A1.708,1.708,0,0,0,105.411-6.609Zm1.248,2.578v2.52h3.316v-2.52a5.653,5.653,0,0,1-1.658.217A6.2,6.2,0,0,1,106.659-4.031Zm8.365,4.16a.622.622,0,0,1-.46-.193.636.636,0,0,1-.19-.463.646.646,0,0,1,.19-.466.617.617,0,0,1,.46-.2.634.634,0,0,1,.469.2.641.641,0,0,1,.193.466.632.632,0,0,1-.193.463A.638.638,0,0,1,115.024.129ZM-102.749,14.686a5.191,5.191,0,0,1-1.808-.712,3.488,3.488,0,0,1-1.192-1.075,3.369,3.369,0,0,1-1.2,1.157,6.338,6.338,0,0,1-1.837.835l-.562-.686a4.543,4.543,0,0,0,2.109-.858,2.29,2.29,0,0,0,1.014-1.509h-2.666v-.779h2.7V9.74h.873v1.318h2.619v.779h-2.6a2.032,2.032,0,0,0,.964,1.362,4.534,4.534,0,0,0,2.112.753Zm1.5,6.369V9.752h.879v11.3Zm-4.916-.322V16.52q-2.807.047-3.6.047l-.082-.768q1.354,0,4.148-.05t3.8-.114l.047.756q-1.289.082-3.434.105v4.236Zm16.105.322V9.752h.873v11.3Zm-7.623-3.322V10.748H-92.3v6.984Zm4.5-6.217H-96.8v5.449h3.621Zm15.156,2.59h-7.33V11.662h6.217v-.973h-6.217V9.945h7.078v2.4H-84.5v1.02h6.469Zm1.453,1.693H-87.063v-.744h10.488ZM-78,20.938h-7.389V18.465h6.275v-.973h-6.275v-.744h7.137v2.414h-6.275v1.031H-78Zm13.431.117V9.752h.873v11.3Zm-2.268-10.26a7.864,7.864,0,0,1-1.348,4.31,10.515,10.515,0,0,1-3.744,3.313l-.668-.709a8.373,8.373,0,0,0,3.17-2.355,7.057,7.057,0,0,0,1.652-3.779h-4.359v-.779Zm5.265,5.678v-.768h4.8V14.469h-3.035V11.826h6.094V10.771h-6.094V10h6.961v2.578h-6.094V13.7h6.357v.768h-3.3v1.236h4.8v.768Zm7.887,4.582v-2.7h-6.4v-.791h7.271v3.492Zm12.308-5.326v5.326h-.873V9.752h.873v5.2h1.91v.779Zm-8.672-3.387v-.791h2.912v-1.8h.879v1.8h2.924v.791Zm3.346,5.906a2.91,2.91,0,0,1-2.039-.721,2.32,2.32,0,0,1-.791-1.787,2.33,2.33,0,0,1,.791-1.8,2.934,2.934,0,0,1,2.051-.718,2.929,2.929,0,0,1,2.048.721,2.342,2.342,0,0,1,.794,1.811,2.3,2.3,0,0,1-.794,1.784A2.968,2.968,0,0,1-46.707,18.248Zm.012-4.283a2,2,0,0,0-1.424.521,1.657,1.657,0,0,0-.557,1.254,1.638,1.638,0,0,0,.56,1.245A2.009,2.009,0,0,0-46.7,17.5a2.009,2.009,0,0,0,1.421-.519,1.638,1.638,0,0,0,.56-1.245,1.657,1.657,0,0,0-.557-1.254A2,2,0,0,0-46.7,13.965Zm16.463,2.93-.85-.076a31.76,31.76,0,0,0,.205-3.445V11.609h-6.375v-.791H-30v2.572A27.706,27.706,0,0,1-30.233,16.895Zm-8.543,2.145v-.791h4.166V14.563h.873v3.686h5.449v.791Zm12.5-.375-.937,2.883H-27.9l.686-2.883Zm12,2.391V9.752h.873v11.3ZM-21.9,17.973V10.6h.879V13.5h3.656V10.6h.879v7.371Zm4.535-3.7h-3.656v2.918h3.656Zm15.554-.41a7.3,7.3,0,0,1-2.6-.911,4.746,4.746,0,0,1-1.623-1.392,4.831,4.831,0,0,1-1.632,1.38,7.073,7.073,0,0,1-2.558.911l-.516-.7a6.054,6.054,0,0,0,3.009-1.028q1.251-.876,1.251-1.72V10h.867v.4q0,.844,1.222,1.726a5.933,5.933,0,0,0,3.038,1.034Zm-9.48,1.945V15.02H-.8v.791Zm9.205,5.051a6.269,6.269,0,0,1-3.961-2.42,4.594,4.594,0,0,1-1.564,1.468,7.322,7.322,0,0,1-2.35.952l-.551-.68A5.9,5.9,0,0,0-7.7,19.06a2.522,2.522,0,0,0,1.207-1.89v-.4h.879v.387a2.477,2.477,0,0,0,1.184,1.881A5.936,5.936,0,0,0-1.59,20.182ZM8.967,14.914v3.252H8.094V9.752h.873v4.365h1.705v.8ZM.2,12.043v-.779H3.113V9.8H4v1.465H6.916v.779Zm3.363,4.863a3.079,3.079,0,0,1-2.024-.618,1.9,1.9,0,0,1-.747-1.521,1.883,1.883,0,0,1,.747-1.506,3.109,3.109,0,0,1,2.036-.615,3.121,3.121,0,0,1,2.033.612,1.877,1.877,0,0,1,.75,1.509A1.9,1.9,0,0,1,5.6,16.282,3.1,3.1,0,0,1,3.558,16.906Zm.012-3.516a2.294,2.294,0,0,0-1.406.387,1.187,1.187,0,0,0-.516.99,1.206,1.206,0,0,0,.519,1,2.272,2.272,0,0,0,1.4.393,2.272,2.272,0,0,0,1.4-.393,1.206,1.206,0,0,0,.519-1,1.187,1.187,0,0,0-.516-.99A2.294,2.294,0,0,0,3.57,13.391ZM2.094,20.85V17.721h.861v2.35H9.318v.779ZM23,15.125v5.93h-.873V9.752H23v4.594h1.957v.779Zm-2.531,3.064a9.29,9.29,0,0,1-1.77-1.819,6.473,6.473,0,0,1-1.061-1.9,6.907,6.907,0,0,1-1.055,2,9.041,9.041,0,0,1-1.752,1.86l-.674-.586a7.068,7.068,0,0,0,2.209-2.394,5.949,5.949,0,0,0,.826-2.968V10.531h.873v1.811a5.608,5.608,0,0,0,.817,2.871,6.8,6.8,0,0,0,2.2,2.291Zm13.99-4.717v2.783h-.873v-6.5h.873v2.941h1.705v.779Zm-1.963,2.039a14.413,14.413,0,0,1-1.866.185q-.946.032-4.233.032V12.477h4.178V10.988H26.391v-.779h5.051v3.035H27.27v1.717q2.619,0,3.51-.038a10.89,10.89,0,0,0,1.564-.167Zm-4.922,5.279V16.883h6.885v3.908Zm6.023-3.129H28.43v2.35h5.162Zm5.171-4.236V10h7.008v.744H39.631v1.934h6.275v.744ZM37,15.342V14.6H47.488v.744Zm1.705,5.572V18.354H44.9V17.24H38.705V16.5H45.76v2.555H39.567V20.17h6.492v.744Zm20.541-5.906H57.4v6.047H56.51V9.752h.879v4.477h1.857Zm-4.424-4.189q0,3.287-.217,5.807l-.855-.059q.07-.621.132-2.335t.062-2.634h-4.8v-.779Zm.92,7.934q-3.059.17-7.57.17l-.082-.768q.6,0,2.83-.029V14.217H51.8v3.9L55.683,18Zm15.722-4.031v3.457h-.879V9.752h.879V13.93h1.693v.791Zm-2.473-4.2a36.711,36.711,0,0,1-.182,3.949l-.85-.059a31.141,31.141,0,0,0,.158-3.111H63.366V10.52Zm.768,5.6q-.791.064-3.337.129t-3.923.064l-.082-.779q1.5,0,2.783-.035V12.992h.873v2.5q2.186-.029,3.639-.123Zm-5.35,4.553V17.41h.873v2.484h6.48v.779Zm18.179.381V9.752h.873v11.3Zm-2.074-.369V16.391h-2.32v-.785h2.32V13.221h-2a9.491,9.491,0,0,1-3.855,5.133l-.7-.6a7.628,7.628,0,0,0,2.719-2.584,7.4,7.4,0,0,0,1.3-3.668H74.631v-.768H78.9a9.387,9.387,0,0,1-.205,1.705h1.816V9.98h.861V20.686ZM96.7,16.027v-2.4H95.381v2.4h-.867V9.98h.867v2.854H96.7V9.752h.873v6.275Zm-8.051-.674V10.3h4.641v5.051Zm3.791-4.283H89.5v3.5h2.941Zm5.35,9.732a6.5,6.5,0,0,1-2.271-.885,5.412,5.412,0,0,1-1.7-1.453,5.039,5.039,0,0,1-1.67,1.462,6.341,6.341,0,0,1-2.285.876l-.5-.709a5.552,5.552,0,0,0,2.666-.993,2.871,2.871,0,0,0,1.342-1.667h-3.41v-.779H97.7v.779H94.3a2.879,2.879,0,0,0,1.318,1.638,5.815,5.815,0,0,0,2.678,1.022Zm10.129-3.908-.85-.076a31.76,31.76,0,0,0,.205-3.445V11.609H100.9v-.791h7.248v2.572A27.706,27.706,0,0,1,107.917,16.895Zm-8.543,2.145v-.791h4.166V14.563h.873v3.686h5.449v.791Zm-149.6,22.016v-11.3h.873v11.3ZM-58.385,31.5v-.768h6.838V31.5Zm7.406,6.357a9.435,9.435,0,0,1-1.828.17h-5.947v-.779H-57l-.123-4.922h.879l.105,4.922h2.35l.111-4.922h.861l-.117,4.922a9.064,9.064,0,0,0,1.869-.135Zm12.2-6.275h-6.059V35.1h6.24v.785h-7.119v-5.08h6.938ZM-47.488,39.1v-.779H-37V39.1Zm20.125-2.9V33.555h-1.307V36.2h-.867V29.98h.867v2.783h1.307V29.752h.873V36.2Zm-8.051-.627V30.232h.861v2.074h2.906V30.232h.861V35.57Zm3.768-2.484h-2.906v1.705h2.906Zm4.283,7.969V37.6h-6.516v-.779h7.389v4.236Zm7.92-7.271a5.425,5.425,0,0,1-2.684-.542,1.631,1.631,0,0,1-.937-1.45,1.633,1.633,0,0,1,.94-1.447,5.4,5.4,0,0,1,2.681-.545,5.469,5.469,0,0,1,2.689.536,1.627,1.627,0,0,1,.932,1.456,1.629,1.629,0,0,1-.935,1.453A5.447,5.447,0,0,1-19.444,33.783Zm0-3.287a4.535,4.535,0,0,0-2.01.357,1.065,1.065,0,0,0-.7.938,1.071,1.071,0,0,0,.709.949,4.542,4.542,0,0,0,2,.357,4.484,4.484,0,0,0,2-.363,1.077,1.077,0,0,0,.715-.943,1.071,1.071,0,0,0-.712-.932A4.481,4.481,0,0,0-19.444,30.5Zm-5.244,4.969v-.721H-14.2v.721ZM-23,40.938V38.354h6.229v-1.1H-23V36.52h7.09v2.52h-6.229v1.166h6.527v.732Zm21.177-4-.861-.1q.164-1.682.164-3.586V31.609H-9.236v-.791h7.623v2.438A36.9,36.9,0,0,1-1.818,36.941Zm-8.783,2.2v-.8h2.713V34.5h.861v3.838h2V34.5h.867v3.838H-.113v.8ZM9.822,35.008V38.43H8.949V29.752h.873v4.477h1.693v.779ZM1.185,31.791v-.768h2.9V29.775h.867v1.248H7.842v.768Zm7.008,5.414q-3.557.205-7.271.205l-.088-.768q1.2,0,3.24-.053v-.85a3.21,3.21,0,0,1-1.755-.56A1.442,1.442,0,0,1,1.7,34a1.466,1.466,0,0,1,.75-1.28,3.77,3.77,0,0,1,2.057-.483,3.64,3.64,0,0,1,2.048.507A1.482,1.482,0,0,1,7.314,34,1.444,1.444,0,0,1,6.7,35.181a3.2,3.2,0,0,1-1.758.56v.838q1.969-.047,3.2-.129Zm-3.686-4.26a2.867,2.867,0,0,0-1.427.3A.872.872,0,0,0,2.562,34a.859.859,0,0,0,.524.75,2.921,2.921,0,0,0,1.421.293,2.921,2.921,0,0,0,1.421-.293A.859.859,0,0,0,6.453,34a.872.872,0,0,0-.519-.756A2.867,2.867,0,0,0,4.508,32.945ZM2.685,40.914V38.02h.861v2.127h6.539v.768Zm18.355.141V35.74H19.7V40.7h-.861V29.969H19.7v4.992H21.04V29.752h.879v11.3Zm-8.818-8.5v-.779H14.73V30.027h.879v1.752h2.508v.779Zm2.977,5.76a2.484,2.484,0,0,1-1.793-.7,2.55,2.55,0,0,1,0-3.562,2.634,2.634,0,0,1,3.583-.006,2.572,2.572,0,0,1,0,3.574A2.478,2.478,0,0,1,15.2,38.318Zm0-4.2a1.607,1.607,0,0,0-1.216.486,1.861,1.861,0,0,0,0,2.467,1.768,1.768,0,0,0,2.42,0,1.852,1.852,0,0,0,0-2.473A1.617,1.617,0,0,0,15.2,34.117ZM29.288,36.15v2.432h4.8v.779H23.6v-.779h4.8V36.15H25.292V30.725h.873v1.957h5.355V30.725h.861V36.15Zm2.232-2.678H26.165v1.881h5.355Zm12.168,7.582v-11.3h.873v11.3Zm-2.051-.346V34.422H39.669v-.779h1.969V29.98H42.5V40.709Zm-1.553-2.3a8.112,8.112,0,0,1-2.121-3.533,6.563,6.563,0,0,1-.853,1.9A8.964,8.964,0,0,1,35.7,38.559l-.686-.551a5.9,5.9,0,0,0,1.764-2.224,6.572,6.572,0,0,0,.768-2.974V30.578h.867v2.244a6.322,6.322,0,0,0,.688,2.813,6.623,6.623,0,0,0,1.649,2.2Zm6.314.861v-.779h2.713V35.605a2.553,2.553,0,0,1-.231-4.28,5.552,5.552,0,0,1,5.522,0,2.566,2.566,0,0,1-.229,4.28v2.883h2.713v.779Zm2.338-5.877a1.688,1.688,0,0,0,.8,1.479,3.721,3.721,0,0,0,2.106.536,3.677,3.677,0,0,0,2.1-.539,1.777,1.777,0,0,0-.006-2.965,4.316,4.316,0,0,0-4.2,0A1.708,1.708,0,0,0,48.737,33.391Zm1.248,2.578v2.52H53.3v-2.52a5.653,5.653,0,0,1-1.658.217A6.2,6.2,0,0,1,49.985,35.969Zm8.365,4.16a.622.622,0,0,1-.46-.193.636.636,0,0,1-.19-.463.646.646,0,0,1,.19-.466.617.617,0,0,1,.46-.2.634.634,0,0,1,.469.2.641.641,0,0,1,.193.466.632.632,0,0,1-.193.463A.638.638,0,0,1,58.349,40.129Z" transform="translate(188 153.152)" fill="#444"/>
    <line id="선_1" data-name="선 1" x2="52" transform="translate(162.5 118.5)" fill="none" stroke="#533aff" stroke-width="2"/>
  </g>
</svg>
