<svg xmlns="http://www.w3.org/2000/svg" width="468.269" height="240.646" viewBox="0 0 468.269 240.646">
  <g id="그룹_26" data-name="그룹 26" transform="translate(-379.731 -276)">
    <path id="패스_2" data-name="패스 2" d="M-113.355-11.3h28.71V-1.62a2.131,2.131,0,0,1-.427,1.328,1.325,1.325,0,0,1-1.1.563H-107.6v2.3h22.95v2.7a2.038,2.038,0,0,1-.427,1.305,1.634,1.634,0,0,1-1.1.63H-108.45a2.827,2.827,0,0,1-1.8-.855l-2.295-3.06a3.339,3.339,0,0,1-.81-2.16v-5.49H-90.4V-6.66H-111.78a1.335,1.335,0,0,1-1.17-.585,2.24,2.24,0,0,1-.405-1.3Zm-6.525-4.86a2.357,2.357,0,0,1-.4-.562,1.464,1.464,0,0,1-.18-.7,1.2,1.2,0,0,1,.54-.99,35.344,35.344,0,0,0,6.39-7.155h-5.085a1.253,1.253,0,0,1-1.08-.585,2.59,2.59,0,0,1-.45-1.35V-30.78h7.47v-5.355h3.87a2.229,2.229,0,0,1,1.282.495,1.489,1.489,0,0,1,.608,1.08v3.78h7.47v3.33a2.567,2.567,0,0,1-.473,1.26,1.252,1.252,0,0,1-1.058.63h-5.04a35.23,35.23,0,0,0,6.705,7.29,1.365,1.365,0,0,1,.5,1.035,1.5,1.5,0,0,1-.5,1.08l-1.845,1.71a1.547,1.547,0,0,1-1.125.517,2.776,2.776,0,0,1-1.125-.563,18.255,18.255,0,0,1-1.755-1.575q-.99-.99-1.89-2.025T-108.675-20q-.72-.877-.99-1.283a39.954,39.954,0,0,1-3.06,3.8,27.767,27.767,0,0,1-3.285,2.992,3.059,3.059,0,0,1-1.147.585q-.473.09-1.147-.54ZM-85.365-34.2a2.131,2.131,0,0,1,1.327.427,1.325,1.325,0,0,1,.563,1.1v17.91a1.267,1.267,0,0,1-.563,1.08,2.212,2.212,0,0,1-1.327.405h-3.87v-7.83h-3.24v6.345a1.215,1.215,0,0,1-.607,1.125,2.477,2.477,0,0,1-1.283.36h-3.87V-34.2h3.87a2.131,2.131,0,0,1,1.327.427,1.325,1.325,0,0,1,.563,1.1v6.345h3.24V-34.2Zm38.3,0a2.241,2.241,0,0,1,1.305.4,1.293,1.293,0,0,1,.585,1.125V-9.99a1.293,1.293,0,0,1-.585,1.125,2.241,2.241,0,0,1-1.305.405h-3.87V-34.2ZM-72.54-11.43a2.741,2.741,0,0,1-.99-.158,2.4,2.4,0,0,1-.855-.653l-3.06-3.06a2.488,2.488,0,0,1-.653-.832,2.7,2.7,0,0,1-.158-1.013v-7.7H-63.09v-2.97H-76.725A1.293,1.293,0,0,1-77.85-28.4a2.24,2.24,0,0,1-.405-1.3v-3.33H-57.33v11.52a2.275,2.275,0,0,1-.4,1.282,1.28,1.28,0,0,1-1.125.608H-72.5v2.97H-57.33v3.33a2.241,2.241,0,0,1-.4,1.3,1.293,1.293,0,0,1-1.125.585Zm4.41,13.41h22.95V5.265a2.443,2.443,0,0,1-.382,1.327A1.267,1.267,0,0,1-46.71,7.2H-68.13a2.4,2.4,0,0,1-1.013-.18,3.11,3.11,0,0,1-.832-.63L-73.08,3.825a3.953,3.953,0,0,1-.607-.855,2.2,2.2,0,0,1-.2-.99v-10.4h3.825a2.443,2.443,0,0,1,1.327.382,1.267,1.267,0,0,1,.608,1.147ZM-39.78-5a1.913,1.913,0,0,1,.5-1.125q1.53-1.89,3.262-4.3a51.132,51.132,0,0,0,3.2-5.04,33.929,33.929,0,0,0,2.407-5.355,15.845,15.845,0,0,0,.945-5.2v-.54h-6.48a1.325,1.325,0,0,1-1.1-.562,2.131,2.131,0,0,1-.427-1.327v-3.33h21.87v3.33a2.212,2.212,0,0,1-.4,1.327,1.309,1.309,0,0,1-1.125.563h-6.57v.405A16.641,16.641,0,0,0-22.5-19.913a37.291,37.291,0,0,0,2.88,5.737A67.925,67.925,0,0,0-13.815-6.12a1.423,1.423,0,0,1,.45,1.035A1.456,1.456,0,0,1-14-3.915l-2.025,1.71a1.677,1.677,0,0,1-.99.36,1.421,1.421,0,0,1-1.125-.63,26.66,26.66,0,0,1-2.2-2.678q-1.17-1.6-2.317-3.352t-2.16-3.488q-1.013-1.732-1.733-3.082a24.134,24.134,0,0,1-1.44,2.767q-.99,1.688-2.2,3.51t-2.52,3.578A30.406,30.406,0,0,1-35.1-2.34a1.923,1.923,0,0,1-1.013.585,1.214,1.214,0,0,1-1.057-.45L-39.195-3.87A1.451,1.451,0,0,1-39.78-5ZM-5.67-34.2a2.131,2.131,0,0,1,1.328.427,1.325,1.325,0,0,1,.563,1.1V2.97a1.879,1.879,0,0,1-.54,1.305L-6.187,6.142a7.533,7.533,0,0,1-.743.7,1.744,1.744,0,0,1-1.125.36H-9.54V-34.2Z" transform="translate(849.135 367.152)" fill="#3f3f3f"/>
    <path id="패스_3" data-name="패스 3" d="M-243.825-6.906v8.4h-1.237V-14.518h1.237V-8.01h2.772v1.1Zm-2.582,3.254a11.445,11.445,0,0,1-2.183.253q-1.37.054-6.524.054V-13.19h1.245v8.732l3.038.017q1.619,0,2.656-.071a13.88,13.88,0,0,0,1.594-.178Zm18.815-4.765v5.611h-1.237V-14.518h1.237v4.98h2.416v1.121ZM-239.18-5.952v-7.6h7.3v7.6Zm6.084-6.491h-4.864v5.387h4.864ZM-237.329.88V-4.2h1.237V-.241h8.948V.88Zm25.588.614V-14.518h1.237V1.494Zm-6.807-7.155a4.365,4.365,0,0,1-3.013-1.087,3.513,3.513,0,0,1-1.22-2.739,3.513,3.513,0,0,1,1.212-2.714,4.337,4.337,0,0,1,3.021-1.1,4.322,4.322,0,0,1,3.017,1.1,3.515,3.515,0,0,1,1.216,2.706,3.52,3.52,0,0,1-1.212,2.743A4.367,4.367,0,0,1-218.548-5.661Zm0-6.541a3.031,3.031,0,0,0-2.108.764,2.51,2.51,0,0,0-.847,1.951,2.489,2.489,0,0,0,.867,1.963,3.061,3.061,0,0,0,2.088.76,3.06,3.06,0,0,0,2.108-.76,2.5,2.5,0,0,0,.855-1.963,2.5,2.5,0,0,0-.847-1.959A3.062,3.062,0,0,0-218.548-12.2Zm-5.288,10.791-.116-1.071q2.142,0,5.981-.083t5.1-.191l.075,1.071q-1.3.108-5.142.191T-223.836-1.411ZM-191.7,1.494V-14.518h1.237V1.494ZM-194.64.971V-5.113h-3.287V-6.226h3.287V-9.6h-2.839a13.446,13.446,0,0,1-5.462,7.271l-.988-.847a10.807,10.807,0,0,0,3.852-3.661,10.482,10.482,0,0,0,1.843-5.2h-4.74v-1.087h6.051a13.3,13.3,0,0,1-.291,2.416h2.573v-3.486h1.22V.971Zm7.592-12.875v-1.087h4.117v-1.66h1.22v1.66h4.1V-11.9Zm11.14,8.11V-14.518h1.22V-3.793Zm-1.212-.647q-3.885.257-10.285.257l-.116-1.071q2.482,0,4.574-.05V-6.583a4.723,4.723,0,0,1-2.49-.755,1.939,1.939,0,0,1-.863-1.619,1.994,1.994,0,0,1,1.054-1.76,5.54,5.54,0,0,1,2.93-.656,5.409,5.409,0,0,1,2.9.677,2,2,0,0,1,1.079,1.739,1.943,1.943,0,0,1-.88,1.635,4.725,4.725,0,0,1-2.507.739v1.262q2.739-.033,4.541-.149Zm-5.2-5.91a4.393,4.393,0,0,0-2.059.382,1.14,1.14,0,0,0-.7,1.013,1.141,1.141,0,0,0,.73,1.013,4.428,4.428,0,0,0,2.025.382,4.347,4.347,0,0,0,2.013-.382,1.141,1.141,0,0,0,.718-1.013,1.141,1.141,0,0,0-.685-1.013A4.314,4.314,0,0,0-182.317-10.351Zm6.425,11.845V-1.818h-9.264V-2.905h10.467v4.4Zm11.593-10.3a7.686,7.686,0,0,1-3.8-.768,2.31,2.31,0,0,1-1.328-2.054,2.313,2.313,0,0,1,1.332-2.05,7.655,7.655,0,0,1,3.8-.772,7.748,7.748,0,0,1,3.81.76,2.305,2.305,0,0,1,1.32,2.063,2.308,2.308,0,0,1-1.324,2.059A7.717,7.717,0,0,1-164.3-8.807Zm0-4.657a6.425,6.425,0,0,0-2.847.506,1.508,1.508,0,0,0-1,1.328,1.518,1.518,0,0,0,1,1.345,6.434,6.434,0,0,0,2.839.506,6.353,6.353,0,0,0,2.831-.515,1.526,1.526,0,0,0,1.013-1.336,1.518,1.518,0,0,0-1.009-1.32A6.348,6.348,0,0,0-164.3-13.464Zm-7.429,7.039V-7.446h14.858v1.021Zm2.4,7.753V-2.333h8.824V-3.893h-8.824V-4.931h10.044v3.569h-8.824V.291h9.247V1.328Zm29.868.166V-14.518h1.237V1.494ZM-142.367,1V-7.9h-2.789v-1.1h2.789v-5.188h1.22V1Zm-2.2-3.262a11.492,11.492,0,0,1-3-5.005,9.3,9.3,0,0,1-1.208,2.689,12.7,12.7,0,0,1-2,2.532l-.971-.78a8.365,8.365,0,0,0,2.5-3.15,9.31,9.31,0,0,0,1.087-4.213v-3.163h1.229v3.179a8.957,8.957,0,0,0,.975,3.984,9.382,9.382,0,0,0,2.337,3.121ZM-128.192-7.4a6.713,6.713,0,0,1-3.818-.926,2.878,2.878,0,0,1-1.353-2.494A2.913,2.913,0,0,1-132-13.31a6.584,6.584,0,0,1,3.81-.95,6.72,6.72,0,0,1,3.843.938,2.9,2.9,0,0,1,1.361,2.507,2.873,2.873,0,0,1-1.361,2.494A6.79,6.79,0,0,1-128.192-7.4Zm0-5.811a5.382,5.382,0,0,0-2.851.639,1.972,1.972,0,0,0-1.025,1.751,1.968,1.968,0,0,0,1.025,1.739,5.354,5.354,0,0,0,2.851.643,5.354,5.354,0,0,0,2.851-.643,1.968,1.968,0,0,0,1.025-1.739,1.972,1.972,0,0,0-1.025-1.751A5.382,5.382,0,0,0-128.192-13.207Zm.631,8.683V1.494h-1.245V-4.524h-6.815v-1.1h14.858v1.1Zm20.192.125-1.2-.108a44.993,44.993,0,0,0,.291-4.881v-2.5h-9.031v-1.121h10.268v3.644A39.25,39.25,0,0,1-107.369-4.4Zm-12.1,3.038V-2.482h5.9V-7.7h1.237v5.221h7.72v1.121Zm32.026-1.461v-11.7H-86.2v11.7Zm-6.666-2.955a4.2,4.2,0,0,1-3-1.133,3.848,3.848,0,0,1-1.2-2.934,3.838,3.838,0,0,1,1.2-2.934,4.216,4.216,0,0,1,3-1.125,4.2,4.2,0,0,1,2.992,1.121,3.848,3.848,0,0,1,1.191,2.938,3.861,3.861,0,0,1-1.2,2.934A4.174,4.174,0,0,1-94.111-5.777Zm0-7.022a2.919,2.919,0,0,0-2.133.805,2.873,2.873,0,0,0-.822,2.15,2.9,2.9,0,0,0,.818,2.154,2.907,2.907,0,0,0,2.137.809,2.921,2.921,0,0,0,2.142-.809,2.887,2.887,0,0,0,.822-2.154,2.873,2.873,0,0,0-.822-2.15A2.93,2.93,0,0,0-94.111-12.8ZM-96.3.88v-5.2h1.245V-.241h9.28V.88Zm26.368-9.571a11.2,11.2,0,0,1-3.623-1.183,6.5,6.5,0,0,1-2.362-1.855,7.048,7.048,0,0,1-2.424,1.855,11.005,11.005,0,0,1-3.511,1.166l-.73-1a9.336,9.336,0,0,0,3.856-1.15,4.194,4.194,0,0,0,2.129-2.1h-5.113v-1.121h11.555v1.121h-5.1a4.342,4.342,0,0,0,2.162,2.108A9.072,9.072,0,0,0-69.287-9.7ZM-83.365-6.184V-7.3h14.858v1.112Zm7.429,7.512a7.443,7.443,0,0,1-3.81-.8,2.458,2.458,0,0,1-1.32-2.2,2.423,2.423,0,0,1,1.324-2.162,7.479,7.479,0,0,1,3.806-.793,7.479,7.479,0,0,1,3.806.793,2.423,2.423,0,0,1,1.324,2.162,2.458,2.458,0,0,1-1.32,2.2A7.443,7.443,0,0,1-75.936,1.328Zm0-4.9a6.441,6.441,0,0,0-2.876.5,1.54,1.54,0,0,0-.967,1.4A1.575,1.575,0,0,0-78.8-.241a6.321,6.321,0,0,0,2.86.515A6.326,6.326,0,0,0-73.08-.241a1.575,1.575,0,0,0,.988-1.428,1.54,1.54,0,0,0-.971-1.4A6.445,6.445,0,0,0-75.936-3.569Zm21.247,5.063V-6.035h-1.9V.988h-1.22v-15.2h1.22v7.072h1.9v-7.379h1.245V1.494ZM-67.182-10.542v-1.1h3.553v-2.482h1.245v2.482h3.553v1.1Zm4.217,8.16a3.519,3.519,0,0,1-2.54-.992A3.358,3.358,0,0,1-66.534-5.9a3.372,3.372,0,0,1,1.025-2.519,3.5,3.5,0,0,1,2.544-1,3.491,3.491,0,0,1,2.532.992A3.372,3.372,0,0,1-59.412-5.9a3.359,3.359,0,0,1-1.025,2.536A3.511,3.511,0,0,1-62.965-2.382Zm0-5.952a2.277,2.277,0,0,0-1.722.689,2.419,2.419,0,0,0-.66,1.743,2.4,2.4,0,0,0,.664,1.751,2.3,2.3,0,0,0,1.718.681,2.309,2.309,0,0,0,1.71-.677A2.383,2.383,0,0,0-60.582-5.9a2.4,2.4,0,0,0-.668-1.747A2.291,2.291,0,0,0-62.965-8.334ZM-43-5.454v3.445h6.8V-.9H-51.065v-1.1h6.8V-5.454h-4.4V-13.14h1.237v2.772h7.587V-13.14h1.22v7.687Zm3.163-3.793h-7.587v2.665h7.587ZM-22.6,1.494V-14.518h1.237V1.494ZM-25.51,1V-7.9H-28.3v-1.1h2.789v-5.188h1.22V1Zm-2.2-3.262a11.492,11.492,0,0,1-3-5.005,9.3,9.3,0,0,1-1.208,2.689,12.7,12.7,0,0,1-2,2.532l-.971-.78a8.365,8.365,0,0,0,2.5-3.15,9.31,9.31,0,0,0,1.087-4.213v-3.163h1.229v3.179a8.957,8.957,0,0,0,.975,3.984,9.382,9.382,0,0,0,2.337,3.121Zm8.945,1.22v-1.1h3.843V-6.226a3.4,3.4,0,0,1-1.818-3.138,3.366,3.366,0,0,1,1.49-2.926,6.7,6.7,0,0,1,3.914-1.042,6.652,6.652,0,0,1,3.91,1.042A3.375,3.375,0,0,1-5.948-9.363a3.4,3.4,0,0,1-1.8,3.138v4.084h3.843v1.1Zm3.312-8.326a2.392,2.392,0,0,0,1.133,2.1,5.272,5.272,0,0,0,2.984.76A5.209,5.209,0,0,0-8.36-7.271,2.4,2.4,0,0,0-7.235-9.363a2.422,2.422,0,0,0-1.133-2.108,5.175,5.175,0,0,0-2.968-.772,5.211,5.211,0,0,0-2.98.772A2.42,2.42,0,0,0-15.453-9.363Zm1.768,3.652v3.569h4.7V-5.711a8.009,8.009,0,0,1-2.349.307A8.789,8.789,0,0,1-13.685-5.711ZM-1.834.183a.881.881,0,0,1-.652-.274.9.9,0,0,1-.27-.656.916.916,0,0,1,.27-.66.875.875,0,0,1,.652-.278.9.9,0,0,1,.664.278A.908.908,0,0,1-.9-.747a.9.9,0,0,1-.274.656A.9.9,0,0,1-1.834.183Zm-421.62,31.312V23.135h-2.009V31h-1.22v-15.2h1.22v6.217h2.009V15.482h1.245V31.494Zm-11.438-4.673V16.91h6.408v9.911Zm5.18-8.824h-3.959v7.736h3.959Zm22.085,5.728V15.482h1.262v8.243Zm-6.715-.573a4.147,4.147,0,0,1-2.934-1.042,3.456,3.456,0,0,1-1.125-2.652,3.421,3.421,0,0,1,1.125-2.635,4.167,4.167,0,0,1,2.934-1.033,4.175,4.175,0,0,1,2.934,1.038,3.413,3.413,0,0,1,1.133,2.631,3.442,3.442,0,0,1-1.137,2.648A4.159,4.159,0,0,1-414.343,23.152Zm0-6.292a2.9,2.9,0,0,0-2.059.71,2.455,2.455,0,0,0-.764,1.888,2.519,2.519,0,0,0,.764,1.913,2.864,2.864,0,0,0,2.059.726,2.864,2.864,0,0,0,2.059-.726,2.519,2.519,0,0,0,.764-1.913,2.455,2.455,0,0,0-.764-1.888A2.9,2.9,0,0,0-414.343,16.86Zm-1.9,14.261V27.244h8.649V25.717h-8.649v-1.1h9.878v3.7h-8.658v1.7h9.1v1.1Zm28.963-8.027v8.4h-1.237V15.482h1.237v6.491h2.706v1.121Zm-7.7,4.341a3.536,3.536,0,0,1-2.938-1.453,6.388,6.388,0,0,1-1.121-3.993,6.411,6.411,0,0,1,1.108-4,3.541,3.541,0,0,1,2.951-1.436,3.531,3.531,0,0,1,2.959,1.457,6.428,6.428,0,0,1,1.108,3.98,6.425,6.425,0,0,1-1.112,3.989A3.534,3.534,0,0,1-394.984,27.435Zm0-9.778a2.38,2.38,0,0,0-2.054,1.166,5.6,5.6,0,0,0-.784,3.167,5.6,5.6,0,0,0,.793,3.154,2.378,2.378,0,0,0,2.046,1.187,2.378,2.378,0,0,0,2.042-1.2,5.581,5.581,0,0,0,.8-3.146,5.631,5.631,0,0,0-.78-3.163A2.375,2.375,0,0,0-394.984,17.657Zm20.558,6.616a8.47,8.47,0,0,1-3.943-3.4,8.805,8.805,0,0,1-3.943,3.727l-.921-.955a7.264,7.264,0,0,0,2.968-2A4.068,4.068,0,0,0-379,18.985v-.7h-3.7V17.2h3.7V15.333h1.237V17.2h3.71v1.087h-3.71v.7a3.716,3.716,0,0,0,1.291,2.519,6.589,6.589,0,0,0,2.86,1.764Zm2.706.2v-8.99h1.237v8.99Zm-8.625,6.583V25.393h9.861v5.661Zm8.641-4.574h-7.4v3.486h7.4Zm20.139-2.756V15.482h1.262v8.243Zm-6.715-.573a4.147,4.147,0,0,1-2.934-1.042,3.456,3.456,0,0,1-1.125-2.652,3.421,3.421,0,0,1,1.125-2.635,4.167,4.167,0,0,1,2.934-1.033,4.175,4.175,0,0,1,2.934,1.038,3.413,3.413,0,0,1,1.133,2.631,3.442,3.442,0,0,1-1.137,2.648A4.159,4.159,0,0,1-358.28,23.152Zm0-6.292a2.9,2.9,0,0,0-2.059.71,2.455,2.455,0,0,0-.764,1.888,2.519,2.519,0,0,0,.764,1.913,2.864,2.864,0,0,0,2.059.726,2.864,2.864,0,0,0,2.059-.726,2.519,2.519,0,0,0,.764-1.913,2.455,2.455,0,0,0-.764-1.888A2.9,2.9,0,0,0-358.28,16.86Zm-1.9,14.261V27.244h8.649V25.717h-8.649v-1.1h9.878v3.7h-8.658v1.7h9.1v1.1Zm24.6-6.649v-8.99h1.237v8.99Zm-6.807-2.067a6.433,6.433,0,0,1-1.851-2.673,7.866,7.866,0,0,1-2.208,3.586l-1-.647a7.218,7.218,0,0,0,2.582-5.354h-2.125v-1.1h9.662v1.1h-2.108a6.549,6.549,0,0,0,2.922,5.562l-.863.78a7.62,7.62,0,0,1-1.581-1.548,6.023,6.023,0,0,1-1.075-1.855,9.675,9.675,0,0,1-2.5,4.051l-.988-.631A9.837,9.837,0,0,0-342.387,22.4Zm-1.3-5.088a5.49,5.49,0,0,0,1.917,4.15,8.452,8.452,0,0,0,1.154-4.15Zm8.11,14.178v-5.03h-9.272v-1.1h10.509v6.134Zm20.123-7.77V15.482h1.262v8.243Zm-6.715-.573a4.147,4.147,0,0,1-2.934-1.042,3.456,3.456,0,0,1-1.125-2.652,3.421,3.421,0,0,1,1.125-2.635,4.167,4.167,0,0,1,2.934-1.033,4.175,4.175,0,0,1,2.934,1.038,3.413,3.413,0,0,1,1.133,2.631,3.442,3.442,0,0,1-1.137,2.648A4.159,4.159,0,0,1-322.173,23.152Zm0-6.292a2.9,2.9,0,0,0-2.059.71A2.455,2.455,0,0,0-325,19.458a2.519,2.519,0,0,0,.764,1.913,2.864,2.864,0,0,0,2.059.726,2.864,2.864,0,0,0,2.059-.726,2.519,2.519,0,0,0,.764-1.913,2.455,2.455,0,0,0-.764-1.888A2.9,2.9,0,0,0-322.173,16.86Zm-1.9,14.261V27.244h8.649V25.717h-8.649v-1.1h9.878v3.7h-8.658v1.7h9.1v1.1ZM-302.4,22.5a5.935,5.935,0,0,1-1.241,3.656,3.553,3.553,0,0,1-2.8,1.274,3.54,3.54,0,0,1-2.947-1.457,6.391,6.391,0,0,1-1.121-3.989,6.414,6.414,0,0,1,1.108-4,3.545,3.545,0,0,1,2.959-1.44,3.525,3.525,0,0,1,2.8,1.274,5.854,5.854,0,0,1,1.229,3.573h2.963V15.482h1.237V31.494h-1.237V22.5Zm-4.042-4.848a2.372,2.372,0,0,0-2.063,1.17,5.655,5.655,0,0,0-.776,3.163,5.61,5.61,0,0,0,.789,3.163,2.378,2.378,0,0,0,2.05,1.179,2.378,2.378,0,0,0,2.042-1.2,5.581,5.581,0,0,0,.8-3.146,5.631,5.631,0,0,0-.78-3.163A2.375,2.375,0,0,0-306.447,17.657Zm23.679,5.437v8.4H-284V15.482h1.237V21.99H-280v1.1Zm-2.582,3.254a11.445,11.445,0,0,1-2.183.253q-1.37.054-6.524.054V16.81h1.245v8.732l3.038.017q1.619,0,2.656-.071a13.879,13.879,0,0,0,1.594-.178Zm18.175,5.146V15.482h1.237V31.494Zm-3.212-14.535a11.14,11.14,0,0,1-1.909,6.105,14.9,14.9,0,0,1-5.3,4.694l-.946-1a11.862,11.862,0,0,0,4.491-3.337,10,10,0,0,0,2.341-5.354h-6.176v-1.1Zm9.858,5.545V15.955h1.22v2.283h7.62V15.955h1.22V22.5Zm8.84-3.179h-7.62v2.092h7.62Zm-3.2,6.375v5.794h-1.245V25.7h-6.8V24.58h14.858V25.7Zm20.026,5.794V23.318H-238V22.23h3.146V15.482h1.237V31.494Zm-9.214-8.973v3.943h1.917a47.366,47.366,0,0,0,5.3-.208l.083,1.071q-1.27.149-2.739.187t-5.811.037V16.843h7.67v1.121h-6.425V21.45h4.673v1.071Zm15,5.586-1.328,4.084h-.971l.971-4.084Zm17.259,3.387V15.482h1.245V31.494Zm-10.451-14.452h7.969v1.112h-6.749v2.1h6.5v1.079h-6.5v1.984h7.039v1.1h-3.5v3.287l4.748-.174.066,1.071q-4.731.274-11.032.274l-.141-1.1q2.756,0,5.122-.05v-3.3h-3.52Zm14.432,6.7v-1.1h11.048q.191-1.951.191-5.238h-8.757V16.3h9.994q0,4.208-.2,6.342h2.582v1.1Zm2.6,7.072V25.443h1.245v4.25h8.857v1.121Zm18.753-12.493V17.25h5.4V15.5h1.262V17.25h5.4v1.071Zm6.035,6.167a8.349,8.349,0,0,1-3.868-.706,2.14,2.14,0,0,1-1.3-1.926,2.153,2.153,0,0,1,1.328-1.938,8.331,8.331,0,0,1,3.843-.71,8.282,8.282,0,0,1,3.831.71,2.153,2.153,0,0,1,1.324,1.938,2.14,2.14,0,0,1-1.3,1.926A8.3,8.3,0,0,1-180.449,24.488Zm-.017-4.25a7.085,7.085,0,0,0-2.872.457q-.988.457-.988,1.162t.992,1.158a7.268,7.268,0,0,0,2.868.444,7.4,7.4,0,0,0,2.876-.44q1-.44,1-1.162t-1-1.166A7.211,7.211,0,0,0-180.466,20.238Zm.647,6.549v4.707h-1.262V26.788h-6.8v-1.1h14.858v1.1Zm24.356-3.694v8.4H-156.7V15.482h1.237V21.99h2.772v1.1Zm-3.769,4.491a12.066,12.066,0,0,1-2.3-2.4,9.37,9.37,0,0,1-1.49-2.681,9.384,9.384,0,0,1-1.419,2.689,12.679,12.679,0,0,1-2.424,2.615l-.955-.822a9.325,9.325,0,0,0,2.951-3.266,8.224,8.224,0,0,0,1.2-4.055V17.98h-3.553v-1.1h8.259v1.1h-3.486v1.6a7.629,7.629,0,0,0,1.2,3.951,9.654,9.654,0,0,0,2.88,3.121Zm19.362,3.91V15.482h1.237V31.494Zm-3.212-14.535a11.14,11.14,0,0,1-1.909,6.105,14.9,14.9,0,0,1-5.3,4.694l-.946-1a11.862,11.862,0,0,0,4.491-3.337,10,10,0,0,0,2.341-5.354h-6.176v-1.1Zm19.786,14.535V15.482h1.237V31.494Zm-2.938-.523V24.887h-3.287V23.774h3.287V20.4h-2.839a13.446,13.446,0,0,1-5.462,7.271l-.988-.847a10.807,10.807,0,0,0,3.852-3.661,10.482,10.482,0,0,0,1.843-5.2h-4.74V16.876h6.051a13.3,13.3,0,0,1-.291,2.416h2.573V15.806h1.22V30.971Zm19.3-10.492v3.146h-1.22V15.482h1.22v3.893h2.416v1.1Zm-11.6,2.283V16.03h1.22v2.5h4.9v-2.5h1.22v6.732Zm6.118-3.163h-4.9v2.092h4.9Zm-4.283,11.7V27.369h8.55V25.6h-8.55V24.5h9.77V28.4h-8.55v1.81h9v1.087Zm14.93-3.187-1.328,4.084h-.971l.971-4.084ZM-86.6,22.471a7.354,7.354,0,0,1-2.561-1.009,4.941,4.941,0,0,1-1.689-1.523,4.773,4.773,0,0,1-1.7,1.639,8.979,8.979,0,0,1-2.6,1.183l-.8-.971a6.436,6.436,0,0,0,2.988-1.216,3.244,3.244,0,0,0,1.436-2.137H-95.3v-1.1h3.827V15.465h1.237v1.868h3.71v1.1H-90.2a2.879,2.879,0,0,0,1.365,1.93,6.423,6.423,0,0,0,2.992,1.067Zm2.125,9.023V15.482h1.245V31.494Zm-6.964-.457V25.069q-3.976.066-5.1.066l-.116-1.087q1.917,0,5.877-.071t5.379-.162l.066,1.071q-1.826.116-4.864.149v6Zm22.816.457V15.482h1.237V31.494Zm-10.8-4.707V16.893h7.62v9.895Zm6.375-8.807h-5.13V25.7h5.13Zm20.857,6.832V20.8h-1.868v3.586H-55.3V15.806h1.237v3.926h1.868v-4.25h1.245v9.33Zm-4.922-1.2a7.789,7.789,0,0,1-1.876-1.6,7.157,7.157,0,0,1-1.3-1.9,6.631,6.631,0,0,1-1.258,2.113,8.036,8.036,0,0,1-2,1.8l-.88-.83a6.757,6.757,0,0,0,2.552-2.328,5.641,5.641,0,0,0,.967-3.117V16.046h1.187V17.74a4.906,4.906,0,0,0,1.009,2.926A6.025,6.025,0,0,0-56.3,22.687Zm.93,7.612a7.612,7.612,0,0,1-3.93-.851,2.521,2.521,0,0,1-1.407-2.2,2.53,2.53,0,0,1,1.407-2.208,7.582,7.582,0,0,1,3.93-.855,7.621,7.621,0,0,1,3.947.855,2.53,2.53,0,0,1,1.407,2.208,2.521,2.521,0,0,1-1.407,2.2A7.651,7.651,0,0,1-56.186,31.22Zm0-5.063a6.335,6.335,0,0,0-2.984.569,1.66,1.66,0,0,0-1.042,1.44,1.648,1.648,0,0,0,1.05,1.44,6.425,6.425,0,0,0,2.976.56,6.5,6.5,0,0,0,2.976-.556,1.645,1.645,0,0,0,1.058-1.444,1.657,1.657,0,0,0-1.054-1.444A6.411,6.411,0,0,0-56.186,26.157Zm8.5-8.326V16.81h4.092V15.316h1.245V16.81h4.092v1.021Zm12.235,3.876v3.229h-1.237V15.482h1.237v5.1h2.4v1.129Zm-12.609,3.038-.125-1.021q1.121,0,4.59-.066v-1.1a5.208,5.208,0,0,1-2.482-.664,1.638,1.638,0,0,1-.88-1.395,1.7,1.7,0,0,1,1.063-1.482,6.193,6.193,0,0,1,2.93-.577,6.1,6.1,0,0,1,2.922.581A1.7,1.7,0,0,1-38.982,20.5a1.622,1.622,0,0,1-.884,1.411,5.4,5.4,0,0,1-2.494.647v1.071q2.64-.042,4.482-.166l.125.979q-1.37.108-5.138.208T-48.055,24.746Zm5.1-5.371q-2.739,0-2.739,1.121t2.739,1.121q2.723,0,2.723-1.121T-42.958,19.375ZM-45.39,31.361V28.008h8.724V26.771H-45.39V25.75h9.944v3.229H-44.17V30.34h9.164v1.021Zm25.854-8.268v8.4h-1.237V15.482h1.237V21.99h2.623v1.1Zm-3.4-5.5a17.2,17.2,0,0,1-3.52,11.165l-1.137-.556a12.419,12.419,0,0,0,2.557-4.5,17.932,17.932,0,0,0,.888-5.7h-2.582v-1.1h3.793Zm-4.441-.066a12.262,12.262,0,0,1-3.7,9.28l-1.054-.631a10.262,10.262,0,0,0,2.611-3.64A11.237,11.237,0,0,0-28.576,18h-2.839v-1.1h4.042Zm23.347,13.97V15.482h1.237V31.494Zm-2.947-3.91A13.629,13.629,0,0,1-9.5,25,8.1,8.1,0,0,1-10.9,22.4a8.575,8.575,0,0,1-1.436,2.777,13.32,13.32,0,0,1-2.474,2.627l-.93-.855a9.766,9.766,0,0,0,3.055-3.4,8.681,8.681,0,0,0,1.154-4.233V17.98H-15.1v-1.1h8.417v1.1h-3.6v1.295a8.422,8.422,0,0,0,1.17,4.192,8.432,8.432,0,0,0,3,3.163ZM-396.905,58.539v-1.1h10.866q.241-2.665.307-4.848l-9.662.506-.266-1.22,9.944-.34v-3.42h-9.131v-1.1H-384.5v4.657q0,2.1-.34,5.769h2.789v1.1Zm18.6-5.645V48.827h8.741V47.084h-8.741V45.972h9.961V49.9h-8.741v1.893h9.114v1.1Zm5.611,2.955v5.645h-1.262V55.85h-6.8V54.729H-365.9V55.85Zm24.257-2.125V50.7h-1.868v3.021h-1.229V45.806h1.229v3.777h1.868v-4.1h1.237v8.243Zm-4.781-.066a6.679,6.679,0,0,1-3.088-2.905,7.932,7.932,0,0,1-3.129,3.262l-.955-.9a6.627,6.627,0,0,0,2.461-1.905,4.058,4.058,0,0,0,1.009-2.569v-.274h-2.922v-1.1h2.922V45.582h1.237v1.685h2.9v1.1h-2.9v.257a3.722,3.722,0,0,0,.913,2.391,5.457,5.457,0,0,0,2.391,1.668Zm-4.009,7.462V57.228h8.807V55.717h-8.807v-1.1H-347.2v3.7h-8.782v1.7h9.214v1.1Zm24.65-3.943v-11.7h1.262v11.7Zm-1.652-2.648a19.09,19.09,0,0,1-2.445.245q-1.166.037-6.271.037V49.989h5.935V47.441h-5.935v-1.1h7.155V51.06h-5.935v2.665q3.86,0,5.1-.046a15.937,15.937,0,0,0,2.212-.22Zm-6.964,6.508V56.19h1.237v3.727h9.048v1.121Zm24.6.457V45.482h1.237V61.494Zm-2.947-3.91A13.629,13.629,0,0,1-322.074,55a8.1,8.1,0,0,1-1.395-2.6,8.575,8.575,0,0,1-1.436,2.777,13.321,13.321,0,0,1-2.474,2.627l-.93-.855a9.766,9.766,0,0,0,3.055-3.4,8.681,8.681,0,0,0,1.154-4.233V47.98h-3.569v-1.1h8.417v1.1h-3.6v1.295a8.422,8.422,0,0,0,1.17,4.192,8.432,8.432,0,0,0,3,3.163Zm19.993-5.935h-10.384V48.188h8.807V46.81h-8.807V45.756h10.027v3.4h-8.807V50.6h9.164Zm2.059,2.4h-14.858V52.994h14.858Zm-2.025,7.28h-10.467v-3.5h8.89V56.447h-8.89V55.393h10.11v3.42h-8.89v1.461h9.247Zm19.666-9.745v5.611h-1.237V45.482h1.237v4.98h2.416v1.121Zm-11.588,2.465v-7.6h7.3v7.6Zm6.084-6.491h-4.864v5.387h4.864Zm-4.233,13.323V55.8h1.237v3.959h8.948V60.88Zm15.843-10.193V45.839h9.928v1.054h-8.7v2.739h8.89v1.054Zm-2.5,2.714V52.347h14.858V53.4Zm2.416,7.894V57.667h8.774V56.09h-8.774V55.036h9.994v3.619h-8.774v1.585h9.2v1.054Zm22.708-8.791a5.935,5.935,0,0,1-1.241,3.656,3.553,3.553,0,0,1-2.8,1.274,3.54,3.54,0,0,1-2.947-1.457,6.391,6.391,0,0,1-1.121-3.989,6.414,6.414,0,0,1,1.108-4,3.545,3.545,0,0,1,2.959-1.44,3.525,3.525,0,0,1,2.8,1.274,5.854,5.854,0,0,1,1.229,3.573h2.963V45.482h1.237V61.494h-1.237V52.5Zm-4.042-4.848a2.372,2.372,0,0,0-2.063,1.17A5.655,5.655,0,0,0-258,51.99a5.61,5.61,0,0,0,.789,3.163,2.378,2.378,0,0,0,2.05,1.179,2.378,2.378,0,0,0,2.042-1.2,5.581,5.581,0,0,0,.8-3.146,5.631,5.631,0,0,0-.78-3.163A2.375,2.375,0,0,0-255.161,47.657Zm27.486,5.254v8.583h-1.237V45.482h1.237v6.309h2.822v1.121Zm-2.772,3.81q-1.361.166-2.781.2t-5.752.033V46.893h7.479V48h-6.234V55.85a69.126,69.126,0,0,0,7.188-.2Zm8.962-3.959V48.844h8.616V47.1h-8.616V46h9.861v3.935h-8.633v1.71h9.006v1.112Zm-2.5,2.731v-1.1h14.858v1.1Zm2.449,5.628V56.63h1.237V60h9.064v1.121Zm29.967-8.027v8.4h-1.237V45.482h1.237V51.99h2.772v1.1Zm-3.586,4.341a13.161,13.161,0,0,1-2.507-2.577,9.17,9.17,0,0,1-1.5-2.694A9.786,9.786,0,0,1-200.658,55a12.808,12.808,0,0,1-2.482,2.635l-.955-.83a10.013,10.013,0,0,0,3.129-3.391,8.428,8.428,0,0,0,1.17-4.2V46.586h1.237v2.565a7.945,7.945,0,0,0,1.158,4.067,9.627,9.627,0,0,0,3.117,3.246Zm19.819-6.682V54.7h-1.237V45.482h1.237v4.167h2.416v1.1Zm-2.781,2.889a20.419,20.419,0,0,1-2.644.261q-1.341.046-6,.046V49.342h5.918V47.233h-5.918v-1.1h7.155v4.3h-5.91v2.432q3.71,0,4.972-.054a15.427,15.427,0,0,0,2.216-.237Zm-6.973,7.479V55.584h9.753v5.537Zm8.533-4.433h-7.313v3.329h7.313Zm7.326-6V45.839h9.928v1.054H-168v2.739h8.89v1.054Zm-2.5,2.714V52.347h14.858V53.4Zm2.416,7.894V57.667h8.774V56.09h-8.774V55.036h9.994v3.619h-8.774v1.585h9.2v1.054Zm29.1-8.367h-2.615v8.566h-1.262V45.482h1.245v6.342h2.631Zm-6.267-5.935q0,4.657-.307,8.226L-148,55.136q.1-.88.187-3.308t.087-3.731h-6.8v-1.1Zm1.3,11.239q-4.333.241-10.725.241l-.116-1.087q.855,0,4.009-.042V51.807h1.245v5.52l5.5-.166Zm9.672-9.67V47.474h4.117V45.4h1.237v2.075h4.117v1.087Zm12.426,3.071v3.4h-1.237V45.482h1.237v5.03h2.416v1.121Zm-7.662,3.146a4.85,4.85,0,0,1-2.9-.76,2.333,2.333,0,0,1-1.046-1.971,2.354,2.354,0,0,1,1.058-1.988,4.853,4.853,0,0,1,2.9-.768,4.853,4.853,0,0,1,2.9.768,2.354,2.354,0,0,1,1.058,1.988,2.333,2.333,0,0,1-1.058,1.963A4.885,4.885,0,0,1-130.741,54.779Zm.017-4.433a3.666,3.666,0,0,0-2.013.473,1.418,1.418,0,0,0-.726,1.229,1.394,1.394,0,0,0,.722,1.212,3.714,3.714,0,0,0,2.017.465,3.714,3.714,0,0,0,2.017-.465,1.394,1.394,0,0,0,.722-1.212,1.418,1.418,0,0,0-.726-1.229A3.666,3.666,0,0,0-130.724,50.346ZM-132.9,61.2V55.916h9.82V61.2Zm8.6-4.192h-7.379V60.1h7.379Zm17.462,4.482V45.482h1.22V61.494Zm-4.731-13.954a24.72,24.72,0,0,1-.266,3.793h2.108V45.806h1.2V61.237h-1.2v-8.8h-2.316a13.5,13.5,0,0,1-2.839,5.894l-1.071-.73a10.073,10.073,0,0,0,2.37-4.047A17.661,17.661,0,0,0-112.756,48h-2.125V46.91h3.312Zm-3.769-.125a13.412,13.412,0,0,1-3.37,9.388l-1.054-.7a10.139,10.139,0,0,0,2.391-3.644A12.143,12.143,0,0,0-116.533,48h-2.208V46.91h3.4Zm27.793,9.455V45.482h1.237V56.871ZM-90.334,54.5a11.293,11.293,0,0,1-2.274-1.868,8.243,8.243,0,0,1-1.552-2.108,9.164,9.164,0,0,1-1.627,2.424,9.226,9.226,0,0,1-2.3,1.967l-.88-.855a8.136,8.136,0,0,0,2.951-2.582,5.849,5.849,0,0,0,1.208-3.42v-.589h-3.636V46.345h8.434v1.129H-93.6v.589a5.191,5.191,0,0,0,1.262,3.2A7.9,7.9,0,0,0-89.5,53.608Zm-5.835,6.466V55.733h1.245v4.15h9.048v1.087Zm25.214-5.678V51.417h-1.868v3.412h-1.229V45.806h1.229V50.33h1.868V45.482h1.229v9.812Zm-12.26-6.649V47.557h3.52V45.615h1.229v1.942h3.486v1.087Zm4.15,6.051a3.938,3.938,0,0,1-2.528-.764,2.347,2.347,0,0,1-.959-1.909,2.329,2.329,0,0,1,.963-1.909,3.971,3.971,0,0,1,2.523-.755,3.971,3.971,0,0,1,2.523.755,2.329,2.329,0,0,1,.963,1.909,2.351,2.351,0,0,1-.95,1.913A3.945,3.945,0,0,1-79.065,54.7Zm0-4.316a2.819,2.819,0,0,0-1.639.461,1.386,1.386,0,0,0-.668,1.183,1.381,1.381,0,0,0,.672,1.17,2.8,2.8,0,0,0,1.635.465,2.854,2.854,0,0,0,1.656-.465,1.38,1.38,0,0,0,.677-1.17,1.381,1.381,0,0,0-.681-1.183A2.878,2.878,0,0,0-79.065,50.379Zm4.051,10.982a8.5,8.5,0,0,1-4.013-.76,2.331,2.331,0,0,1-1.382-2.113,2.325,2.325,0,0,1,1.386-2.121,8.586,8.586,0,0,1,4.009-.751,8.479,8.479,0,0,1,4.005.76,2.331,2.331,0,0,1,1.382,2.113A2.335,2.335,0,0,1-71,60.6,8.435,8.435,0,0,1-75.014,61.361Zm0-4.69q-4.067,0-4.067,1.818t4.067,1.818q4.076,0,4.076-1.818T-75.014,56.671Zm20.325,4.823V53.965h-1.9v7.022h-1.22v-15.2h1.22v7.072h1.9V45.482h1.245V61.494ZM-67.182,49.458v-1.1h3.553V45.872h1.245v2.482h3.553v1.1Zm4.217,8.16a3.519,3.519,0,0,1-2.54-.992A3.358,3.358,0,0,1-66.534,54.1a3.372,3.372,0,0,1,1.025-2.519,3.5,3.5,0,0,1,2.544-1,3.491,3.491,0,0,1,2.532.992A3.372,3.372,0,0,1-59.412,54.1a3.359,3.359,0,0,1-1.025,2.536A3.511,3.511,0,0,1-62.965,57.618Zm0-5.952a2.277,2.277,0,0,0-1.722.689,2.419,2.419,0,0,0-.66,1.743,2.4,2.4,0,0,0,.664,1.751,2.3,2.3,0,0,0,1.718.681,2.309,2.309,0,0,0,1.71-.677,2.383,2.383,0,0,0,.672-1.756,2.4,2.4,0,0,0-.668-1.747A2.291,2.291,0,0,0-62.965,51.666ZM-43,54.546v3.445h6.8v1.1H-51.065v-1.1h6.8V54.546h-4.4V46.86h1.237v2.772h7.587V46.86h1.22v7.687Zm3.163-3.793h-7.587v2.665h7.587ZM-22.6,61.494V45.482h1.237V61.494ZM-25.51,61V52.1H-28.3v-1.1h2.789V45.806h1.22V61Zm-2.2-3.262a11.492,11.492,0,0,1-3-5.005,9.3,9.3,0,0,1-1.208,2.689,12.7,12.7,0,0,1-2,2.532l-.971-.78a8.365,8.365,0,0,0,2.5-3.15,9.31,9.31,0,0,0,1.087-4.213V46.652h1.229v3.179a8.957,8.957,0,0,0,.975,3.984,9.382,9.382,0,0,0,2.337,3.121Zm8.945,1.22v-1.1h3.843V53.774a3.4,3.4,0,0,1-1.818-3.138,3.366,3.366,0,0,1,1.49-2.926,6.7,6.7,0,0,1,3.914-1.042,6.652,6.652,0,0,1,3.91,1.042,3.375,3.375,0,0,1,1.478,2.926,3.4,3.4,0,0,1-1.8,3.138v4.084h3.843v1.1Zm3.312-8.326a2.392,2.392,0,0,0,1.133,2.1,5.272,5.272,0,0,0,2.984.76,5.209,5.209,0,0,0,2.976-.764,2.4,2.4,0,0,0,1.125-2.092,2.422,2.422,0,0,0-1.133-2.108,5.175,5.175,0,0,0-2.968-.772,5.211,5.211,0,0,0-2.98.772A2.42,2.42,0,0,0-15.453,50.637Zm1.768,3.652v3.569h4.7V54.289a8.009,8.009,0,0,1-2.349.307A8.789,8.789,0,0,1-13.685,54.289Zm11.85,5.894a.881.881,0,0,1-.652-.274.9.9,0,0,1-.27-.656.916.916,0,0,1,.27-.66.875.875,0,0,1,.652-.278.9.9,0,0,1,.664.278.908.908,0,0,1,.274.66.9.9,0,0,1-.274.656A.9.9,0,0,1-1.834,60.183ZM-457.049,91.494V81.84h-3.735v-1.1h3.735V75.482h1.245V91.494Zm-3.113-4.059a13.351,13.351,0,0,1-2.519-2.586,8.6,8.6,0,0,1-1.49-2.685,9.735,9.735,0,0,1-1.519,2.864,12.7,12.7,0,0,1-2.474,2.606l-.955-.83a9.952,9.952,0,0,0,3.146-3.391,8.428,8.428,0,0,0,1.17-4.2V76.586h1.229v2.565a7.961,7.961,0,0,0,1.158,4.059,9.574,9.574,0,0,0,3.125,3.254Zm9.435-7.105h9.064V77.964h-9.031V76.876h10.268V81.4h-9.04v2.648h9.5v1.1h-4.947v2.914h6.8v1.1h-14.858v-1.1h6.815V85.152h-4.574Zm26.152,11.165V75.482h1.237V91.494Zm-6.807-7.155a4.364,4.364,0,0,1-3.013-1.087,3.513,3.513,0,0,1-1.22-2.739A3.513,3.513,0,0,1-434.4,77.8a4.337,4.337,0,0,1,3.021-1.1,4.322,4.322,0,0,1,3.017,1.1,3.515,3.515,0,0,1,1.216,2.706,3.52,3.52,0,0,1-1.212,2.743A4.367,4.367,0,0,1-431.382,84.339Zm0-6.541a3.031,3.031,0,0,0-2.108.764,2.51,2.51,0,0,0-.847,1.951,2.489,2.489,0,0,0,.867,1.963,3.061,3.061,0,0,0,2.088.76,3.06,3.06,0,0,0,2.108-.76,2.5,2.5,0,0,0,.855-1.963,2.5,2.5,0,0,0-.847-1.959A3.062,3.062,0,0,0-431.382,77.8Zm-5.288,10.791-.116-1.071q2.142,0,5.981-.083t5.1-.191l.075,1.071q-1.3.108-5.142.191T-436.669,88.589Zm31.877-1.411v-11.7h1.245v11.7Zm-6.666-2.955a4.2,4.2,0,0,1-3-1.133,3.848,3.848,0,0,1-1.2-2.934,3.838,3.838,0,0,1,1.2-2.934,4.216,4.216,0,0,1,3-1.125,4.2,4.2,0,0,1,2.992,1.121,3.848,3.848,0,0,1,1.191,2.938,3.861,3.861,0,0,1-1.2,2.934A4.174,4.174,0,0,1-411.458,84.223Zm0-7.022a2.919,2.919,0,0,0-2.133.805,2.873,2.873,0,0,0-.822,2.15,2.9,2.9,0,0,0,.818,2.154,2.907,2.907,0,0,0,2.137.809,2.921,2.921,0,0,0,2.142-.809,2.887,2.887,0,0,0,.822-2.154,2.873,2.873,0,0,0-.822-2.15A2.93,2.93,0,0,0-411.458,77.2Zm-2.191,13.68v-5.2h1.245v4.076h9.28V90.88Zm26.368-9.571a11.2,11.2,0,0,1-3.623-1.183,6.5,6.5,0,0,1-2.362-1.855,7.048,7.048,0,0,1-2.424,1.855,11.005,11.005,0,0,1-3.511,1.166l-.73-1a9.336,9.336,0,0,0,3.856-1.15,4.194,4.194,0,0,0,2.129-2.1h-5.113V75.922h11.555v1.121h-5.1a4.342,4.342,0,0,0,2.162,2.108,9.072,9.072,0,0,0,3.806,1.146Zm-13.431,2.507V82.7h14.858v1.112Zm7.429,7.512a7.443,7.443,0,0,1-3.81-.8,2.458,2.458,0,0,1-1.32-2.2,2.423,2.423,0,0,1,1.324-2.162,7.479,7.479,0,0,1,3.806-.793,7.479,7.479,0,0,1,3.806.793,2.423,2.423,0,0,1,1.324,2.162,2.458,2.458,0,0,1-1.32,2.2A7.443,7.443,0,0,1-393.283,91.328Zm0-4.9a6.441,6.441,0,0,0-2.876.5,1.54,1.54,0,0,0-.967,1.4,1.575,1.575,0,0,0,.984,1.428,6.321,6.321,0,0,0,2.86.515,6.326,6.326,0,0,0,2.855-.515,1.575,1.575,0,0,0,.988-1.428,1.54,1.54,0,0,0-.971-1.4A6.445,6.445,0,0,0-393.283,86.431Zm16.15-5.238a7.686,7.686,0,0,1-3.8-.768,2.31,2.31,0,0,1-1.328-2.054,2.313,2.313,0,0,1,1.332-2.05,7.655,7.655,0,0,1,3.8-.772,7.748,7.748,0,0,1,3.81.76A2.305,2.305,0,0,1-372,78.371a2.308,2.308,0,0,1-1.324,2.059A7.717,7.717,0,0,1-377.133,81.193Zm0-4.657a6.425,6.425,0,0,0-2.847.506,1.508,1.508,0,0,0-1,1.328,1.518,1.518,0,0,0,1,1.345,6.434,6.434,0,0,0,2.839.506,6.353,6.353,0,0,0,2.831-.515,1.526,1.526,0,0,0,1.013-1.336,1.518,1.518,0,0,0-1.009-1.32A6.348,6.348,0,0,0-377.133,76.536Zm-7.429,7.039V82.554H-369.7v1.021Zm2.4,7.753V87.667h8.824V86.107h-8.824V85.069h10.044v3.569h-8.824v1.652h9.247v1.038ZM-364.057,78.1V77.009h4.109v-1.66h1.229v1.66h4.092V78.1Zm12.235,4.184v3.827h-1.22V75.482h1.22v5.694h2.4v1.1Zm-2.225,3.279q-3.9.257-10.459.257l-.116-1.071q2.515,0,4.657-.05V83.417a4.69,4.69,0,0,1-2.49-.755,1.944,1.944,0,0,1-.855-1.619,1.991,1.991,0,0,1,1.054-1.764,5.55,5.55,0,0,1,2.922-.652,5.391,5.391,0,0,1,2.889.672,2,2,0,0,1,1.071,1.743,1.943,1.943,0,0,1-.88,1.635,4.679,4.679,0,0,1-2.482.739v1.262q2.822-.033,4.624-.149Zm-5.288-5.91a4.393,4.393,0,0,0-2.059.382,1.14,1.14,0,0,0-.7,1.013,1.141,1.141,0,0,0,.73,1.013,4.427,4.427,0,0,0,2.025.382,4.415,4.415,0,0,0,2.017-.378,1.137,1.137,0,0,0,.722-1.017,1.141,1.141,0,0,0-.689-1.013A4.34,4.34,0,0,0-359.334,79.649Zm6.292,11.845V88.008h-9.1V86.92h10.318v4.574Zm16.656-4.316v-11.7h1.245v11.7Zm-6.666-2.955a4.2,4.2,0,0,1-3-1.133,3.848,3.848,0,0,1-1.2-2.934,3.838,3.838,0,0,1,1.2-2.934,4.216,4.216,0,0,1,3-1.125,4.2,4.2,0,0,1,2.992,1.121,3.848,3.848,0,0,1,1.191,2.938,3.861,3.861,0,0,1-1.2,2.934A4.174,4.174,0,0,1-343.051,84.223Zm0-7.022a2.919,2.919,0,0,0-2.133.805,2.873,2.873,0,0,0-.822,2.15,2.9,2.9,0,0,0,.818,2.154,2.907,2.907,0,0,0,2.137.809,2.921,2.921,0,0,0,2.142-.809,2.887,2.887,0,0,0,.822-2.154,2.873,2.873,0,0,0-.822-2.15A2.93,2.93,0,0,0-343.051,77.2Zm-2.191,13.68v-5.2H-344v4.076h9.28V90.88Zm25.4-6.931v7.545h-1.237V75.482h1.237v7.363h2.706v1.1Zm-12.285-4.8V78.03h4.125V75.482h1.245V78.03h4.142v1.121Zm4.74,8.367A4.123,4.123,0,0,1-330.28,86.5a3.287,3.287,0,0,1-1.121-2.532,3.3,3.3,0,0,1,1.121-2.552,4.157,4.157,0,0,1,2.905-1.017,4.15,4.15,0,0,1,2.9,1.021,3.318,3.318,0,0,1,1.125,2.565,3.253,3.253,0,0,1-1.125,2.528A4.2,4.2,0,0,1-327.391,87.518Zm.017-6.068a2.833,2.833,0,0,0-2.017.739,2.348,2.348,0,0,0-.789,1.776,2.321,2.321,0,0,0,.793,1.764,2.845,2.845,0,0,0,2.013.735,2.845,2.845,0,0,0,2.013-.735,2.321,2.321,0,0,0,.793-1.764,2.348,2.348,0,0,0-.789-1.776A2.833,2.833,0,0,0-327.374,81.45Zm12.24,5.5V76.893h7.512v2.416h3.4V75.482h1.237V91.494h-1.237V84.58h-3.4v2.374ZM-308.842,78H-313.9v7.836h5.055Zm1.22,5.479h3.4V80.413h-3.4Zm11.424.9v-1.1h6.8V81.193h-4.316V75.855h9.944v1.1h-8.683v3.129h8.874v1.1h-4.557v2.075h6.8v1.1Zm7.429,6.989a7.656,7.656,0,0,1-3.876-.8A2.43,2.43,0,0,1-293.99,88.4a2.421,2.421,0,0,1,1.349-2.158,7.693,7.693,0,0,1,3.872-.8,7.693,7.693,0,0,1,3.872.8,2.421,2.421,0,0,1,1.349,2.158,2.43,2.43,0,0,1-1.345,2.162A7.656,7.656,0,0,1-288.769,91.361Zm0-4.864a6.569,6.569,0,0,0-2.914.51,1.547,1.547,0,0,0-1,1.39,1.556,1.556,0,0,0,1,1.395,6.527,6.527,0,0,0,2.909.515,6.527,6.527,0,0,0,2.909-.515,1.556,1.556,0,0,0,1-1.395,1.548,1.548,0,0,0-1-1.39A6.573,6.573,0,0,0-288.769,86.5Zm20.624,5V75.482h1.237V91.494Zm-3.212-14.535a11.14,11.14,0,0,1-1.909,6.105,14.9,14.9,0,0,1-5.3,4.694l-.946-1a11.862,11.862,0,0,0,4.491-3.337,10,10,0,0,0,2.341-5.354h-6.176v-1.1ZM-261.5,82.5V75.955h1.22v2.283h7.62V75.955h1.22V82.5Zm8.84-3.179h-7.62v2.092h7.62Zm-3.2,6.375v5.794H-257.1V85.7h-6.8V84.58h14.858V85.7Zm16.607-.457a3.6,3.6,0,0,1-3.42,2.191,3.507,3.507,0,0,1-2.93-1.461,6.429,6.429,0,0,1-1.112-3.984,6.453,6.453,0,0,1,1.1-3.993,3.511,3.511,0,0,1,2.943-1.444,3.593,3.593,0,0,1,3.42,2.175h3.42V75.482h1.237V91.494h-1.237v-6.25Zm-3.42-7.587a2.375,2.375,0,0,0-2.054,1.179,5.616,5.616,0,0,0-.784,3.154,5.6,5.6,0,0,0,.793,3.154,2.378,2.378,0,0,0,2.046,1.187,2.378,2.378,0,0,0,2.042-1.2,5.581,5.581,0,0,0,.8-3.146,5.631,5.631,0,0,0-.78-3.163A2.375,2.375,0,0,0-242.668,77.657Zm3.81,6.491h3.03V79.832h-3.03a8.126,8.126,0,0,1,.257,2.158A8.011,8.011,0,0,1-238.858,84.148Zm7.26,4.864v-1.1h6.8v-3.7h-4.283V76.993h9.828v1.1h-8.583v5H-219v1.112h-4.541v3.7h6.8v1.1Zm29.378-8.467a3.593,3.593,0,0,1-1.336,2.445,4.313,4.313,0,0,1-2.781.909,4.17,4.17,0,0,1-2.968-1.092,3.765,3.765,0,0,1-1.166-2.885,3.789,3.789,0,0,1,1.158-2.893,4.163,4.163,0,0,1,2.976-1.092,4.292,4.292,0,0,1,2.818.938,3.665,3.665,0,0,1,1.316,2.548h2.631V75.482h1.245v8.99h-1.245V80.545Zm-4.117-3.52a2.873,2.873,0,0,0-2.1.772,2.837,2.837,0,0,0-.789,2.125,2.84,2.84,0,0,0,.78,2.121,2.875,2.875,0,0,0,2.108.768,2.9,2.9,0,0,0,2.125-.768,2.84,2.84,0,0,0,.78-2.121,2.837,2.837,0,0,0-.789-2.125A2.9,2.9,0,0,0-206.337,77.026Zm-1.851,14.028V85.36h9.895v1.1h-8.658V89.95h9.015v1.1Zm24.8-5.454-1.2-.108a45,45,0,0,0,.291-4.881v-2.5h-9.031V76.993h10.268v3.644A39.25,39.25,0,0,1-183.389,85.6Zm-12.1,3.038V87.518h5.9V82.3h1.237v5.221h7.72v1.121Zm19.957.374v-1.1h6.8v-3.7h-4.283V76.993h9.828v1.1h-8.583v5h8.84v1.112h-4.541v3.7h6.8v1.1Zm23.579-7.321a7.274,7.274,0,0,1-3.773-.809,2.491,2.491,0,0,1-1.324-2.22,2.491,2.491,0,0,1,1.324-2.22,7.274,7.274,0,0,1,3.773-.809,7.274,7.274,0,0,1,3.773.809,2.491,2.491,0,0,1,1.324,2.22,2.491,2.491,0,0,1-1.324,2.22A7.274,7.274,0,0,1-151.956,81.691Zm0-5.005a5.975,5.975,0,0,0-2.851.531,1.611,1.611,0,0,0-.942,1.444,1.611,1.611,0,0,0,.942,1.444,5.975,5.975,0,0,0,2.851.531,5.975,5.975,0,0,0,2.851-.531,1.611,1.611,0,0,0,.942-1.444,1.611,1.611,0,0,0-.942-1.444A5.975,5.975,0,0,0-151.956,76.686Zm-4.98,14.335V85.8h4.35V84.082h-6.8v-1.1h14.858v1.1h-6.8V85.8h4.35v5.221ZM-148.2,86.9h-7.521v3.03h7.521Zm4.961,2.108v-1.1h6.8v-3.7h-4.283V76.993h9.828v1.1h-8.583v5h8.84v1.112h-4.541v3.7h6.8v1.1Zm32.516-8.243v3.619h-1.237V75.482h1.237v4.167h2.4V80.77ZM-122.34,83.3V76.1h1.22v2.665h4.9V76.1H-115V83.3Zm6.118-3.453h-4.9v2.366h4.9Zm-4.283,11.206V85.277h9.787V86.4h-8.55V89.95h8.824v1.1ZM-99.7,81.193a7.686,7.686,0,0,1-3.8-.768,2.31,2.31,0,0,1-1.328-2.054,2.313,2.313,0,0,1,1.332-2.05,7.655,7.655,0,0,1,3.8-.772,7.748,7.748,0,0,1,3.81.76,2.305,2.305,0,0,1,1.32,2.063,2.308,2.308,0,0,1-1.324,2.059A7.717,7.717,0,0,1-99.7,81.193Zm0-4.657a6.425,6.425,0,0,0-2.847.506,1.508,1.508,0,0,0-1,1.328,1.518,1.518,0,0,0,1,1.345,6.434,6.434,0,0,0,2.839.506,6.353,6.353,0,0,0,2.831-.515,1.526,1.526,0,0,0,1.013-1.336,1.518,1.518,0,0,0-1.009-1.32A6.348,6.348,0,0,0-99.7,76.536Zm-7.429,7.039V82.554H-92.27v1.021Zm2.4,7.753V87.667h8.824V86.107h-8.824V85.069h10.044v3.569h-8.824v1.652h9.247v1.038Zm31.071-9.28a9.924,9.924,0,0,1-3.752-1.341,6.271,6.271,0,0,1-2.333-2.063,6.651,6.651,0,0,1-2.366,2.083,11.038,11.038,0,0,1-3.686,1.419l-.764-1.038a9.154,9.154,0,0,0,4.321-1.581,3.6,3.6,0,0,0,1.864-2.843v-.7h1.245v.7A3.549,3.549,0,0,0-77.3,79.512a8.864,8.864,0,0,0,4.375,1.515Zm-5.47,3.071v6.375h-1.245V85.119h-6.8v-1.1h14.858v1.1Zm23.983-.8v-8.84H-53.9v8.84Zm-6.848-.7a4.069,4.069,0,0,1-2.926-1.087,3.643,3.643,0,0,1-1.141-2.756,3.633,3.633,0,0,1,1.133-2.743,4.071,4.071,0,0,1,2.934-1.083,4.065,4.065,0,0,1,2.93,1.079,3.636,3.636,0,0,1,1.129,2.748,3.653,3.653,0,0,1-1.133,2.76A4.06,4.06,0,0,1-61.994,83.625Zm0-6.616a2.77,2.77,0,0,0-2.042.776,2.7,2.7,0,0,0-.78,2,2.716,2.716,0,0,0,.78,2.013,2.77,2.77,0,0,0,2.042.776,2.786,2.786,0,0,0,2.054-.78,2.711,2.711,0,0,0,.784-2.009,2.694,2.694,0,0,0-.784-1.988A2.778,2.778,0,0,0-61.994,77.009Zm9.056,14.111a6.609,6.609,0,0,1-1.7-1.332,6.062,6.062,0,0,1-1.2-1.673,6.073,6.073,0,0,1-1.183,1.76,6.986,6.986,0,0,1-1.739,1.419l-.921-.822a5.854,5.854,0,0,0,2.324-1.942,4.65,4.65,0,0,0,.888-2.731v-.7h1.229v.7a4.468,4.468,0,0,0,.917,2.706,5.012,5.012,0,0,0,2.312,1.768ZM-59.636,90A5.3,5.3,0,0,1-61.7,87.925a7.225,7.225,0,0,1-3,3.337l-.955-.789a6.5,6.5,0,0,0,2.407-2.009,4.472,4.472,0,0,0,.913-2.665v-.681h1.2V85.8a3.43,3.43,0,0,0,.689,2.125,3.547,3.547,0,0,0,1.71,1.262Zm22-8.774a10.031,10.031,0,0,1-3.619-1.241,6.741,6.741,0,0,1-2.366-2.021,6.748,6.748,0,0,1-2.345,1.98,9.867,9.867,0,0,1-3.59,1.266l-.73-1A8.489,8.489,0,0,0-46,78.744q1.751-1.245,1.751-2.432v-.54h1.229v.54q0,1.212,1.751,2.461a8.352,8.352,0,0,0,4.283,1.448Zm-13.431,2.59V82.7h14.858v1.112Zm2.449,7.238V85.086h1.22v1.992h7.5V85.086h1.22v5.968Zm8.724-2.889h-7.5v1.8h7.5Zm17.046,3.329V75.482H-21.6V91.494Zm-1.22-5.063q-1.295.374-9.114.374V76.843h1.237V85.7h1.1a41.466,41.466,0,0,0,6.624-.34Zm17.76-3.52v8.583H-7.542V75.482h1.237v6.309h2.822v1.121Zm-2.772,3.81q-1.361.166-2.781.2t-5.752.033V76.893h7.479V78h-6.234V85.85a69.126,69.126,0,0,0,7.188-.2Zm7.243,3.461a.881.881,0,0,1-.652-.274.9.9,0,0,1-.27-.656.916.916,0,0,1,.27-.66.875.875,0,0,1,.652-.278.9.9,0,0,1,.664.278.908.908,0,0,1,.274.66.9.9,0,0,1-.274.656A.9.9,0,0,1-1.834,90.183Z" transform="translate(848.85 425.152)" fill="#444"/>
    <g id="그룹_3" data-name="그룹 3" transform="translate(-3)">
      <g id="그룹_2" data-name="그룹 2">
        <rect id="사각형_15" data-name="사각형 15" width="39" height="4" transform="translate(812 276)" fill="#533aff"/>
      </g>
    </g>
  </g>
</svg>
