<svg xmlns="http://www.w3.org/2000/svg" width="330.51" height="128.13" viewBox="0 0 330.51 128.13">
  <g id="그룹_25" data-name="그룹 25" transform="translate(-22.807 -96.077)">
    <path id="패스_4" data-name="패스 4" d="M-28.975-6.275h15.95V-.9a1.184,1.184,0,0,1-.237.738.736.736,0,0,1-.612.313h-11.9V1.425h12.75v1.5a1.132,1.132,0,0,1-.237.725.908.908,0,0,1-.612.35H-26.25a1.57,1.57,0,0,1-1-.475l-1.275-1.7a1.855,1.855,0,0,1-.45-1.2v-3.05h12.75V-3.7H-28.1a.742.742,0,0,1-.65-.325,1.245,1.245,0,0,1-.225-.725Zm-3.625-2.7a1.309,1.309,0,0,1-.225-.312.813.813,0,0,1-.1-.387.668.668,0,0,1,.3-.55,19.635,19.635,0,0,0,3.55-3.975H-31.9a.7.7,0,0,1-.6-.325,1.439,1.439,0,0,1-.25-.75V-17.1h4.15v-2.975h2.15a1.238,1.238,0,0,1,.713.275.827.827,0,0,1,.337.6v2.1h4.15v1.85a1.426,1.426,0,0,1-.262.7.7.7,0,0,1-.587.35h-2.8a19.572,19.572,0,0,0,3.725,4.05.758.758,0,0,1,.275.575.836.836,0,0,1-.275.6l-1.025.95a.86.86,0,0,1-.625.288,1.542,1.542,0,0,1-.625-.313,10.142,10.142,0,0,1-.975-.875q-.55-.55-1.05-1.125t-.9-1.063q-.4-.487-.55-.712a22.2,22.2,0,0,1-1.7,2.113A15.426,15.426,0,0,1-30.45-8.05a1.7,1.7,0,0,1-.637.325q-.263.05-.638-.3ZM-13.425-19a1.184,1.184,0,0,1,.737.238.736.736,0,0,1,.313.613V-8.2a.7.7,0,0,1-.313.6,1.229,1.229,0,0,1-.737.225h-2.15v-4.35h-1.8V-8.2a.675.675,0,0,1-.337.625,1.376,1.376,0,0,1-.712.2h-2.15V-19h2.15a1.184,1.184,0,0,1,.737.238.736.736,0,0,1,.313.613v3.525h1.8V-19ZM7.85-19a1.245,1.245,0,0,1,.725.225.718.718,0,0,1,.325.625v12.6a.718.718,0,0,1-.325.625A1.245,1.245,0,0,1,7.85-4.7H5.7V-19ZM-6.3-6.35a1.523,1.523,0,0,1-.55-.088A1.334,1.334,0,0,1-7.325-6.8l-1.7-1.7a1.382,1.382,0,0,1-.363-.462,1.5,1.5,0,0,1-.088-.563V-13.8H-1.05v-1.65H-8.625a.718.718,0,0,1-.625-.325,1.245,1.245,0,0,1-.225-.725v-1.85H2.15v6.4a1.264,1.264,0,0,1-.225.713A.711.711,0,0,1,1.3-10.9H-6.275v1.65H2.15V-7.4a1.245,1.245,0,0,1-.225.725A.718.718,0,0,1,1.3-6.35ZM-3.85,1.1H8.9V2.925a1.357,1.357,0,0,1-.212.737A.7.7,0,0,1,8.05,4H-3.85a1.333,1.333,0,0,1-.562-.1,1.728,1.728,0,0,1-.463-.35L-6.6,2.125a2.2,2.2,0,0,1-.338-.475A1.221,1.221,0,0,1-7.05,1.1V-4.675h2.125a1.357,1.357,0,0,1,.738.213.7.7,0,0,1,.338.637ZM11.9-2.775a1.063,1.063,0,0,1,.275-.625q.85-1.05,1.813-2.388a28.406,28.406,0,0,0,1.775-2.8A18.849,18.849,0,0,0,17.1-11.563a8.8,8.8,0,0,0,.525-2.887v-.3h-3.6a.736.736,0,0,1-.612-.312,1.184,1.184,0,0,1-.238-.738v-1.85h12.15v1.85a1.229,1.229,0,0,1-.225.738.727.727,0,0,1-.625.313h-3.65v.225a9.245,9.245,0,0,0,.675,3.462,20.717,20.717,0,0,0,1.6,3.188A37.736,37.736,0,0,0,26.325-3.4a.79.79,0,0,1,.25.575.809.809,0,0,1-.35.65l-1.125.95a.932.932,0,0,1-.55.2.789.789,0,0,1-.625-.35A14.811,14.811,0,0,1,22.7-2.863q-.65-.887-1.288-1.863t-1.2-1.938q-.562-.962-.963-1.712a13.408,13.408,0,0,1-.8,1.537q-.55.938-1.225,1.95T15.825-2.9A16.892,16.892,0,0,1,14.5-1.3a1.068,1.068,0,0,1-.562.325.675.675,0,0,1-.587-.25L12.225-2.15A.806.806,0,0,1,11.9-2.775ZM30.85-19a1.184,1.184,0,0,1,.738.238.736.736,0,0,1,.313.613V1.65a1.044,1.044,0,0,1-.3.725L30.563,3.412a4.185,4.185,0,0,1-.412.388.969.969,0,0,1-.625.2H28.7V-19Z" transform="translate(188 116.152)" fill="#3f3f3f"/>
    <path id="패스_5" data-name="패스 5" d="M-81.281-4.875v5.93h-.873v-11.3h.873v4.594h1.957v.779Zm-1.822,2.3a8.079,8.079,0,0,1-1.541.179q-.967.038-4.605.038V-9.311h.879v6.164l2.145.012q1.143,0,1.875-.05a9.8,9.8,0,0,0,1.125-.126Zm13.281-3.363V-1.98H-70.7v-8.268h.873v3.516h1.705v.791ZM-78-4.2V-9.562h5.156V-4.2Zm4.295-4.582H-77.14v3.8h3.434ZM-76.7.621V-2.965h.873V-.17h6.316V.621Zm18.062.434v-11.3h.873v11.3ZM-63.438-4a3.081,3.081,0,0,1-2.127-.768A2.48,2.48,0,0,1-66.426-6.7a2.479,2.479,0,0,1,.855-1.916,3.061,3.061,0,0,1,2.133-.773,3.051,3.051,0,0,1,2.13.779,2.481,2.481,0,0,1,.858,1.91A2.485,2.485,0,0,1-61.3-4.761,3.082,3.082,0,0,1-63.438-4Zm0-4.617a2.139,2.139,0,0,0-1.488.539,1.772,1.772,0,0,0-.6,1.377,1.757,1.757,0,0,0,.612,1.386,2.161,2.161,0,0,0,1.474.536,2.16,2.16,0,0,0,1.488-.536,1.768,1.768,0,0,0,.6-1.386,1.767,1.767,0,0,0-.6-1.383A2.161,2.161,0,0,0-63.438-8.613ZM-67.17-1l-.082-.756q1.512,0,4.222-.059t3.6-.135l.053.756q-.92.076-3.63.135T-67.17-1Zm22.683,2.051v-11.3h.873v11.3ZM-46.562.686V-3.609h-2.32v-.785h2.32V-6.779h-2a9.491,9.491,0,0,1-3.855,5.133l-.7-.6A7.628,7.628,0,0,0-50.4-4.828,7.4,7.4,0,0,0-49.1-8.5h-3.346v-.768h4.271a9.387,9.387,0,0,1-.205,1.705h1.816V-10.02h.861V.686ZM-41.2-8.4V-9.17H-38.3v-1.172h.861V-9.17h2.895V-8.4Zm7.863,5.725v-7.57h.861v7.57Zm-.855-.457q-2.742.182-7.26.182l-.082-.756q1.752,0,3.229-.035v-.9a3.334,3.334,0,0,1-1.758-.533,1.369,1.369,0,0,1-.609-1.143,1.407,1.407,0,0,1,.744-1.242,3.911,3.911,0,0,1,2.068-.463,3.818,3.818,0,0,1,2.045.478,1.414,1.414,0,0,1,.762,1.228,1.372,1.372,0,0,1-.621,1.154,3.335,3.335,0,0,1-1.77.521v.891q1.934-.023,3.205-.105Zm-3.668-4.172a3.1,3.1,0,0,0-1.453.27.805.805,0,0,0-.492.715.806.806,0,0,0,.516.715,3.125,3.125,0,0,0,1.43.27,3.068,3.068,0,0,0,1.421-.27.805.805,0,0,0,.507-.715.805.805,0,0,0-.483-.715A3.045,3.045,0,0,0-37.863-7.307Zm4.535,8.361V-1.283h-6.539v-.768h7.389V1.055Zm8.183-7.271a5.425,5.425,0,0,1-2.684-.542,1.631,1.631,0,0,1-.937-1.45,1.633,1.633,0,0,1,.94-1.447,5.4,5.4,0,0,1,2.681-.545,5.469,5.469,0,0,1,2.689.536,1.627,1.627,0,0,1,.932,1.456,1.629,1.629,0,0,1-.935,1.453A5.447,5.447,0,0,1-25.144-6.217Zm0-3.287a4.535,4.535,0,0,0-2.01.357,1.065,1.065,0,0,0-.7.938,1.071,1.071,0,0,0,.709.949,4.542,4.542,0,0,0,2,.357,4.484,4.484,0,0,0,2-.363,1.077,1.077,0,0,0,.715-.943,1.071,1.071,0,0,0-.712-.932A4.481,4.481,0,0,0-25.144-9.5Zm-5.244,4.969v-.721H-19.9v.721ZM-28.7.938V-1.646h6.229v-1.1H-28.7V-3.48h7.09v2.52h-6.229V.205h6.527V.938Zm21.083.117v-11.3h.873v11.3ZM-9.663.709V-5.578h-1.969v-.779h1.969V-10.02H-8.8V.709Zm-1.553-2.3a8.112,8.112,0,0,1-2.121-3.533,6.563,6.563,0,0,1-.853,1.9A8.964,8.964,0,0,1-15.6-1.441l-.686-.551a5.9,5.9,0,0,0,1.764-2.224,6.572,6.572,0,0,0,.768-2.974V-9.422h.867v2.244A6.322,6.322,0,0,0-12.2-4.365a6.623,6.623,0,0,0,1.649,2.2ZM.343-5.221a4.739,4.739,0,0,1-2.7-.653,2.031,2.031,0,0,1-.955-1.761A2.056,2.056,0,0,1-2.347-9.4a4.647,4.647,0,0,1,2.689-.671A4.743,4.743,0,0,1,3.056-9.4a2.05,2.05,0,0,1,.961,1.77,2.028,2.028,0,0,1-.961,1.761A4.793,4.793,0,0,1,.343-5.221Zm0-4.1a3.8,3.8,0,0,0-2.013.451,1.392,1.392,0,0,0-.724,1.236A1.389,1.389,0,0,0-1.67-6.407a3.779,3.779,0,0,0,2.013.454,3.779,3.779,0,0,0,2.013-.454,1.389,1.389,0,0,0,.724-1.228,1.392,1.392,0,0,0-.724-1.236A3.8,3.8,0,0,0,.343-9.322ZM.788-3.193V1.055H-.091V-3.193H-4.9v-.779H5.587v.779Zm14.254.088-.85-.076A31.761,31.761,0,0,0,14.4-6.627V-8.391H8.022v-.791H15.27v2.572A27.706,27.706,0,0,1,15.042-3.105ZM6.5-.961v-.791h4.166V-5.437h.873v3.686h5.449v.791ZM29.105-1.992v-8.256h.879v8.256ZM24.4-4.078a2.967,2.967,0,0,1-2.115-.8,2.716,2.716,0,0,1-.85-2.071,2.709,2.709,0,0,1,.847-2.071A2.976,2.976,0,0,1,24.4-9.814a2.962,2.962,0,0,1,2.112.791,2.716,2.716,0,0,1,.841,2.074,2.725,2.725,0,0,1-.844,2.071A2.946,2.946,0,0,1,24.4-4.078Zm0-4.957a2.06,2.06,0,0,0-1.506.568,2.028,2.028,0,0,0-.58,1.518,2.044,2.044,0,0,0,.577,1.521,2.052,2.052,0,0,0,1.509.571,2.062,2.062,0,0,0,1.512-.571,2.038,2.038,0,0,0,.58-1.521,2.028,2.028,0,0,0-.58-1.518A2.068,2.068,0,0,0,24.4-9.035ZM22.853.621V-3.047h.879V-.17h6.551V.621ZM41.466-6.135a7.9,7.9,0,0,1-2.558-.835,4.589,4.589,0,0,1-1.667-1.31,4.975,4.975,0,0,1-1.711,1.31,7.768,7.768,0,0,1-2.479.823l-.516-.7a6.59,6.59,0,0,0,2.722-.812,2.961,2.961,0,0,0,1.5-1.485H33.152v-.791h8.156v.791h-3.6a3.065,3.065,0,0,0,1.526,1.488,6.4,6.4,0,0,0,2.687.809Zm-9.48,1.77V-5.15H42.474v.785ZM37.23.938A5.254,5.254,0,0,1,34.54.375a1.735,1.735,0,0,1-.932-1.553A1.71,1.71,0,0,1,34.543-2.7a5.28,5.28,0,0,1,2.687-.56,5.28,5.28,0,0,1,2.687.56,1.71,1.71,0,0,1,.935,1.526A1.735,1.735,0,0,1,39.919.375,5.254,5.254,0,0,1,37.23.938Zm0-3.457a4.546,4.546,0,0,0-2.03.354,1.087,1.087,0,0,0-.683.987A1.112,1.112,0,0,0,35.211-.17,4.462,4.462,0,0,0,37.23.193,4.465,4.465,0,0,0,39.246-.17a1.112,1.112,0,0,0,.7-1.008,1.087,1.087,0,0,0-.686-.987A4.549,4.549,0,0,0,37.23-2.52Zm15,3.574V-4.26H50.886V.7h-.861V-10.031h.861v4.992h1.342v-5.209h.879v11.3Zm-8.818-8.5v-.779h2.508V-9.973H46.8v1.752H49.3v.779Zm2.977,5.76a2.484,2.484,0,0,1-1.793-.7,2.371,2.371,0,0,1-.727-1.784,2.381,2.381,0,0,1,.724-1.778,2.47,2.47,0,0,1,1.8-.706,2.464,2.464,0,0,1,1.787.7,2.38,2.38,0,0,1,.721,1.784,2.371,2.371,0,0,1-.724,1.79A2.478,2.478,0,0,1,46.386-1.682Zm0-4.2A1.607,1.607,0,0,0,45.17-5.4a1.707,1.707,0,0,0-.466,1.23,1.7,1.7,0,0,0,.469,1.236,1.62,1.62,0,0,0,1.213.48,1.63,1.63,0,0,0,1.207-.478,1.682,1.682,0,0,0,.475-1.239A1.693,1.693,0,0,0,47.6-5.4,1.617,1.617,0,0,0,46.386-5.883ZM60.475-3.85v2.432h4.8v.779H54.786v-.779h4.8V-3.85H56.479V-9.275h.873v1.957h5.355V-9.275h.861V-3.85Zm2.232-2.678H57.352v1.881h5.355ZM74.875,1.055v-11.3h.873v11.3ZM72.824.709V-5.578H70.856v-.779h1.969V-10.02h.861V.709Zm-1.553-2.3a8.112,8.112,0,0,1-2.121-3.533,6.563,6.563,0,0,1-.853,1.9,8.964,8.964,0,0,1-1.415,1.787L66.2-1.992a5.9,5.9,0,0,0,1.764-2.224,6.572,6.572,0,0,0,.768-2.974V-9.422H69.6v2.244a6.322,6.322,0,0,0,.688,2.813,6.623,6.623,0,0,0,1.649,2.2Zm6.314.861v-.779H80.3V-4.395a2.4,2.4,0,0,1-1.283-2.215,2.376,2.376,0,0,1,1.052-2.065A4.726,4.726,0,0,1,82.83-9.41a4.7,4.7,0,0,1,2.76.735,2.382,2.382,0,0,1,1.043,2.065,2.4,2.4,0,0,1-1.271,2.215v2.883h2.713v.779Zm2.338-5.877a1.688,1.688,0,0,0,.8,1.479,3.721,3.721,0,0,0,2.106.536,3.677,3.677,0,0,0,2.1-.539,1.694,1.694,0,0,0,.794-1.477,1.71,1.71,0,0,0-.8-1.488,3.653,3.653,0,0,0-2.095-.545,3.678,3.678,0,0,0-2.1.545A1.708,1.708,0,0,0,79.924-6.609Zm1.248,2.578v2.52h3.316v-2.52a5.653,5.653,0,0,1-1.658.217A6.2,6.2,0,0,1,81.172-4.031ZM89.537.129a.622.622,0,0,1-.46-.193.636.636,0,0,1-.19-.463.646.646,0,0,1,.19-.466.617.617,0,0,1,.46-.2.634.634,0,0,1,.469.2.641.641,0,0,1,.193.466.632.632,0,0,1-.193.463A.638.638,0,0,1,89.537.129ZM-128.946,21.055v-5.9h-1.418v5.555h-.861V9.98h.861v4.389h1.418V9.752h.879v11.3Zm-8.074-3.3v-7h4.523v7Zm3.656-6.229h-2.795v5.461h2.795Zm15.589,4.043V9.752h.891V15.57Zm-4.74-.4a2.927,2.927,0,0,1-2.071-.735,2.44,2.44,0,0,1-.794-1.872,2.415,2.415,0,0,1,.794-1.86,2.941,2.941,0,0,1,2.071-.729,2.947,2.947,0,0,1,2.071.732,2.409,2.409,0,0,1,.8,1.857,2.43,2.43,0,0,1-.8,1.869A2.936,2.936,0,0,1-122.515,15.166Zm0-4.441a2.05,2.05,0,0,0-1.453.5,1.733,1.733,0,0,0-.539,1.333,1.778,1.778,0,0,0,.539,1.351,2.022,2.022,0,0,0,1.453.513,2.022,2.022,0,0,0,1.453-.513,1.778,1.778,0,0,0,.539-1.351,1.733,1.733,0,0,0-.539-1.333A2.05,2.05,0,0,0-122.515,10.725Zm-1.342,10.066V18.055h6.105V16.977h-6.105V16.2h6.973v2.613H-123v1.2h6.422v.779Zm20.445-5.666v5.93h-.873V9.752h.873v4.582h1.91v.791Zm-5.437,3.064a2.5,2.5,0,0,1-2.074-1.025,4.509,4.509,0,0,1-.791-2.818,4.525,4.525,0,0,1,.782-2.824,2.5,2.5,0,0,1,2.083-1.014,2.493,2.493,0,0,1,2.089,1.028,4.537,4.537,0,0,1,.782,2.81,4.536,4.536,0,0,1-.785,2.815A2.5,2.5,0,0,1-108.85,18.189Zm0-6.9a1.68,1.68,0,0,0-1.45.823,3.956,3.956,0,0,0-.554,2.235,3.95,3.95,0,0,0,.56,2.227,1.679,1.679,0,0,0,1.444.838,1.679,1.679,0,0,0,1.441-.844,3.94,3.94,0,0,0,.563-2.221,3.975,3.975,0,0,0-.551-2.232A1.676,1.676,0,0,0-108.85,11.287Zm14.511,4.67a5.979,5.979,0,0,1-2.783-2.4A6.216,6.216,0,0,1-99.9,16.186l-.65-.674A5.128,5.128,0,0,0-98.46,14.1a2.871,2.871,0,0,0,.894-1.878v-.492h-2.613v-.768h2.613V9.646h.873v1.318h2.619v.768h-2.619v.492A2.623,2.623,0,0,0-95.783,14a4.651,4.651,0,0,0,2.019,1.245Zm1.91.141V9.752h.873V16.1Zm-6.088,4.646v-4h6.961v4Zm6.1-3.229h-5.221v2.461h5.221ZM-78.2,15.57V9.752h.891V15.57Zm-4.74-.4a2.927,2.927,0,0,1-2.071-.735,2.44,2.44,0,0,1-.794-1.872,2.415,2.415,0,0,1,.794-1.86,2.941,2.941,0,0,1,2.071-.729,2.947,2.947,0,0,1,2.071.732,2.409,2.409,0,0,1,.8,1.857,2.43,2.43,0,0,1-.8,1.869A2.936,2.936,0,0,1-82.941,15.166Zm0-4.441a2.05,2.05,0,0,0-1.453.5,1.733,1.733,0,0,0-.539,1.333,1.778,1.778,0,0,0,.539,1.351,2.022,2.022,0,0,0,1.453.513,2.022,2.022,0,0,0,1.453-.513,1.778,1.778,0,0,0,.539-1.351,1.733,1.733,0,0,0-.539-1.333A2.05,2.05,0,0,0-82.941,10.725Zm-1.342,10.066V18.055h6.105V16.977h-6.105V16.2h6.973v2.613h-6.111v1.2H-77v.779ZM-66.918,16.1V9.752h.873V16.1Zm-4.8-1.459a4.541,4.541,0,0,1-1.307-1.887,5.553,5.553,0,0,1-1.559,2.531l-.709-.457a5.1,5.1,0,0,0,1.822-3.779h-1.5v-.779h6.82v.779h-1.488a4.623,4.623,0,0,0,2.063,3.926l-.609.551a5.379,5.379,0,0,1-1.116-1.093,4.251,4.251,0,0,1-.759-1.31,6.829,6.829,0,0,1-1.764,2.859l-.7-.445A6.944,6.944,0,0,0-71.722,14.639Zm-.92-3.592a3.875,3.875,0,0,0,1.354,2.93,5.966,5.966,0,0,0,.814-2.93Zm5.725,10.008V17.5h-6.545v-.779h7.418v4.33Zm14.2-5.484V9.752h.891V15.57Zm-4.74-.4a2.927,2.927,0,0,1-2.071-.735,2.44,2.44,0,0,1-.794-1.872,2.415,2.415,0,0,1,.794-1.86,2.941,2.941,0,0,1,2.071-.729,2.947,2.947,0,0,1,2.071.732,2.409,2.409,0,0,1,.8,1.857,2.43,2.43,0,0,1-.8,1.869A2.936,2.936,0,0,1-57.453,15.166Zm0-4.441a2.05,2.05,0,0,0-1.453.5,1.733,1.733,0,0,0-.539,1.333,1.778,1.778,0,0,0,.539,1.351,2.022,2.022,0,0,0,1.453.513A2.022,2.022,0,0,0-56,13.909a1.778,1.778,0,0,0,.539-1.351A1.733,1.733,0,0,0-56,11.226,2.05,2.05,0,0,0-57.453,10.725ZM-58.8,20.791V18.055h6.105V16.977H-58.8V16.2h6.973v2.613h-6.111v1.2h6.422v.779Zm15.3-6.082a4.19,4.19,0,0,1-.876,2.581,2.508,2.508,0,0,1-1.978.9,2.5,2.5,0,0,1-2.08-1.028,4.511,4.511,0,0,1-.791-2.815,4.528,4.528,0,0,1,.782-2.821,2.5,2.5,0,0,1,2.089-1.017,2.488,2.488,0,0,1,1.975.9,4.132,4.132,0,0,1,.867,2.522h2.092V9.752h.873v11.3h-.873V14.709Zm-2.854-3.422a1.674,1.674,0,0,0-1.456.826,3.992,3.992,0,0,0-.548,2.232,3.96,3.96,0,0,0,.557,2.232,1.679,1.679,0,0,0,1.447.832,1.679,1.679,0,0,0,1.441-.844,3.94,3.94,0,0,0,.563-2.221,3.975,3.975,0,0,0-.551-2.232A1.676,1.676,0,0,0-46.352,11.287Zm16.714,3.838v5.93h-.873V9.752h.873v4.594h1.957v.779Zm-1.822,2.3A8.079,8.079,0,0,1-33,17.6q-.967.038-4.605.038V10.689h.879v6.164l2.145.012q1.143,0,1.875-.05a9.8,9.8,0,0,0,1.125-.126Zm12.83,3.633V9.752h.873v11.3ZM-20.9,10.795a7.864,7.864,0,0,1-1.348,4.31,10.515,10.515,0,0,1-3.744,3.313l-.668-.709a8.373,8.373,0,0,0,3.17-2.355,7.057,7.057,0,0,0,1.652-3.779h-4.359v-.779Zm6.361,7.869-.937,2.883h-.686l.686-2.883Zm12.183,2.391V9.752h.879v11.3Zm-7.377-10.2h5.625v.785H-8.87v1.482h4.588v.762H-8.87v1.4H-3.9v.779H-6.374v2.32l3.352-.123.047.756q-3.34.193-7.787.193l-.1-.779q1.945,0,3.615-.035V16.063H-9.731ZM.456,15.582V14.8h7.8q.135-1.377.135-3.7H2.208v-.779H9.263q0,2.971-.141,4.477h1.822v.779ZM2.29,20.574V16.783h.879v3H9.421v.791Zm13.238-8.818V11h3.814V9.764h.891V11h3.814v.756Zm4.26,4.354a5.893,5.893,0,0,1-2.73-.5,1.466,1.466,0,0,1,.018-2.728,5.881,5.881,0,0,1,2.713-.5,5.846,5.846,0,0,1,2.7.5,1.467,1.467,0,0,1,.015,2.728A5.861,5.861,0,0,1,19.787,16.109Zm-.012-3a5,5,0,0,0-2.027.322q-.7.322-.7.82t.7.817a5.13,5.13,0,0,0,2.024.313,5.22,5.22,0,0,0,2.03-.311q.706-.311.706-.82t-.706-.823A5.09,5.09,0,0,0,19.775,13.109Zm.457,4.623v3.322h-.891V17.732h-4.8v-.779H25.031v.779Zm17.193-2.607v5.93h-.873V9.752h.873v4.594h1.957v.779Zm-2.66,3.17A8.517,8.517,0,0,1,33.139,16.6a6.614,6.614,0,0,1-1.052-1.893,6.624,6.624,0,0,1-1,1.9,8.95,8.95,0,0,1-1.711,1.846l-.674-.58a6.582,6.582,0,0,0,2.083-2.306,5.8,5.8,0,0,0,.847-2.862V11.516H29.122v-.779h5.83v.779H32.491v1.131a5.385,5.385,0,0,0,.85,2.789,6.814,6.814,0,0,0,2.033,2.2Zm13.668,2.76V9.752h.873v11.3Zm-2.268-10.26a7.864,7.864,0,0,1-1.348,4.31,10.515,10.515,0,0,1-3.744,3.313l-.668-.709a8.373,8.373,0,0,0,3.17-2.355,7.057,7.057,0,0,0,1.652-3.779H40.868v-.779Zm13.966,10.26V9.752H61v11.3Zm-2.074-.369V16.391h-2.32v-.785h2.32V13.221h-2A9.491,9.491,0,0,1,52.2,18.354l-.7-.6a7.628,7.628,0,0,0,2.719-2.584,7.4,7.4,0,0,0,1.3-3.668H52.174v-.768h4.271a9.387,9.387,0,0,1-.205,1.705h1.816V9.98h.861V20.686Zm13.627-7.406V15.5h-.861V9.752h.861V12.5h1.705v.779Zm-8.191,1.611V10.139h.861V11.9h3.457V10.139h.861v4.752Zm4.318-2.232H64.354v1.477h3.457Zm-3.023,8.256V18.143h6.035V16.895H64.787v-.773h6.9v2.748H65.648v1.277H72v.768Zm10.539-2.25-.937,2.883H73.7l.686-2.883Zm10.706-3.979a5.191,5.191,0,0,1-1.808-.712A3.488,3.488,0,0,1,83.032,12.9a3.369,3.369,0,0,1-1.2,1.157A6.338,6.338,0,0,1,80,14.891l-.562-.686a4.543,4.543,0,0,0,2.109-.858,2.29,2.29,0,0,0,1.014-1.509H79.891v-.779h2.7V9.74h.873v1.318h2.619v.779h-2.6a2.032,2.032,0,0,0,.964,1.362,4.534,4.534,0,0,0,2.112.753Zm1.5,6.369V9.752h.879v11.3Zm-4.916-.322V16.52q-2.807.047-3.6.047L78.93,15.8q1.354,0,4.148-.05t3.8-.114l.047.756q-1.289.082-3.434.105v4.236Zm16.105.322V9.752h.873v11.3ZM91.1,17.732V10.748h5.379v6.984Zm4.5-6.217H91.977v5.449H95.6Zm14.722,4.822v-2.83H109v2.531h-.873V9.98H109v2.771h1.318v-3h.879v6.586Zm-3.475-.85a5.5,5.5,0,0,1-1.324-1.131,5.052,5.052,0,0,1-.92-1.342,4.681,4.681,0,0,1-.888,1.491,5.673,5.673,0,0,1-1.409,1.269l-.621-.586a4.77,4.77,0,0,0,1.8-1.644,3.982,3.982,0,0,0,.683-2.2v-1.2h.838v1.2a3.463,3.463,0,0,0,.712,2.065,4.253,4.253,0,0,0,1.7,1.427Zm.656,5.373a5.374,5.374,0,0,1-2.774-.6,1.717,1.717,0,0,1,0-3.114,6.706,6.706,0,0,1,5.561,0,1.717,1.717,0,0,1,0,3.114A5.4,5.4,0,0,1,107.5,20.861Zm0-3.574a4.472,4.472,0,0,0-2.106.4,1.069,1.069,0,0,0,.006,2.033,4.535,4.535,0,0,0,2.1.4,4.586,4.586,0,0,0,2.1-.393,1.07,1.07,0,0,0,0-2.039A4.525,4.525,0,0,0,107.5,17.287Zm6-5.877v-.721h2.889V9.635h.879v1.055h2.889v.721Zm8.637,2.736v2.279h-.873V9.752h.873v3.6h1.693v.8Zm-8.9,2.145-.088-.721q.791,0,3.24-.047v-.779a3.676,3.676,0,0,1-1.752-.469,1.156,1.156,0,0,1-.621-.984,1.2,1.2,0,0,1,.75-1.046,4.371,4.371,0,0,1,2.068-.407,4.309,4.309,0,0,1,2.063.41,1.2,1.2,0,0,1,.744,1.043,1.145,1.145,0,0,1-.624,1,3.809,3.809,0,0,1-1.761.457V15.5q1.863-.029,3.164-.117l.088.691q-.967.076-3.627.146T113.242,16.291Zm3.6-3.791q-1.934,0-1.934.791t1.934.791q1.922,0,1.922-.791T116.839,12.5Zm-1.717,8.461V18.594h6.158v-.873h-6.158V17h7.02v2.279h-6.158v.961h6.469v.721Zm13.847-7.078V10.074h6.973v.779h-6.094V13.1h6.211v.785Zm-1.764,2V15.1h10.488v.785Zm5.244,5.074a5.53,5.53,0,0,1-2.73-.551,1.677,1.677,0,0,1,0-3.026,7.024,7.024,0,0,1,5.467,0,1.677,1.677,0,0,1,0,3.026A5.53,5.53,0,0,1,132.45,20.961Zm0-3.387a4.658,4.658,0,0,0-2.068.357,1.019,1.019,0,0,0,0,1.931,6.194,6.194,0,0,0,4.131,0,1.019,1.019,0,0,0,0-1.931A4.658,4.658,0,0,0,132.45,17.574ZM-139.706,38.969v-.779h7.67q.17-1.881.217-3.422l-6.82.357-.187-.861,7.02-.24V31.609h-6.445V30.83h7.307v3.287q0,1.482-.24,4.072h1.969v.779Zm13.129-3.984V32.113h6.17v-1.23h-6.17V30.1h7.031v2.771h-6.17v1.336h6.434v.779Zm3.961,2.086v3.984h-.891V37.07h-4.8v-.791h10.488v.791Zm17.122-1.5V33.438h-1.318V35.57h-.867V29.98h.867v2.666h1.318V29.752h.873V35.57Zm-3.375-.047a4.714,4.714,0,0,1-2.18-2.051,5.6,5.6,0,0,1-2.209,2.3l-.674-.633a4.678,4.678,0,0,0,1.737-1.345,2.864,2.864,0,0,0,.712-1.813v-.193h-2.062v-.779h2.063V29.822h.873v1.189h2.045v.779h-2.045v.182a2.627,2.627,0,0,0,.645,1.688,3.852,3.852,0,0,0,1.688,1.178Zm-2.83,5.268V38.043h6.217V36.977H-111.7V36.2h7.078v2.613h-6.2v1.2h6.5v.779Zm17.4-2.783V29.752h.891v8.256Zm-1.166-1.869a13.475,13.475,0,0,1-1.726.173q-.823.026-4.427.026v-3.4h4.189v-1.8h-4.189v-.773h5.051v3.328h-4.189V35.57q2.725,0,3.6-.032a11.25,11.25,0,0,0,1.562-.155Zm-4.916,4.594V37.311h.873v2.631h6.387v.791Zm17.365.322v-11.3h.873v11.3Zm-2.08-2.76a9.621,9.621,0,0,1-1.787-1.822,5.717,5.717,0,0,1-.984-1.834,6.053,6.053,0,0,1-1.014,1.96,9.4,9.4,0,0,1-1.746,1.854l-.656-.6a6.893,6.893,0,0,0,2.156-2.4,6.128,6.128,0,0,0,.814-2.988v-.949h-2.52v-.779h5.941v.779h-2.543v.914a5.945,5.945,0,0,0,.826,2.959,5.952,5.952,0,0,0,2.115,2.232Zm14.113-4.189h-7.33V31.662H-72.1v-.973h-6.217v-.744h7.078v2.4h-6.217v1.02h6.469Zm1.453,1.693H-80.019v-.744h10.488Zm-1.43,5.139h-7.389V38.465h6.275v-.973h-6.275v-.744h7.137v2.414h-6.275v1.031h6.527Zm13.882-6.879V38.02h-.873V29.752h.873v3.516h1.705v.791Zm-8.18,1.74V30.438H-60.1V35.8Zm4.295-4.582H-64.4v3.8h3.434Zm-2.988,9.4V37.035h.873V39.83h6.316v.791Zm11.183-7.2V30h7.008v.744H-51.9v1.934h6.275v.744Zm-1.764,1.916V34.6h10.488v.744Zm1.705,5.572V38.354h6.193V37.24h-6.193V36.5h7.055v2.555h-6.193V40.17h6.492v.744ZM-36.8,34.709a4.19,4.19,0,0,1-.876,2.581,2.508,2.508,0,0,1-1.978.9,2.5,2.5,0,0,1-2.08-1.028,4.511,4.511,0,0,1-.791-2.815,4.528,4.528,0,0,1,.782-2.821,2.5,2.5,0,0,1,2.089-1.017,2.488,2.488,0,0,1,1.975.9,4.132,4.132,0,0,1,.867,2.522h2.092V29.752h.873v11.3h-.873V34.709Zm-2.854-3.422a1.674,1.674,0,0,0-1.456.826,3.992,3.992,0,0,0-.548,2.232,3.96,3.96,0,0,0,.557,2.232,1.679,1.679,0,0,0,1.447.832,1.679,1.679,0,0,0,1.441-.844,3.94,3.94,0,0,0,.563-2.221,3.975,3.975,0,0,0-.551-2.232A1.676,1.676,0,0,0-39.652,31.287ZM-20.25,35v6.059h-.873v-11.3h.873v4.453h1.992V35Zm-1.957,2.689q-.961.117-1.963.141t-4.061.023v-7.1h5.279v.779h-4.4V37.07a48.8,48.8,0,0,0,5.074-.141Zm6.326-2.795V32.125H-9.8v-1.23h-6.082v-.773H-8.92V32.9h-6.094v1.207h6.357v.785Zm-1.764,1.928v-.779H-7.157v.779Zm1.729,3.973v-3.17h.873V40h6.4v.791ZM5.237,35.125v5.93H4.364v-11.3h.873v4.594H7.194v.779ZM2.706,38.189A9.29,9.29,0,0,1,.936,36.37a6.473,6.473,0,0,1-1.061-1.9,6.907,6.907,0,0,1-1.055,2,9.041,9.041,0,0,1-1.752,1.86l-.674-.586A7.068,7.068,0,0,0-1.4,35.351,5.949,5.949,0,0,0-.57,32.383V30.531H.3v1.811a5.608,5.608,0,0,0,.817,2.871,6.8,6.8,0,0,0,2.2,2.291ZM16.7,33.473v2.783h-.873v-6.5H16.7v2.941H18.4v.779Zm-1.963,2.039a14.413,14.413,0,0,1-1.866.185q-.946.032-4.233.032V32.477h4.178V30.988H8.633v-.779h5.051v3.035H9.512v1.717q2.619,0,3.51-.038a10.89,10.89,0,0,0,1.564-.167ZM9.811,40.791V36.883H16.7v3.908Zm6.023-3.129H10.672v2.35h5.162Zm5.171-4.236V30h7.008v.744H21.873v1.934h6.275v.744Zm-1.764,1.916V34.6H29.73v.744Zm1.705,5.572V38.354h6.193V37.24H20.947V36.5H28v2.555H21.809V40.17H28.3v.744Zm20.541-5.906H39.642v6.047h-.891v-11.3h.879v4.477h1.857Zm-4.424-4.189q0,3.287-.217,5.807l-.855-.059q.07-.621.132-2.335t.062-2.634h-4.8v-.779Zm.92,7.934q-3.059.17-7.57.17l-.082-.768q.6,0,2.83-.029V34.217h.879v3.9L37.925,38Zm6.827-6.826v-.768h2.906V29.693h.873v1.465H51.5v.768Zm8.771,2.168v2.4H52.71V29.752h.873V33.3h1.705v.791Zm-5.408,2.221a3.424,3.424,0,0,1-2.045-.536,1.686,1.686,0,0,1,.009-2.795,4.14,4.14,0,0,1,4.1,0,1.675,1.675,0,0,1,0,2.789A3.448,3.448,0,0,1,48.175,36.314Zm.012-3.129a2.587,2.587,0,0,0-1.421.334,1,1,0,0,0-.513.867.984.984,0,0,0,.51.855,3.253,3.253,0,0,0,2.848,0,.984.984,0,0,0,.51-.855,1,1,0,0,0-.513-.867A2.587,2.587,0,0,0,48.186,33.186ZM46.651,40.85V37.117h6.932V40.85Zm6.07-2.959H47.512v2.18h5.209Zm12.326,3.164v-11.3h.861v11.3Zm-3.34-9.85a17.45,17.45,0,0,1-.187,2.678h1.488v-3.9h.85V40.873h-.85V34.662H61.373a9.531,9.531,0,0,1-2,4.16l-.756-.516a7.111,7.111,0,0,0,1.673-2.856,12.467,12.467,0,0,0,.583-3.923h-1.5V30.76h2.338Zm-2.66-.088a9.467,9.467,0,0,1-2.379,6.627l-.744-.492a7.157,7.157,0,0,0,1.688-2.572,8.572,8.572,0,0,0,.592-3.152H56.645V30.76h2.4Zm19.618,6.674V29.752h.873v8.039ZM76.7,36.121A7.971,7.971,0,0,1,75.091,34.8,5.818,5.818,0,0,1,74,33.314a7.741,7.741,0,0,1-2.771,3.1l-.621-.6a5.743,5.743,0,0,0,2.083-1.822,4.129,4.129,0,0,0,.853-2.414v-.416H70.972v-.8h5.953v.8H74.394v.416a3.664,3.664,0,0,0,.891,2.256,5.575,5.575,0,0,0,2,1.658Zm-4.119,4.564v-3.7h.879v2.93h6.387v.768Zm17.8-4.008V33.941H89.058V36.35h-.867V29.98h.867v3.193h1.318V29.752h.867v6.926Zm-8.654-4.693v-.768h2.484V29.846h.867v1.371h2.461v.768Zm2.93,4.271a2.779,2.779,0,0,1-1.784-.539,1.678,1.678,0,0,1,0-2.7,3.242,3.242,0,0,1,3.563,0,1.685,1.685,0,0,1,.009,2.7A2.785,2.785,0,0,1,84.652,36.256Zm0-3.047a1.99,1.99,0,0,0-1.157.325.966.966,0,0,0,0,1.661,1.98,1.98,0,0,0,1.154.328A2.015,2.015,0,0,0,85.82,35.2a.96.96,0,0,0,0-1.661A2.031,2.031,0,0,0,84.652,33.209Zm2.859,7.752a6,6,0,0,1-2.833-.536,1.631,1.631,0,0,1,0-2.988,6.06,6.06,0,0,1,2.83-.53,5.985,5.985,0,0,1,2.827.536,1.626,1.626,0,0,1,0,2.979A5.954,5.954,0,0,1,87.511,40.961Zm0-3.311q-2.871,0-2.871,1.283t2.871,1.283q2.877,0,2.877-1.283T87.511,37.65Zm14.347,3.4V35.74h-1.342V40.7h-.861V29.969h.861v4.992h1.342V29.752h.879v11.3Zm-8.818-8.5v-.779h2.508V30.027h.879v1.752h2.508v.779Zm2.977,5.76a2.484,2.484,0,0,1-1.793-.7,2.55,2.55,0,0,1,0-3.562A2.634,2.634,0,0,1,97.8,34.05a2.572,2.572,0,0,1,0,3.574A2.478,2.478,0,0,1,96.016,38.318Zm0-4.2A1.607,1.607,0,0,0,94.8,34.6a1.861,1.861,0,0,0,0,2.467,1.768,1.768,0,0,0,2.42,0,1.852,1.852,0,0,0,0-2.473A1.617,1.617,0,0,0,96.016,34.117Zm14.089,2.033v2.432h4.8v.779H104.416v-.779h4.8V36.15H106.11V30.725h.873v1.957h5.355V30.725h.861V36.15Zm2.232-2.678h-5.355v1.881h5.355Zm12.168,7.582v-11.3h.873v11.3Zm-2.051-.346V34.422h-1.969v-.779h1.969V29.98h.861V40.709Zm-1.553-2.3a8.112,8.112,0,0,1-2.121-3.533,6.563,6.563,0,0,1-.853,1.9,8.964,8.964,0,0,1-1.415,1.787l-.686-.551a5.9,5.9,0,0,0,1.764-2.224,6.572,6.572,0,0,0,.768-2.974V30.578h.867v2.244a6.322,6.322,0,0,0,.688,2.813,6.623,6.623,0,0,0,1.649,2.2Zm6.314.861v-.779h2.713V35.605a2.553,2.553,0,0,1-.231-4.28,5.552,5.552,0,0,1,5.522,0,2.566,2.566,0,0,1-.229,4.28v2.883H137.7v.779Zm2.338-5.877a1.688,1.688,0,0,0,.8,1.479,3.721,3.721,0,0,0,2.106.536,3.677,3.677,0,0,0,2.1-.539,1.777,1.777,0,0,0-.006-2.965,4.316,4.316,0,0,0-4.2,0A1.708,1.708,0,0,0,129.554,33.391Zm1.248,2.578v2.52h3.316v-2.52a5.653,5.653,0,0,1-1.658.217A6.2,6.2,0,0,1,130.8,35.969Zm8.365,4.16a.622.622,0,0,1-.46-.193.636.636,0,0,1-.19-.463.646.646,0,0,1,.19-.466.617.617,0,0,1,.46-.2.634.634,0,0,1,.469.2.641.641,0,0,1,.193.466.632.632,0,0,1-.193.463A.638.638,0,0,1,139.167,40.129ZM-156.674,61.055V54.24h-2.637v-.779h2.637V49.752h.879v11.3Zm-2.2-2.865a9.424,9.424,0,0,1-1.778-1.825,6.069,6.069,0,0,1-1.052-1.9,6.872,6.872,0,0,1-1.072,2.021,8.967,8.967,0,0,1-1.746,1.84l-.674-.586a7.025,7.025,0,0,0,2.221-2.394,5.949,5.949,0,0,0,.826-2.968V50.531h.867v1.811a5.619,5.619,0,0,0,.817,2.865,6.758,6.758,0,0,0,2.206,2.3Zm6.66-5.016h6.4V51.5h-6.375v-.768h7.248V53.93h-6.381V55.8h6.709v.779H-148.1v2.057h4.8v.779h-10.488v-.779h4.811V56.578h-3.229Zm18.461,7.881v-11.3h.873v11.3Zm-4.8-5.051a3.081,3.081,0,0,1-2.127-.768,2.48,2.48,0,0,1-.861-1.934,2.479,2.479,0,0,1,.855-1.916,3.061,3.061,0,0,1,2.133-.773,3.051,3.051,0,0,1,2.13.779,2.481,2.481,0,0,1,.858,1.91,2.485,2.485,0,0,1-.855,1.937A3.082,3.082,0,0,1-138.555,56Zm0-4.617a2.139,2.139,0,0,0-1.488.539,1.772,1.772,0,0,0-.6,1.377,1.757,1.757,0,0,0,.612,1.386,2.161,2.161,0,0,0,1.474.536,2.16,2.16,0,0,0,1.488-.536,1.768,1.768,0,0,0,.6-1.386,1.767,1.767,0,0,0-.6-1.383A2.161,2.161,0,0,0-138.555,51.387ZM-142.288,59l-.082-.756q1.512,0,4.222-.059t3.6-.135l.053.756q-.92.076-3.63.135T-142.288,59Zm22.5-1V49.752h.879v8.256Zm-4.705-2.086a2.967,2.967,0,0,1-2.115-.8,2.716,2.716,0,0,1-.85-2.071,2.709,2.709,0,0,1,.847-2.071,2.976,2.976,0,0,1,2.118-.794,2.962,2.962,0,0,1,2.112.791,2.716,2.716,0,0,1,.841,2.074,2.725,2.725,0,0,1-.844,2.071A2.946,2.946,0,0,1-124.492,55.922Zm0-4.957a2.06,2.06,0,0,0-1.506.568,2.028,2.028,0,0,0-.58,1.518A2.044,2.044,0,0,0-126,54.571a2.052,2.052,0,0,0,1.509.571,2.062,2.062,0,0,0,1.512-.571,2.038,2.038,0,0,0,.58-1.521,2.028,2.028,0,0,0-.58-1.518A2.068,2.068,0,0,0-124.492,50.965Zm-1.547,9.656V56.953h.879V59.83h6.551v.791Zm18.613-6.756a7.9,7.9,0,0,1-2.558-.835,4.589,4.589,0,0,1-1.667-1.31,4.975,4.975,0,0,1-1.711,1.31,7.768,7.768,0,0,1-2.479.823l-.516-.7a6.59,6.59,0,0,0,2.722-.812,2.961,2.961,0,0,0,1.5-1.485h-3.609v-.791h8.156v.791h-3.6a3.065,3.065,0,0,0,1.526,1.488,6.4,6.4,0,0,0,2.687.809Zm-9.48,1.77V54.85h10.488v.785Zm5.244,5.3a5.254,5.254,0,0,1-2.689-.562,1.735,1.735,0,0,1-.932-1.553,1.71,1.71,0,0,1,.935-1.526,5.28,5.28,0,0,1,2.687-.56,5.28,5.28,0,0,1,2.687.56,1.71,1.71,0,0,1,.935,1.526,1.735,1.735,0,0,1-.932,1.553A5.254,5.254,0,0,1-111.662,60.938Zm0-3.457a4.546,4.546,0,0,0-2.03.354,1.087,1.087,0,0,0-.683.987,1.112,1.112,0,0,0,.694,1.008,4.462,4.462,0,0,0,2.019.363,4.465,4.465,0,0,0,2.016-.363,1.112,1.112,0,0,0,.7-1.008,1.087,1.087,0,0,0-.686-.987A4.549,4.549,0,0,0-111.662,57.48Zm11.4-3.7a5.425,5.425,0,0,1-2.684-.542,1.631,1.631,0,0,1-.937-1.45,1.633,1.633,0,0,1,.94-1.447,5.4,5.4,0,0,1,2.681-.545,5.469,5.469,0,0,1,2.689.536,1.627,1.627,0,0,1,.932,1.456,1.629,1.629,0,0,1-.935,1.453A5.447,5.447,0,0,1-100.262,53.783Zm0-3.287a4.535,4.535,0,0,0-2.01.357,1.065,1.065,0,0,0-.7.938,1.071,1.071,0,0,0,.709.949,4.542,4.542,0,0,0,2,.357,4.484,4.484,0,0,0,2-.363,1.077,1.077,0,0,0,.715-.943,1.071,1.071,0,0,0-.712-.932A4.481,4.481,0,0,0-100.262,50.5Zm-5.244,4.969v-.721h10.488v.721Zm1.693,5.473V58.354h6.229v-1.1h-6.229V56.52h7.09v2.52h-6.229v1.166h6.527v.732Zm12.78-9.34V50.83h2.9V49.658h.867V50.83h2.889V51.6Zm8.637,2.953v2.7h-.861v-7.5h.861v4.02H-80.7v.779Zm-1.57,2.314q-2.754.182-7.383.182l-.082-.756q1.775,0,3.287-.035v-.9A3.311,3.311,0,0,1-89.9,54.82a1.373,1.373,0,0,1-.6-1.143,1.405,1.405,0,0,1,.744-1.245,3.918,3.918,0,0,1,2.063-.46,3.805,3.805,0,0,1,2.039.475,1.413,1.413,0,0,1,.756,1.23,1.372,1.372,0,0,1-.621,1.154,3.3,3.3,0,0,1-1.752.521v.891q1.992-.023,3.264-.105ZM-87.7,52.693a3.1,3.1,0,0,0-1.453.27.805.805,0,0,0-.492.715.806.806,0,0,0,.516.715,3.125,3.125,0,0,0,1.43.27,3.117,3.117,0,0,0,1.424-.267.8.8,0,0,0,.51-.718.805.805,0,0,0-.486-.715A3.063,3.063,0,0,0-87.7,52.693Zm4.441,8.361V58.594h-6.422v-.768H-82.4v3.229ZM-71.5,58.008V49.752h.879v8.256ZM-76.2,55.922a2.967,2.967,0,0,1-2.115-.8,2.716,2.716,0,0,1-.85-2.071,2.709,2.709,0,0,1,.847-2.071,2.976,2.976,0,0,1,2.118-.794,2.962,2.962,0,0,1,2.112.791,2.716,2.716,0,0,1,.841,2.074,2.725,2.725,0,0,1-.844,2.071A2.946,2.946,0,0,1-76.2,55.922Zm0-4.957a2.06,2.06,0,0,0-1.506.568,2.028,2.028,0,0,0-.58,1.518,2.044,2.044,0,0,0,.577,1.521,2.052,2.052,0,0,0,1.509.571,2.062,2.062,0,0,0,1.512-.571,2.038,2.038,0,0,0,.58-1.521,2.028,2.028,0,0,0-.58-1.518A2.068,2.068,0,0,0-76.2,50.965Zm-1.547,9.656V56.953h.879V59.83h6.551v.791Zm17.927-4.893v5.326H-60.7v-11.3h.873v5.2h1.91v.779ZM-68.5,52.342v-.791h2.912v-1.8h.879v1.8h2.924v.791Zm3.346,5.906a2.91,2.91,0,0,1-2.039-.721,2.32,2.32,0,0,1-.791-1.787,2.33,2.33,0,0,1,.791-1.8,2.934,2.934,0,0,1,2.051-.718,2.929,2.929,0,0,1,2.048.721,2.342,2.342,0,0,1,.794,1.811,2.3,2.3,0,0,1-.794,1.784A2.968,2.968,0,0,1-65.15,58.248Zm.012-4.283a2,2,0,0,0-1.424.521,1.657,1.657,0,0,0-.557,1.254,1.638,1.638,0,0,0,.56,1.245,2.009,2.009,0,0,0,1.421.519,2.009,2.009,0,0,0,1.421-.519,1.638,1.638,0,0,0,.56-1.245,1.657,1.657,0,0,0-.557-1.254A2,2,0,0,0-65.139,53.965Zm8.64,3.885v-7.1h5.3v1.705h2.4v-2.7h.873v11.3h-.873V56.174h-2.4V57.85Zm4.441-6.322h-3.568v5.531h3.568Zm.861,3.867h2.4V53.232h-2.4Zm8.064.633v-.779h4.8V53.783H-41.38V50.016h7.02v.779h-6.129V53h6.264v.779h-3.217v1.465h4.8v.779Zm5.244,4.934a5.4,5.4,0,0,1-2.736-.565,1.716,1.716,0,0,1-.949-1.526,1.709,1.709,0,0,1,.952-1.523,5.43,5.43,0,0,1,2.733-.562,5.43,5.43,0,0,1,2.733.563,1.709,1.709,0,0,1,.952,1.523,1.716,1.716,0,0,1-.949,1.526A5.4,5.4,0,0,1-37.888,60.961Zm0-3.434a4.637,4.637,0,0,0-2.057.36,1.092,1.092,0,0,0-.7.981,1.1,1.1,0,0,0,.706.984,4.607,4.607,0,0,0,2.054.363,4.607,4.607,0,0,0,2.054-.363,1.1,1.1,0,0,0,.706-.984,1.092,1.092,0,0,0-.706-.981A4.64,4.64,0,0,0-37.888,57.527Zm14.558,3.527v-11.3h.873v11.3ZM-25.6,50.795a7.864,7.864,0,0,1-1.348,4.31,10.515,10.515,0,0,1-3.744,3.313l-.668-.709a8.373,8.373,0,0,0,3.17-2.355,7.057,7.057,0,0,0,1.652-3.779h-4.359v-.779Zm6.959,3.914V50.086h.861V51.7H-12.4V50.086h.861v4.623Zm6.24-2.244h-5.379v1.477H-12.4Zm-2.256,4.5v4.09h-.879v-4.09h-4.8v-.791H-9.844v.791Zm11.722-.322a2.542,2.542,0,0,1-2.414,1.547,2.475,2.475,0,0,1-2.068-1.031A4.538,4.538,0,0,1-8.2,54.346a4.555,4.555,0,0,1,.776-2.818,2.479,2.479,0,0,1,2.077-1.02,2.536,2.536,0,0,1,2.414,1.535H-.518V49.752H.355v11.3H-.518V56.643Zm-2.414-5.355a1.676,1.676,0,0,0-1.45.832,3.964,3.964,0,0,0-.554,2.227,3.95,3.95,0,0,0,.56,2.227,1.679,1.679,0,0,0,1.444.838A1.679,1.679,0,0,0-3.9,56.566a3.94,3.94,0,0,0,.563-2.221,3.975,3.975,0,0,0-.551-2.232A1.676,1.676,0,0,0-5.346,51.287Zm2.689,4.582H-.518V52.822H-2.657a5.736,5.736,0,0,1,.182,1.523A5.655,5.655,0,0,1-2.657,55.869ZM2.468,59.3v-.779h4.8V55.91H4.243V50.818h6.938V51.6H5.122v3.527h6.24v.785H8.157v2.613h4.8V59.3Zm20.738-5.977a2.536,2.536,0,0,1-.943,1.726,3.045,3.045,0,0,1-1.963.642,2.944,2.944,0,0,1-2.095-.771,2.944,2.944,0,0,1-.006-4.078,2.939,2.939,0,0,1,2.1-.771,3.03,3.03,0,0,1,1.989.662,2.587,2.587,0,0,1,.929,1.8h1.857V49.752h.879V56.1h-.879V53.326ZM20.3,50.842a2.028,2.028,0,0,0-1.482.545,2.3,2.3,0,0,0-.006,3,2.03,2.03,0,0,0,1.488.542,2.046,2.046,0,0,0,1.5-.542,2.3,2.3,0,0,0-.006-3A2.044,2.044,0,0,0,20.3,50.842Zm-1.307,9.9v-4.02h6.984V57.5H19.866v2.461h6.363v.779ZM36.5,56.895l-.85-.076a31.76,31.76,0,0,0,.205-3.445V51.609H29.479v-.791h7.248v2.572A27.706,27.706,0,0,1,36.5,56.895Zm-8.543,2.145v-.791h4.166V54.563h.873v3.686h5.449v.791Zm14.087.264v-.779h4.8V55.91H43.818V50.818h6.938V51.6H44.7v3.527h6.24v.785H47.732v2.613h4.8V59.3Zm16.644-5.168a5.134,5.134,0,0,1-2.663-.571,1.782,1.782,0,0,1,0-3.135,6.493,6.493,0,0,1,5.326,0,1.782,1.782,0,0,1,0,3.135A5.134,5.134,0,0,1,58.686,54.135Zm0-3.533a4.218,4.218,0,0,0-2.013.375,1.114,1.114,0,0,0,0,2.039,5.589,5.589,0,0,0,4.025,0,1.114,1.114,0,0,0,0-2.039A4.218,4.218,0,0,0,58.686,50.6ZM55.171,60.721V57.035h3.07V55.822h-4.8v-.779H63.93v.779h-4.8v1.213H62.2v3.686Zm6.17-2.906H56.032v2.139h5.309Zm3.5,1.488v-.779h4.8V55.91H66.618V50.818h6.938V51.6H67.5v3.527h6.24v.785H70.532v2.613h4.8V59.3Zm22.952-5.818v2.555h-.873V49.752h.873v2.941h1.693v.791Zm-8.2,1.787V50.186h.861v1.881H83.91V50.186h.861v5.086Zm4.318-2.437H80.453V54.5H83.91Zm-3.023,7.91V56.666h6.908v.791H81.759v2.508h6.229v.779Zm14.687-6.961a5.425,5.425,0,0,1-2.684-.542,1.587,1.587,0,0,1,0-2.9,5.4,5.4,0,0,1,2.681-.545,5.469,5.469,0,0,1,2.689.536,1.6,1.6,0,0,1,0,2.909A5.447,5.447,0,0,1,95.573,53.783Zm0-3.287a4.535,4.535,0,0,0-2.01.357.983.983,0,0,0,.006,1.887,4.542,4.542,0,0,0,2,.357,4.484,4.484,0,0,0,2-.363.973.973,0,0,0,0-1.875A4.481,4.481,0,0,0,95.573,50.5Zm-5.244,4.969v-.721h10.488v.721Zm1.693,5.473V58.354h6.229v-1.1H92.023V56.52h7.09v2.52H92.884v1.166h6.527v.732Zm21.933-6.551a7,7,0,0,1-2.648-.946,4.426,4.426,0,0,1-1.646-1.456,4.7,4.7,0,0,1-1.67,1.471,7.792,7.792,0,0,1-2.6,1l-.539-.732a6.462,6.462,0,0,0,3.05-1.116,2.539,2.539,0,0,0,1.315-2.007v-.492h.879V50.6a2.505,2.505,0,0,0,1.289,2,6.257,6.257,0,0,0,3.088,1.069Zm-3.861,2.168v4.5h-.879v-4.5h-4.8v-.779H114.9v.779Zm16.929-.562v-6.24h.879v6.24Zm-4.834-.492a2.872,2.872,0,0,1-2.065-.768,2.748,2.748,0,0,1-.006-3.882,3.188,3.188,0,0,1,4.14,0,2.766,2.766,0,0,1,0,3.888A2.866,2.866,0,0,1,122.189,55.5Zm0-4.67a1.955,1.955,0,0,0-1.441.548,2.093,2.093,0,0,0,0,2.83,2.177,2.177,0,0,0,2.892,0,2.074,2.074,0,0,0,0-2.821A1.961,1.961,0,0,0,122.189,50.83Zm6.393,9.961a4.665,4.665,0,0,1-1.2-.94,4.279,4.279,0,0,1-.85-1.181,4.287,4.287,0,0,1-.835,1.242,4.931,4.931,0,0,1-1.228,1l-.65-.58a4.132,4.132,0,0,0,1.641-1.371,3.282,3.282,0,0,0,.627-1.928v-.492h.867v.492a3.154,3.154,0,0,0,.647,1.91,3.538,3.538,0,0,0,1.632,1.248ZM123.853,60a3.743,3.743,0,0,1-1.459-1.465,5.1,5.1,0,0,1-2.115,2.355l-.674-.557a4.587,4.587,0,0,0,1.7-1.418,3.156,3.156,0,0,0,.645-1.881v-.48h.85v.48a2.421,2.421,0,0,0,.486,1.5,2.5,2.5,0,0,0,1.207.891Zm15.531-6.193a7.081,7.081,0,0,1-2.555-.876,4.758,4.758,0,0,1-1.67-1.427,4.763,4.763,0,0,1-1.655,1.4,6.965,6.965,0,0,1-2.534.894l-.516-.709a5.992,5.992,0,0,0,3.023-1.031q1.236-.879,1.236-1.717v-.381h.867v.381q0,.855,1.236,1.737a5.9,5.9,0,0,0,3.023,1.022Zm-9.48,1.828V54.85h10.488v.785Zm1.729,5.109V56.531h.861v1.406h5.3V56.531h.861v4.213Zm6.158-2.039h-5.3v1.271h5.3Zm12.033,2.35v-11.3h.879v11.3Zm-.861-3.574a40.1,40.1,0,0,1-6.434.264V50.713h.873v6.252h.773a29.271,29.271,0,0,0,4.676-.24ZM161.5,55v6.059h-.873v-11.3h.873v4.453h1.992V55Zm-1.957,2.689q-.961.117-1.963.141t-4.061.023v-7.1H158.8v.779h-4.4V57.07a48.8,48.8,0,0,0,5.074-.141Zm5.113,2.443a.622.622,0,0,1-.46-.193.636.636,0,0,1-.19-.463.646.646,0,0,1,.19-.466.617.617,0,0,1,.46-.2.634.634,0,0,1,.469.2.641.641,0,0,1,.193.466.632.632,0,0,1-.193.463A.638.638,0,0,1,164.654,60.129Z" transform="translate(188 163.152)" fill="#444"/>
    <line id="선_3" data-name="선 3" x2="102" transform="translate(137.5 128.5)" fill="none" stroke="#533aff" stroke-width="2"/>
  </g>
</svg>
