<svg xmlns="http://www.w3.org/2000/svg" width="417.448" height="210.646" viewBox="0 0 417.448 210.646">
  <g id="그룹_17" data-name="그룹 17" transform="translate(-1071 -293)">
    <path id="패스_2" data-name="패스 2" d="M34.83-34.2a2.241,2.241,0,0,1,1.305.4,1.293,1.293,0,0,1,.585,1.125v17.91a1.238,1.238,0,0,1-.585,1.1,2.333,2.333,0,0,1-1.305.383H30.96V-34.2ZM8.01-11.3H36.72V-1.62a2.212,2.212,0,0,1-.4,1.328A1.309,1.309,0,0,1,35.19.27H13.77v2.3H36.72v2.7a2.038,2.038,0,0,1-.428,1.305,1.606,1.606,0,0,1-1.057.63H12.915a2.8,2.8,0,0,1-1.8-.855l-2.3-3.06A5.077,5.077,0,0,1,8.235,2.25,2.9,2.9,0,0,1,8.01,1.125v-5.49H30.96V-6.66H9.585a1.335,1.335,0,0,1-1.17-.585,2.241,2.241,0,0,1-.4-1.3Zm6.075-1.71a10.929,10.929,0,0,1-4.118-.788A11.216,11.216,0,0,1,6.5-15.975a11.012,11.012,0,0,1-2.43-3.285,9.67,9.67,0,0,1-.967-4.1,10.071,10.071,0,0,1,.922-4.027,10.758,10.758,0,0,1,2.363-3.33,11.32,11.32,0,0,1,3.465-2.25,10.8,10.8,0,0,1,4.23-.833,11.1,11.1,0,0,1,4.14.787,11.149,11.149,0,0,1,3.487,2.183,11.012,11.012,0,0,1,2.43,3.285,9.67,9.67,0,0,1,.967,4.1,9.848,9.848,0,0,1-.945,4.028,11.077,11.077,0,0,1-2.385,3.33,11.32,11.32,0,0,1-3.465,2.25A10.8,10.8,0,0,1,14.085-13.005ZM8.325-23.4A4.949,4.949,0,0,0,8.8-21.24a5.1,5.1,0,0,0,1.282,1.688,6.347,6.347,0,0,0,1.845,1.1,5.876,5.876,0,0,0,2.16.4,5.887,5.887,0,0,0,2.227-.427,6.084,6.084,0,0,0,1.845-1.147A5.214,5.214,0,0,0,19.4-21.33a4.947,4.947,0,0,0,.45-2.07,4.528,4.528,0,0,0-.5-2.092,5.73,5.73,0,0,0-1.3-1.688A6.1,6.1,0,0,0,16.2-28.305a6.512,6.512,0,0,0-2.115-.45,5.97,5.97,0,0,0-2.16.5A6.542,6.542,0,0,0,10.1-27.09a5.682,5.682,0,0,0-1.26,1.665A4.935,4.935,0,0,0,8.325-23.4Zm68.22-10.8a2.241,2.241,0,0,1,1.305.4,1.293,1.293,0,0,1,.585,1.125v20.3a1.293,1.293,0,0,1-.585,1.125,2.241,2.241,0,0,1-1.305.4h-3.87v-10.26H66.42a1.293,1.293,0,0,1-1.125-.585A2.241,2.241,0,0,1,64.89-23v-3.33h7.785V-34.2ZM63.09-11.025a19.6,19.6,0,0,1,4.522.585A17.528,17.528,0,0,1,72.18-8.663a11.814,11.814,0,0,1,3.555,3.038,6.953,6.953,0,0,1,1.44,4.41,7.09,7.09,0,0,1-1.1,3.8,10.825,10.825,0,0,1-3.015,3.128A15.264,15.264,0,0,1,68.58,7.83a19.119,19.119,0,0,1-5.49.765,19.437,19.437,0,0,1-4.478-.585,17.064,17.064,0,0,1-4.568-1.8A12.1,12.1,0,0,1,50.49,3.15a6.885,6.885,0,0,1-1.44-4.365,7.09,7.09,0,0,1,1.1-3.8,10.825,10.825,0,0,1,3.015-3.128,15.31,15.31,0,0,1,4.455-2.115A18.89,18.89,0,0,1,63.09-11.025Zm0,14.49a14.619,14.619,0,0,0,3.217-.428,11.252,11.252,0,0,0,2.655-1.013,5.772,5.772,0,0,0,1.8-1.463,2.831,2.831,0,0,0,.653-1.778,3,3,0,0,0-.9-2.205A6.693,6.693,0,0,0,68.31-4.86a12.9,12.9,0,0,0-2.722-.788,14.736,14.736,0,0,0-2.5-.247,13.821,13.821,0,0,0-3.218.36A9.726,9.726,0,0,0,57.24-4.523a5.947,5.947,0,0,0-1.777,1.507,2.923,2.923,0,0,0-.653,1.8,2.925,2.925,0,0,0,.9,2.183,6.948,6.948,0,0,0,2.183,1.418,13.4,13.4,0,0,0,2.7.81A13.548,13.548,0,0,0,63.09,3.465ZM42.885-15.39a2.562,2.562,0,0,1-.653-.968,1.015,1.015,0,0,1,.337-1.012q.9-.855,2.092-2.048t2.408-2.587q1.215-1.395,2.272-2.88A16.414,16.414,0,0,0,51.03-27.81H45.225a1.28,1.28,0,0,1-1.125-.607,2.275,2.275,0,0,1-.4-1.283v-3.33h21.87v3.33a2.718,2.718,0,0,1-.428,1.283,1.227,1.227,0,0,1-1.1.607h-5.9a17.235,17.235,0,0,0,1.643,2.97,33.593,33.593,0,0,0,2.16,2.835q1.148,1.35,2.34,2.542t2.137,2.048a1.376,1.376,0,0,1,.45.99,1.451,1.451,0,0,1-.585,1.125L64.35-13.5a4.028,4.028,0,0,1-.5.36.944.944,0,0,1-.5.135,1.323,1.323,0,0,1-1.035-.54q-2.115-2.025-4.14-4.3a42.535,42.535,0,0,1-3.645-4.7A39.828,39.828,0,0,1,50.805-17.8Q48.69-15.48,46.62-13.5a1.648,1.648,0,0,1-1.035.45,1.3,1.3,0,0,1-.9-.45Zm72.99-8.01h5.445v3.33a2.159,2.159,0,0,1-.427,1.3,1.309,1.309,0,0,1-1.1.585h-3.915v8.955a1.325,1.325,0,0,1-.562,1.1,2.131,2.131,0,0,1-1.327.428h-3.87V-34.2h3.87a2.131,2.131,0,0,1,1.327.427,1.325,1.325,0,0,1,.563,1.1ZM85.5-28.935a1.325,1.325,0,0,1-1.1-.563,2.131,2.131,0,0,1-.427-1.327v-3.33h16.38a2.8,2.8,0,0,1,1.89.81l3.06,3.06a2.8,2.8,0,0,1,.81,1.89v8.91a1.32,1.32,0,0,1-.607,1.17,2.275,2.275,0,0,1-1.283.4h-3.87V-28.935ZM91.755,1.98h22.95V5.265a2.228,2.228,0,0,1-.427,1.35,1.309,1.309,0,0,1-1.1.585H91.755a2.542,2.542,0,0,1-1.845-.81L86.85,3.825A2.624,2.624,0,0,1,86,1.935V-8.415h3.87a2.275,2.275,0,0,1,1.283.4,1.28,1.28,0,0,1,.607,1.125ZM108-12.6a2.241,2.241,0,0,1-.4,1.3,1.253,1.253,0,0,1-1.08.585H83.61a1.325,1.325,0,0,1-1.1-.563A2.131,2.131,0,0,1,82.08-12.6v-3.33h7.695v-7.74H93.6a2.228,2.228,0,0,1,1.35.428,1.309,1.309,0,0,1,.585,1.1v6.21H108Zm48.285-21.6a2.228,2.228,0,0,1,1.35.427,1.309,1.309,0,0,1,.585,1.1V2.97a1.763,1.763,0,0,1-.585,1.26l-1.283,1.283L155.07,6.8a1.791,1.791,0,0,1-1.17.4h-1.44V-34.2Zm-31.14,2.43H146.07v15.7a2.131,2.131,0,0,1-.428,1.327,1.325,1.325,0,0,1-1.1.563H130.9V-7.02H146.07v3.33a2.159,2.159,0,0,1-.428,1.3,1.309,1.309,0,0,1-1.1.585H130.9a2.721,2.721,0,0,1-1.845-.765l-3.1-3.15a2.309,2.309,0,0,1-.81-1.8V-19.4H140.31V-26.55H126.675a1.309,1.309,0,0,1-1.1-.585,2.159,2.159,0,0,1-.428-1.3Z" transform="translate(1070.615 384.152)" fill="#3f3f3f"/>
    <path id="패스_3" data-name="패스 3" d="M10.434-9.944A3.606,3.606,0,0,1,9.089-7.55a4.217,4.217,0,0,1-2.714.9,4,4,0,0,1-2.905-1.1,3.664,3.664,0,0,1-1.137-2.739,3.671,3.671,0,0,1,1.129-2.727,3.983,3.983,0,0,1,2.914-1.108,4.205,4.205,0,0,1,2.706.9,3.562,3.562,0,0,1,1.336,2.378h2.756V-14.5h1.245v8.043H13.173V-9.944ZM6.375-13.256a2.765,2.765,0,0,0-2.038.78,2.68,2.68,0,0,0-.784,1.984,2.727,2.727,0,0,0,.776,2.009,2.758,2.758,0,0,0,2.046.78,2.78,2.78,0,0,0,2.063-.78,2.727,2.727,0,0,0,.776-2.009,2.68,2.68,0,0,0-.784-1.984A2.786,2.786,0,0,0,6.375-13.256ZM4.541,1.121v-6.7h1.22v2.432H13.19V-5.578h1.229v6.7ZM13.19-2.059H5.761V.017H13.19Zm6.5-5.694v-6.184H29.6v6.184Zm8.691-5.08H20.906v3.976h7.471Zm-3.1,8.342V1.494H24.019V-4.491h-6.8v-1.1H32.079v1.1ZM45.44,1.494V-14.518h1.245V1.494ZM42.311-2.565a13.351,13.351,0,0,1-2.519-2.586A8.6,8.6,0,0,1,38.3-7.836a9.735,9.735,0,0,1-1.519,2.864,12.7,12.7,0,0,1-2.474,2.606l-.955-.83A9.951,9.951,0,0,0,36.5-6.587a8.428,8.428,0,0,0,1.17-4.2v-2.623H38.9v2.565A7.961,7.961,0,0,0,40.057-6.79a9.574,9.574,0,0,0,3.125,3.254ZM62.063-8.292v5.47H60.826v-11.7h1.237V-9.4h2.416v1.112ZM57.78-13.547A8.787,8.787,0,0,1,55.24-8a13.316,13.316,0,0,1-4.682,3.217L49.7-5.744a11.169,11.169,0,0,0,4.3-2.681,7.334,7.334,0,0,0,2.324-4H50.658v-1.121ZM52.326.863V-4.009h1.237V-.257h8.948V.863ZM81.036-7.072H78.421V1.494H77.159V-14.518H78.4v6.342h2.631Zm-6.267-5.935q0,4.657-.307,8.226l-1.212-.083q.1-.88.187-3.308t.087-3.731h-6.8v-1.1Zm1.3,11.239q-4.333.241-10.725.241l-.116-1.087q.855,0,4.009-.042V-8.193h1.245v5.52l5.5-.166ZM94.991-9.944A3.606,3.606,0,0,1,93.646-7.55a4.217,4.217,0,0,1-2.714.9,4,4,0,0,1-2.905-1.1,3.664,3.664,0,0,1-1.137-2.739,3.671,3.671,0,0,1,1.129-2.727,3.983,3.983,0,0,1,2.914-1.108,4.205,4.205,0,0,1,2.706.9,3.562,3.562,0,0,1,1.336,2.378H97.73V-14.5h1.245v8.043H97.73V-9.944Zm-4.059-3.312a2.765,2.765,0,0,0-2.038.78,2.68,2.68,0,0,0-.784,1.984,2.727,2.727,0,0,0,.776,2.009,2.758,2.758,0,0,0,2.046.78,2.78,2.78,0,0,0,2.063-.78,2.727,2.727,0,0,0,.776-2.009,2.68,2.68,0,0,0-.784-1.984A2.786,2.786,0,0,0,90.932-13.256ZM89.1,1.121v-6.7h1.22v2.432h7.429V-5.578h1.229v6.7Zm8.649-3.179H90.317V.017h7.429Zm6.5-5.694v-6.184h9.911v6.184Zm8.691-5.08h-7.471v3.976h7.471Zm-3.1,8.342V1.494h-1.262V-4.491h-6.8v-1.1h14.858v1.1ZM133.9,1.494V-14.518h1.245V1.494Zm-5.794-7.155v3.2q3.727-.091,4.848-.166l.066,1.071q-4.6.266-10.949.266l-.116-1.1q2.623,0,4.889-.05v-3.2a4.243,4.243,0,0,1-2.7-1.241,3.606,3.606,0,0,1-1-2.586,3.5,3.5,0,0,1,1.241-2.764,4.568,4.568,0,0,1,3.109-1.079,4.368,4.368,0,0,1,3.034,1.063,3.561,3.561,0,0,1,1.183,2.781,3.583,3.583,0,0,1-.967,2.544A4.286,4.286,0,0,1,128.109-5.661Zm-.7-6.566a3.063,3.063,0,0,0-2.146.768,2.566,2.566,0,0,0-.843,1.988,2.579,2.579,0,0,0,.838,1.98,3.04,3.04,0,0,0,2.15.776,3.1,3.1,0,0,0,2.175-.78,2.559,2.559,0,0,0,.855-1.976,2.546,2.546,0,0,0-.859-1.984A3.126,3.126,0,0,0,127.412-12.227ZM153.76,1.494V-14.518h1.245V1.494Zm-3.129-4.059a13.35,13.35,0,0,1-2.519-2.586,8.6,8.6,0,0,1-1.49-2.685A9.736,9.736,0,0,1,145.1-4.972a12.7,12.7,0,0,1-2.474,2.606l-.955-.83a9.951,9.951,0,0,0,3.146-3.391,8.428,8.428,0,0,0,1.17-4.2v-2.623h1.229v2.565a7.961,7.961,0,0,0,1.158,4.059A9.574,9.574,0,0,0,151.5-3.536Zm19.753-5.728v5.47h-1.237v-11.7h1.237V-9.4H172.8v1.112ZM166.1-13.547A8.787,8.787,0,0,1,163.56-8a13.316,13.316,0,0,1-4.682,3.217l-.863-.963a11.169,11.169,0,0,0,4.3-2.681,7.334,7.334,0,0,0,2.324-4h-5.661v-1.121ZM160.647.863V-4.009h1.237V-.257h8.948V.863Zm29.528-13.887v7.247h-4.316v3.735h6.8V-.921H177.8V-2.042h6.8V-5.777h-4.333v-7.247Zm-1.245,6.118v-5h-7.4v5Zm7.418-.979v-6.051h10.061v1.1h-8.824V-8.99h9.081v1.1Zm5.661,3.329V1.478h-1.262V-4.557h-6.8v-1.1h14.858v1.1Zm13.208-6.749v-1.087h5.5v-1.959h1.229v1.959h5.5v1.087ZM213.9-.921v-1.1h4.009V-5a2.644,2.644,0,0,1-1.834-2.432,2.51,2.51,0,0,1,1.378-2.179,7.392,7.392,0,0,1,3.876-.851,7.346,7.346,0,0,1,3.868.851,2.512,2.512,0,0,1,1.37,2.179A2.685,2.685,0,0,1,224.754-5v2.972h4.009v1.1ZM221.334-9.4a6.323,6.323,0,0,0-2.914.54,1.615,1.615,0,0,0-1.013,1.436,1.631,1.631,0,0,0,1.021,1.444,6.249,6.249,0,0,0,2.905.548,6.2,6.2,0,0,0,2.9-.548,1.631,1.631,0,0,0,1.013-1.444,1.615,1.615,0,0,0-1.009-1.436A6.273,6.273,0,0,0,221.334-9.4ZM219.159-4.59v2.565h4.35V-4.59a10.593,10.593,0,0,1-2.175.208A10.441,10.441,0,0,1,219.159-4.59Zm18.325-4.217a7.686,7.686,0,0,1-3.8-.768,2.31,2.31,0,0,1-1.328-2.054,2.313,2.313,0,0,1,1.332-2.05,7.655,7.655,0,0,1,3.8-.772,7.748,7.748,0,0,1,3.81.76,2.305,2.305,0,0,1,1.32,2.063,2.308,2.308,0,0,1-1.324,2.059A7.717,7.717,0,0,1,237.484-8.807Zm0-4.657a6.425,6.425,0,0,0-2.847.506,1.508,1.508,0,0,0-1,1.328,1.518,1.518,0,0,0,1,1.345,6.434,6.434,0,0,0,2.839.506,6.353,6.353,0,0,0,2.831-.515,1.526,1.526,0,0,0,1.013-1.336,1.518,1.518,0,0,0-1.009-1.32A6.348,6.348,0,0,0,237.484-13.464Zm-5.03,14.792V-2.241h8.824V-3.727h-8.824V-4.74h1.868v-1.7h-4.267V-7.479h14.858v1.038h-4.267v1.7H242.5v3.478h-8.824V.291h9.247V1.328Zm6.964-6.068v-1.7H235.55v1.7Zm18.69-.548V-9.795h-3.827v-1.121h3.827v-3.6h1.237v9.23ZM254.837-6.1a10.5,10.5,0,0,1-2.187-1.631,6.887,6.887,0,0,1-1.531-1.955,8.06,8.06,0,0,1-1.561,2.2,9.083,9.083,0,0,1-2.25,1.793l-.88-.847a7.769,7.769,0,0,0,2.9-2.386,5.326,5.326,0,0,0,1.146-3.225V-12.7h-3.52v-1.1h8.243v1.1h-3.52v.548a4.725,4.725,0,0,0,1.191,3.03,7.084,7.084,0,0,0,2.81,2.117Zm3.271,7.6V-3.279h-9.181v-1.1h10.417V1.494Zm6.305-10.932a3.32,3.32,0,0,1,1.478-2.868,6.62,6.62,0,0,1,3.893-1.042,6.589,6.589,0,0,1,3.876,1.042,3.32,3.32,0,0,1,1.478,2.868,3.394,3.394,0,0,1-1.473,2.9,6.471,6.471,0,0,1-3.881,1.067,6.524,6.524,0,0,1-3.893-1.062A3.388,3.388,0,0,1,264.413-9.438Zm1.287,0a2.409,2.409,0,0,0,1.112,2.088,5.143,5.143,0,0,0,2.972.768,5.091,5.091,0,0,0,2.951-.768,2.411,2.411,0,0,0,1.108-2.088A2.374,2.374,0,0,0,272.73-11.5a5.137,5.137,0,0,0-2.947-.76,5.212,5.212,0,0,0-2.968.755A2.369,2.369,0,0,0,265.7-9.438ZM262.354-1V-2.1h14.858V-1ZM280.746-9.67h9.064v-2.366h-9.031v-1.087h10.268V-8.6h-9.04v2.648h9.5v1.1h-4.947v2.914h6.8v1.1H278.5v-1.1h6.815V-4.848h-4.574Zm18.263-2.5V-13.19H303.1v-1.494h1.245v1.494h4.092v1.021Zm12.235,3.876v3.229h-1.237v-9.455h1.237v5.1h2.4v1.129ZM298.636-5.254l-.125-1.021q1.121,0,4.59-.066v-1.1a5.208,5.208,0,0,1-2.482-.664,1.638,1.638,0,0,1-.88-1.395,1.7,1.7,0,0,1,1.063-1.482,6.193,6.193,0,0,1,2.93-.577,6.1,6.1,0,0,1,2.922.581A1.7,1.7,0,0,1,307.708-9.5a1.622,1.622,0,0,1-.884,1.411,5.4,5.4,0,0,1-2.494.647v1.071q2.64-.042,4.482-.166l.125.979q-1.37.108-5.138.208T298.636-5.254Zm5.1-5.371q-2.739,0-2.739,1.121t2.739,1.121q2.723,0,2.723-1.121T303.732-10.625ZM301.3,1.361V-1.992h8.724V-3.229H301.3V-4.25h9.944v3.229H302.52V.34h9.164V1.361ZM318.587-8.973a2.536,2.536,0,0,1-1.627-2.366,2.425,2.425,0,0,1,1.32-2.2,7.486,7.486,0,0,1,3.76-.776,7.486,7.486,0,0,1,3.76.776,2.425,2.425,0,0,1,1.32,2.2,2.5,2.5,0,0,1-1.644,2.366V-6.7h3.993v1.1H314.611V-6.7h3.976Zm3.453-4.283q-3.793,0-3.793,1.917a1.554,1.554,0,0,0,.942,1.411,6.228,6.228,0,0,0,2.851.506,6.228,6.228,0,0,0,2.851-.506,1.554,1.554,0,0,0,.942-1.411Q325.834-13.256,322.04-13.256ZM319.832-6.7h4.4V-8.566a10.5,10.5,0,0,1-2.191.2,10.751,10.751,0,0,1-2.208-.216Zm2.208,8.11a7.5,7.5,0,0,1-3.814-.789,2.422,2.422,0,0,1-1.316-2.167,2.441,2.441,0,0,1,1.324-2.187,9.533,9.533,0,0,1,7.612,0,2.441,2.441,0,0,1,1.324,2.187A2.422,2.422,0,0,1,325.855.623,7.5,7.5,0,0,1,322.04,1.411Zm0-4.881a6.309,6.309,0,0,0-2.872.515,1.565,1.565,0,0,0-.971,1.411,1.54,1.54,0,0,0,.967,1.4,6.441,6.441,0,0,0,2.876.5,6.445,6.445,0,0,0,2.872-.5,1.54,1.54,0,0,0,.971-1.4,1.562,1.562,0,0,0-.975-1.415A6.358,6.358,0,0,0,322.04-3.47Zm8.837-8.5v-1.054h4.117v-1.751h1.237v1.751h4.134v1.054ZM343.3-8.708v3.113h-1.237v-8.923H343.3v4.723h2.416v1.087Zm-7.695,2.772a5.243,5.243,0,0,1-2.909-.693,2.127,2.127,0,0,1-1.05-1.855,2.147,2.147,0,0,1,1.042-1.868,5.246,5.246,0,0,1,2.934-.7,5.2,5.2,0,0,1,2.93.706A2.151,2.151,0,0,1,339.6-8.483a2.126,2.126,0,0,1-1.058,1.851A5.3,5.3,0,0,1,335.609-5.935Zm.017-4.125a3.98,3.98,0,0,0-2.013.427,1.292,1.292,0,0,0-.726,1.15,1.256,1.256,0,0,0,.739,1.133,4.127,4.127,0,0,0,2,.411,4.014,4.014,0,0,0,1.992-.415,1.261,1.261,0,0,0,.722-1.129,1.3,1.3,0,0,0-.71-1.146A3.874,3.874,0,0,0,335.625-10.061ZM333.484,1.345V-2.241h8.6V-3.636h-8.6V-4.707h9.82V-1.22h-8.6V.291h9.031V1.345Zm30.748-9.3a9.924,9.924,0,0,1-3.752-1.341,6.271,6.271,0,0,1-2.333-2.063,6.651,6.651,0,0,1-2.366,2.083A11.039,11.039,0,0,1,352.1-7.853l-.764-1.038a9.154,9.154,0,0,0,4.321-1.581,3.6,3.6,0,0,0,1.864-2.843v-.7h1.245v.7a3.549,3.549,0,0,0,1.826,2.826,8.864,8.864,0,0,0,4.375,1.515Zm-5.47,3.071V1.494h-1.245V-4.881h-6.8v-1.1h14.858v1.1Zm23.983-.8v-8.84h1.245v8.84Zm-6.848-.7a4.069,4.069,0,0,1-2.926-1.087,3.643,3.643,0,0,1-1.141-2.756,3.633,3.633,0,0,1,1.133-2.743,4.071,4.071,0,0,1,2.934-1.083,4.065,4.065,0,0,1,2.93,1.079,3.636,3.636,0,0,1,1.129,2.748,3.653,3.653,0,0,1-1.133,2.76A4.06,4.06,0,0,1,375.9-6.375Zm0-6.616a2.77,2.77,0,0,0-2.042.776,2.7,2.7,0,0,0-.78,2,2.716,2.716,0,0,0,.78,2.013,2.77,2.77,0,0,0,2.042.776,2.786,2.786,0,0,0,2.054-.78,2.711,2.711,0,0,0,.784-2.009,2.694,2.694,0,0,0-.784-1.988A2.778,2.778,0,0,0,375.9-12.991Zm9.056,14.111a6.609,6.609,0,0,1-1.7-1.332,6.062,6.062,0,0,1-1.2-1.673,6.074,6.074,0,0,1-1.183,1.76,6.986,6.986,0,0,1-1.739,1.419L378.2.473a5.854,5.854,0,0,0,2.324-1.942,4.65,4.65,0,0,0,.888-2.731v-.7h1.229v.7a4.468,4.468,0,0,0,.917,2.706A5.012,5.012,0,0,0,385.873.274ZM378.253,0a5.3,5.3,0,0,1-2.067-2.075,7.225,7.225,0,0,1-3,3.337l-.955-.789a6.5,6.5,0,0,0,2.407-2.009,4.472,4.472,0,0,0,.913-2.665v-.681h1.2V-4.2a3.43,3.43,0,0,0,.689,2.125,3.547,3.547,0,0,0,1.71,1.262Zm8.571-.988v-1.1h6.8v-3.7H389.34v-7.213h9.828v1.1h-8.583v5h8.84v1.112h-4.541v3.7h6.8v1.1ZM402.975-5V-6.084h6.8V-7.836h-4.3V-11.58h8.633v-1.494h-8.633v-1.087h9.861v3.652H406.7v1.585h9.006v1.087h-4.673v1.751h6.8V-5Zm11.173,6.491V-2.333h-9.064V-3.453h10.3V1.494ZM13.431,23.774V20.446H11.563v3.329H10.334V15.806h1.229v3.536h1.868v-3.86h1.237v8.292Zm-8.193-.315A3.6,3.6,0,0,1,1.6,19.7a3.606,3.606,0,0,1,3.636-3.777A3.606,3.606,0,0,1,8.874,19.7a3.6,3.6,0,0,1-3.636,3.76Zm0-6.466a2.382,2.382,0,0,0-1.743.718A2.678,2.678,0,0,0,2.772,19.7,2.63,2.63,0,0,0,3.5,21.67a2.4,2.4,0,0,0,1.739.71,2.4,2.4,0,0,0,1.739-.71A2.63,2.63,0,0,0,7.7,19.7a2.678,2.678,0,0,0-.722-1.988A2.382,2.382,0,0,0,5.238,16.993Zm-.6,14.062V24.663H5.869v2.324h7.579V24.663h1.22v6.392Zm8.807-2.972H5.869v1.884h7.579Zm19.924,3.412V23.542H31.262V31H30.017v-15.2h1.245v6.632h2.108V15.482h1.237V31.494ZM29.1,26.655a49.111,49.111,0,0,1-6.815.266V16.793h1.237v9.023a46.321,46.321,0,0,0,5.454-.232Zm20.317,4.839V15.482h1.237V31.494Zm-6.807-7.155A4.364,4.364,0,0,1,39.6,23.251a3.665,3.665,0,0,1-.008-5.454,4.694,4.694,0,0,1,6.039.008,3.665,3.665,0,0,1,0,5.449A4.367,4.367,0,0,1,42.615,24.339Zm0-6.541a3.031,3.031,0,0,0-2.108.764,2.663,2.663,0,0,0,.021,3.914,3.277,3.277,0,0,0,4.2,0,2.685,2.685,0,0,0,.008-3.922A3.062,3.062,0,0,0,42.615,17.8ZM37.327,28.589l-.116-1.071q2.142,0,5.981-.083t5.1-.191l.075,1.071q-1.3.108-5.142.191T37.327,28.589ZM69.2,23.725V15.482h1.262v8.243Zm-6.715-.573a4.147,4.147,0,0,1-2.934-1.042,3.456,3.456,0,0,1-1.125-2.652,3.421,3.421,0,0,1,1.125-2.635,4.675,4.675,0,0,1,5.869,0,3.637,3.637,0,0,1,0,5.279A4.159,4.159,0,0,1,62.488,23.152Zm0-6.292a2.9,2.9,0,0,0-2.059.71,2.455,2.455,0,0,0-.764,1.888,2.519,2.519,0,0,0,.764,1.913,3.28,3.28,0,0,0,4.117,0,2.519,2.519,0,0,0,.764-1.913,2.455,2.455,0,0,0-.764-1.888A2.9,2.9,0,0,0,62.488,16.86Zm-1.9,14.261V27.244h8.649V25.717H60.587v-1.1h9.878v3.7H61.808v1.7h9.1v1.1Zm24.766-6.392V20.188H81.618v-1.1h3.735v-3.6H86.6v9.247Zm-3.437-.913a10.083,10.083,0,0,1-2.183-1.652A7.2,7.2,0,0,1,78.2,20.172a8.479,8.479,0,0,1-1.577,2.237,9.341,9.341,0,0,1-2.233,1.814l-.88-.855a7.678,7.678,0,0,0,2.88-2.382,5.408,5.408,0,0,0,1.162-3.279V17.3h-3.52V16.2h8.243v1.1h-3.52v.407a4.79,4.79,0,0,0,1.2,3.071,7.163,7.163,0,0,0,2.8,2.133Zm-.232,7.446a7.228,7.228,0,0,1-3.872-.867,2.524,2.524,0,0,1,0-4.482,7.28,7.28,0,0,1,3.876-.859,7.28,7.28,0,0,1,3.876.859,2.524,2.524,0,0,1,0,4.482A7.228,7.228,0,0,1,81.685,31.262Zm0-5.155a5.921,5.921,0,0,0-2.905.577,1.573,1.573,0,0,0,0,2.934,7.649,7.649,0,0,0,5.8,0,1.577,1.577,0,0,0,.008-2.943A5.957,5.957,0,0,0,81.685,26.107Zm20.466-3.586v4.9h-1.245V15.482h1.245V21.4h2.4v1.121Zm-3.5-5.952a52.007,52.007,0,0,1-.257,5.595l-1.2-.083a44.117,44.117,0,0,0,.224-4.408H90.679v-1.1ZM99.736,24.5q-1.121.091-4.727.183t-5.557.091l-.116-1.1q2.125,0,3.943-.05V20.072h1.237v3.536q3.1-.042,5.155-.174Zm-7.579,6.45V26.331h1.237v3.52h9.181v1.1Zm25.331.54V15.482h1.237V31.494Zm-10.7-3.453v-6.35h6.093V18h-6.093v-1.1h7.33v5.869h-6.084v4.175a49.735,49.735,0,0,0,7.628-.34l.141,1.071A64.686,64.686,0,0,1,106.788,28.041Zm30.656,3.453V15.482h1.237V31.494Zm-3.212-14.535a11.14,11.14,0,0,1-1.909,6.105,14.9,14.9,0,0,1-5.3,4.694l-.946-1a11.862,11.862,0,0,0,4.491-3.337,10,10,0,0,0,2.341-5.354h-6.176v-1.1Zm10.132,3.959v-5.1H145.6v3.993h8.774v1.1Zm-2.673,2.855v-1.1h14.858v1.1Zm7.429,7.521a7.668,7.668,0,0,1-3.864-.8,2.421,2.421,0,0,1,0-4.35,9.72,9.72,0,0,1,7.728,0,2.421,2.421,0,0,1,0,4.35A7.668,7.668,0,0,1,149.12,31.295Zm0-4.9a6.477,6.477,0,0,0-2.914.519,1.485,1.485,0,0,0-.008,2.8,8.413,8.413,0,0,0,5.84,0,1.487,1.487,0,0,0,0-2.806A6.523,6.523,0,0,0,149.12,26.4Zm16.15-5.2a7.686,7.686,0,0,1-3.8-.768,2.248,2.248,0,0,1,0-4.1,7.655,7.655,0,0,1,3.8-.772,7.748,7.748,0,0,1,3.81.76,2.267,2.267,0,0,1,0,4.121A7.717,7.717,0,0,1,165.27,21.193Zm0-4.657a6.425,6.425,0,0,0-2.847.506,1.393,1.393,0,0,0,.008,2.673,6.434,6.434,0,0,0,2.839.506,6.353,6.353,0,0,0,2.831-.515,1.526,1.526,0,0,0,1.013-1.336,1.518,1.518,0,0,0-1.009-1.32A6.348,6.348,0,0,0,165.27,16.536Zm-7.429,7.039V22.554H172.7v1.021Zm2.4,7.753V27.667h8.824V26.107H160.24V25.069h10.044v3.569H161.46v1.652h9.247v1.038Zm30.017-8.234v8.4H189.02V15.482h1.237V21.99h2.772v1.1Zm-3.586,4.341a13.161,13.161,0,0,1-2.507-2.577,9.17,9.17,0,0,1-1.5-2.694A9.785,9.785,0,0,1,181.168,25a12.808,12.808,0,0,1-2.482,2.635l-.955-.83a10.013,10.013,0,0,0,3.129-3.391,8.428,8.428,0,0,0,1.17-4.2V16.586h1.237v2.565a7.945,7.945,0,0,0,1.158,4.067,9.627,9.627,0,0,0,3.117,3.246Zm11.253-6.408a2.536,2.536,0,0,1-1.627-2.366,2.425,2.425,0,0,1,1.32-2.2,9.5,9.5,0,0,1,7.521,0,2.425,2.425,0,0,1,1.32,2.2,2.5,2.5,0,0,1-1.644,2.366V23.3h3.993v1.1H193.948V23.3h3.976Zm3.453-4.283q-3.793,0-3.793,1.917a1.554,1.554,0,0,0,.942,1.411,8.281,8.281,0,0,0,5.7,0,1.554,1.554,0,0,0,.942-1.411Q205.17,16.744,201.377,16.744ZM199.169,23.3h4.4V21.434a10.5,10.5,0,0,1-2.191.2,10.751,10.751,0,0,1-2.208-.216Zm2.208,8.11a7.5,7.5,0,0,1-3.814-.789,2.455,2.455,0,0,1,.008-4.354,9.533,9.533,0,0,1,7.612,0,2.455,2.455,0,0,1,.008,4.354A7.5,7.5,0,0,1,201.377,31.411Zm0-4.881a6.309,6.309,0,0,0-2.872.515,1.565,1.565,0,0,0-.971,1.411,1.54,1.54,0,0,0,.967,1.4,8.476,8.476,0,0,0,5.748,0,1.54,1.54,0,0,0,.971-1.4,1.562,1.562,0,0,0-.975-1.415A6.358,6.358,0,0,0,201.377,26.53Zm21.247,4.964V23.965h-1.9v7.022H219.5v-15.2h1.22v7.072h1.9V15.482h1.245V31.494ZM210.131,19.458v-1.1h3.553V15.872h1.245v2.482h3.553v1.1Zm4.217,8.16a3.519,3.519,0,0,1-2.54-.992,3.613,3.613,0,0,1,0-5.047,3.731,3.731,0,0,1,5.076-.008,3.644,3.644,0,0,1,0,5.063A3.511,3.511,0,0,1,214.348,27.618Zm0-5.952a2.277,2.277,0,0,0-1.722.689,2.637,2.637,0,0,0,0,3.495,2.5,2.5,0,0,0,3.428,0,2.623,2.623,0,0,0,0-3.5A2.291,2.291,0,0,0,214.348,21.666Zm19.96,2.88v3.445h6.8v1.1H226.248v-1.1h6.8V24.546h-4.4V16.86h1.237v2.772h7.587V16.86h1.22v7.687Zm3.163-3.793h-7.587v2.665h7.587Zm17.237,10.741V15.482h1.237V31.494ZM251.8,31V22.1h-2.789v-1.1H251.8V15.806h1.22V31Zm-2.2-3.262a11.492,11.492,0,0,1-3-5.005,9.3,9.3,0,0,1-1.208,2.689,12.7,12.7,0,0,1-2,2.532l-.971-.78a8.365,8.365,0,0,0,2.5-3.15A9.31,9.31,0,0,0,246,19.815V16.652h1.229v3.179a8.957,8.957,0,0,0,.975,3.984,9.382,9.382,0,0,0,2.337,3.121Zm8.945,1.22v-1.1h3.843V23.774a3.4,3.4,0,0,1-1.818-3.138,3.366,3.366,0,0,1,1.49-2.926,7.865,7.865,0,0,1,7.823,0,3.375,3.375,0,0,1,1.478,2.926,3.4,3.4,0,0,1-1.8,3.138v4.084h3.843v1.1Zm3.312-8.326a2.392,2.392,0,0,0,1.133,2.1,5.272,5.272,0,0,0,2.984.76,5.209,5.209,0,0,0,2.976-.764,2.518,2.518,0,0,0-.008-4.2,6.114,6.114,0,0,0-5.948,0A2.42,2.42,0,0,0,261.86,20.637Zm1.768,3.652v3.569h4.7V24.289a8.009,8.009,0,0,1-2.349.307A8.789,8.789,0,0,1,263.628,24.289Zm11.85,5.894a.881.881,0,0,1-.652-.274.9.9,0,0,1-.27-.656.916.916,0,0,1,.27-.66.875.875,0,0,1,.652-.278.9.9,0,0,1,.664.278.908.908,0,0,1,.274.66.9.9,0,0,1-.274.656A.9.9,0,0,1,275.478,30.183ZM12.974,56.871V45.482h1.237V56.871ZM10.2,55a9.111,9.111,0,0,1-2.324-1.561,7.193,7.193,0,0,1-1.6-1.942,7.838,7.838,0,0,1-1.668,2.191A9.377,9.377,0,0,1,2.333,55.36l-.921-.955a6.949,6.949,0,0,0,2.922-2.05,4.367,4.367,0,0,0,1.295-2.789V48.454H1.917v-1.1H5.645V45.5H6.881V47.35h3.694v1.1H6.881v1.112a3.921,3.921,0,0,0,1.312,2.615,6.34,6.34,0,0,0,2.822,1.8ZM4.35,60.971V55.883H5.611v4h9.023v1.087Zm19.537.523V54.082H17.221V52.961H28.352q.191-1.967.191-5.678H19.636v-1.1H29.78q0,4.109-.232,6.782h2.532v1.121H25.123v7.413Zm22.234-8.4v8.4H44.884V45.482h1.237V51.99h2.615v1.1Zm-6.989,1.229v3.129q3.453-.083,4.731-.174l.066,1.071q-1.121.091-4.889.183t-5.736.091l-.141-1.1q2.54,0,4.731-.05V54.339a4.171,4.171,0,0,1-2.689-1.249,3.639,3.639,0,0,1-.988-2.577,3.5,3.5,0,0,1,1.237-2.772,4.55,4.55,0,0,1,3.088-1.071,4.272,4.272,0,0,1,2.992,1.063,3.894,3.894,0,0,1,.212,5.333A4.244,4.244,0,0,1,39.132,54.322Zm-.681-6.566a3.012,3.012,0,0,0-2.129.764,2.8,2.8,0,0,0,0,3.976,3,3,0,0,0,2.125.772,3.029,3.029,0,0,0,2.142-.776,2.776,2.776,0,0,0,.008-3.968A3.041,3.041,0,0,0,38.451,47.756ZM61.764,61.494V45.482H63V61.494Zm-6.807-7.155a4.365,4.365,0,0,1-3.013-1.087,3.665,3.665,0,0,1-.008-5.454,4.694,4.694,0,0,1,6.039.008,3.665,3.665,0,0,1,0,5.449A4.367,4.367,0,0,1,54.958,54.339Zm0-6.541a3.031,3.031,0,0,0-2.108.764,2.663,2.663,0,0,0,.021,3.914,3.277,3.277,0,0,0,4.2,0,2.685,2.685,0,0,0,.008-3.922A3.062,3.062,0,0,0,54.958,47.8ZM49.67,58.589l-.116-1.071q2.142,0,5.981-.083t5.1-.191l.075,1.071q-1.3.108-5.142.191T49.67,58.589Zm31.877-4.864V45.482h1.262v8.243Zm-6.715-.573A4.147,4.147,0,0,1,71.9,52.11a3.456,3.456,0,0,1-1.125-2.652A3.421,3.421,0,0,1,71.9,46.823a4.675,4.675,0,0,1,5.869,0,3.637,3.637,0,0,1,0,5.279A4.159,4.159,0,0,1,74.832,53.152Zm0-6.292a2.9,2.9,0,0,0-2.059.71,2.455,2.455,0,0,0-.764,1.888,2.519,2.519,0,0,0,.764,1.913,3.28,3.28,0,0,0,4.117,0,2.519,2.519,0,0,0,.764-1.913,2.455,2.455,0,0,0-.764-1.888A2.9,2.9,0,0,0,74.832,46.86Zm-1.9,14.261V57.244H81.58V55.717H72.931v-1.1h9.878v3.7H74.151v1.7h9.1v1.1ZM97.7,54.729V50.188H93.962v-1.1H97.7v-3.6h1.245v9.247Zm-3.437-.913a10.083,10.083,0,0,1-2.183-1.652,7.2,7.2,0,0,1-1.536-1.992,8.479,8.479,0,0,1-1.577,2.237,9.341,9.341,0,0,1-2.233,1.814l-.88-.855a7.678,7.678,0,0,0,2.88-2.382,5.408,5.408,0,0,0,1.162-3.279V47.3h-3.52V46.2h8.243v1.1H91.1v.407a4.79,4.79,0,0,0,1.2,3.071,7.163,7.163,0,0,0,2.8,2.133Zm-.232,7.446a7.228,7.228,0,0,1-3.872-.867,2.524,2.524,0,0,1,0-4.482,9.175,9.175,0,0,1,7.753,0,2.524,2.524,0,0,1,0,4.482A7.228,7.228,0,0,1,94.028,61.262Zm0-5.155a5.921,5.921,0,0,0-2.905.577,1.573,1.573,0,0,0,0,2.934,7.649,7.649,0,0,0,5.8,0,1.577,1.577,0,0,0,.008-2.943A5.957,5.957,0,0,0,94.028,56.107Zm24.24-10.135a51.509,51.509,0,0,1-.208,5.362l-1.187-.091q.149-1.751.149-4.159h-8.857V45.972Zm-12.684,7.637V52.5h6.309V49.259h1.22V52.5h7.33v1.1Zm7.4,7.628a7.309,7.309,0,0,1-3.856-.843,2.539,2.539,0,0,1-1.349-2.229,2.565,2.565,0,0,1,1.345-2.245,9.143,9.143,0,0,1,7.7,0,2.565,2.565,0,0,1,1.345,2.245,2.539,2.539,0,0,1-1.349,2.229A7.27,7.27,0,0,1,112.98,61.237Zm0-5.113a5.987,5.987,0,0,0-2.868.56,1.671,1.671,0,0,0-1.009,1.482,1.655,1.655,0,0,0,1,1.473,7.748,7.748,0,0,0,5.744,0,1.655,1.655,0,0,0,1-1.473,1.671,1.671,0,0,0-1.013-1.482A5.991,5.991,0,0,0,112.98,56.124Zm16.183-3.52a6.7,6.7,0,0,1-3.8-.921,2.889,2.889,0,0,1-1.353-2.515,2.92,2.92,0,0,1,1.37-2.515,8.126,8.126,0,0,1,7.612,0,2.924,2.924,0,0,1,1.361,2.515,2.891,2.891,0,0,1-1.361,2.507A6.732,6.732,0,0,1,129.163,52.6Zm0-5.827a5.309,5.309,0,0,0-2.843.643,2,2,0,0,0,0,3.482,6.566,6.566,0,0,0,5.686,0,2,2,0,0,0,0-3.482A5.309,5.309,0,0,0,129.163,46.777Zm-3.42,14.7V55.559h-4.009V54.438h14.858v1.121h-4.009v5.918h-1.245V55.559h-4.35v5.918Zm23.6-14.5h5.52v1.1h-4.3V52.7h4.507v1.087h-5.728Zm-6.209,0h5.238v1.1H144.38V52.7H148.6v1.087h-5.462Zm-1.444,11.986v-1.1h6.8V54.7h1.262v3.163h6.8v1.1Zm28.692-6.167V57.4h-1.237V45.482h1.237v6.184H172.8v1.129Zm-12.426-4.067v-1.1h4.134V45.548h1.262v2.075h4.125v1.1Zm4.765,6.89a4.362,4.362,0,0,1-2.868-.876,2.694,2.694,0,0,1-1.058-2.154,2.667,2.667,0,0,1,1.058-2.133,5.212,5.212,0,0,1,5.765,0,2.66,2.66,0,0,1,1.063,2.137,2.694,2.694,0,0,1-1.067,2.146A4.4,4.4,0,0,1,162.722,55.617Zm.017-4.98a3.25,3.25,0,0,0-1.992.548,1.682,1.682,0,0,0-.73,1.4,1.708,1.708,0,0,0,.735,1.419,3.831,3.831,0,0,0,3.976,0,1.708,1.708,0,0,0,.735-1.419,1.682,1.682,0,0,0-.73-1.4A3.25,3.25,0,0,0,162.738,50.637ZM160.647,61.2V56.771h1.22V60.1h9.015v1.1Zm29.611-8.019v8.309H189.02V45.482h1.237v6.6h2.872v1.1Zm-3.943-6.275q-.183,6.815-7.205,10.8l-.955-1a11.919,11.919,0,0,0,4.507-3.362,9.646,9.646,0,0,0,2.324-5.329h-6.151v-1.1Zm10.306,4.009v-5.1h1.237v3.993h8.774v1.1Zm-2.673,2.855v-1.1h14.858v1.1Zm7.429,7.521a7.668,7.668,0,0,1-3.864-.8,2.421,2.421,0,0,1,0-4.35,9.72,9.72,0,0,1,7.728,0,2.421,2.421,0,0,1,0,4.35A7.668,7.668,0,0,1,201.377,61.295Zm0-4.9a6.477,6.477,0,0,0-2.914.519,1.485,1.485,0,0,0-.008,2.8,8.413,8.413,0,0,0,5.84,0,1.487,1.487,0,0,0,0-2.806A6.523,6.523,0,0,0,201.377,56.4Zm12.954-11.14h1.237V47.15h4.117v1.087h-9.471V47.15h4.117Zm8.309,5.968v3.619H221.4V45.482h1.237v4.64h2.25v1.1Zm-7.662,3.486a4.653,4.653,0,0,1-2.889-.805,2.472,2.472,0,0,1,.012-4.059,5.55,5.55,0,0,1,5.786,0,2.456,2.456,0,0,1,0,4.051A4.689,4.689,0,0,1,214.979,54.712ZM215,50.089a3.459,3.459,0,0,0-2.009.51,1.483,1.483,0,0,0,.008,2.561,4.267,4.267,0,0,0,4,0A1.483,1.483,0,0,0,217,50.6,3.459,3.459,0,0,0,215,50.089Zm-2.208,11.239V55.733h1.22v1.834h7.413V55.733h1.22v5.595Zm8.633-2.689h-7.413v1.6h7.413Zm16.9,2.855V45.482h1.245V61.494Zm-1.22-5.063q-1.295.374-9.114.374V46.843h1.237V55.7h1.1a41.467,41.467,0,0,0,6.624-.34Zm17.76-3.52v8.583H253.62V45.482h1.237v6.309h2.822v1.121Zm-2.772,3.81q-1.361.166-2.781.2t-5.752.033V46.893h7.479V48H244.8V55.85a69.126,69.126,0,0,0,7.188-.2Zm7.243,3.461a.881.881,0,0,1-.652-.274.9.9,0,0,1-.27-.656.916.916,0,0,1,.27-.66.875.875,0,0,1,.652-.278.9.9,0,0,1,.664.278.908.908,0,0,1,.274.66.9.9,0,0,1-.274.656A.9.9,0,0,1,259.328,60.183Z" transform="translate(1070.615 442.152)" fill="#444"/>
    <g id="그룹_6" data-name="그룹 6" transform="translate(111 2)">
      <rect id="사각형_31" data-name="사각형 31" width="39" height="4" transform="translate(960 291)" fill="#533aff"/>
    </g>
  </g>
</svg>
