<svg xmlns="http://www.w3.org/2000/svg" width="193.986" height="127.055" viewBox="0 0 193.986 127.055">
  <g id="그룹_20" data-name="그룹 20" transform="translate(-91.256 -104.152)">
    <path id="패스_7" data-name="패스 7" d="M-25.9-19a1.245,1.245,0,0,1,.725.225.718.718,0,0,1,.325.625V-8.2a.688.688,0,0,1-.325.612,1.3,1.3,0,0,1-.725.213h-2.15V-19ZM-40.8-6.275h15.95V-.9a1.229,1.229,0,0,1-.225.738A.727.727,0,0,1-25.7.15H-37.6V1.425h12.75v1.5a1.132,1.132,0,0,1-.238.725.892.892,0,0,1-.587.35h-12.4a1.557,1.557,0,0,1-1-.475l-1.275-1.7a2.82,2.82,0,0,1-.325-.575A1.609,1.609,0,0,1-40.8.625v-3.05h12.75V-3.7H-39.925a.742.742,0,0,1-.65-.325A1.245,1.245,0,0,1-40.8-4.75Zm3.375-.95a6.072,6.072,0,0,1-2.288-.438,6.231,6.231,0,0,1-1.925-1.212,6.118,6.118,0,0,1-1.35-1.825,5.372,5.372,0,0,1-.538-2.275,5.6,5.6,0,0,1,.513-2.237,5.976,5.976,0,0,1,1.313-1.85,6.289,6.289,0,0,1,1.925-1.25,6,6,0,0,1,2.35-.463,6.167,6.167,0,0,1,2.3.438,6.194,6.194,0,0,1,1.938,1.212,6.118,6.118,0,0,1,1.35,1.825,5.372,5.372,0,0,1,.537,2.275,5.471,5.471,0,0,1-.525,2.238,6.154,6.154,0,0,1-1.325,1.85,6.289,6.289,0,0,1-1.925,1.25A6,6,0,0,1-37.425-7.225ZM-40.625-13a2.75,2.75,0,0,0,.263,1.2,2.831,2.831,0,0,0,.712.938,3.526,3.526,0,0,0,1.025.612,3.264,3.264,0,0,0,1.2.225,3.271,3.271,0,0,0,1.237-.238,3.38,3.38,0,0,0,1.025-.637,2.9,2.9,0,0,0,.688-.95,2.748,2.748,0,0,0,.25-1.15,2.515,2.515,0,0,0-.275-1.162,3.183,3.183,0,0,0-.725-.937,3.386,3.386,0,0,0-1.025-.625,3.618,3.618,0,0,0-1.175-.25,3.317,3.317,0,0,0-1.2.275,3.634,3.634,0,0,0-1.013.65,3.156,3.156,0,0,0-.7.925A2.742,2.742,0,0,0-40.625-13Zm37.9-6A1.245,1.245,0,0,1-2-18.775a.718.718,0,0,1,.325.625V-6.875A.718.718,0,0,1-2-6.25a1.245,1.245,0,0,1-.725.225h-2.15v-5.7H-8.35a.718.718,0,0,1-.625-.325,1.245,1.245,0,0,1-.225-.725v-1.85h4.325V-19ZM-10.2-6.125A10.887,10.887,0,0,1-7.687-5.8a9.738,9.738,0,0,1,2.538.987A6.563,6.563,0,0,1-3.175-3.125a3.863,3.863,0,0,1,.8,2.45,3.939,3.939,0,0,1-.613,2.113A6.014,6.014,0,0,1-4.663,3.175,8.48,8.48,0,0,1-7.15,4.35a10.622,10.622,0,0,1-3.05.425,10.8,10.8,0,0,1-2.488-.325,9.48,9.48,0,0,1-2.538-1A6.722,6.722,0,0,1-17.2,1.75,3.825,3.825,0,0,1-18-.675a3.939,3.939,0,0,1,.612-2.113,6.014,6.014,0,0,1,1.675-1.737A8.505,8.505,0,0,1-13.237-5.7,10.494,10.494,0,0,1-10.2-6.125Zm0,8.05a8.122,8.122,0,0,0,1.787-.238,6.251,6.251,0,0,0,1.475-.563,3.207,3.207,0,0,0,1-.812,1.573,1.573,0,0,0,.363-.988,1.666,1.666,0,0,0-.5-1.225A3.718,3.718,0,0,0-7.3-2.7a7.167,7.167,0,0,0-1.513-.438A8.187,8.187,0,0,0-10.2-3.275a7.678,7.678,0,0,0-1.788.2,5.4,5.4,0,0,0-1.463.563,3.3,3.3,0,0,0-.988.837,1.624,1.624,0,0,0-.362,1A1.625,1.625,0,0,0-14.3.538a3.86,3.86,0,0,0,1.212.788,7.442,7.442,0,0,0,1.5.45A7.527,7.527,0,0,0-10.2,1.925ZM-21.425-8.55a1.423,1.423,0,0,1-.363-.538A.564.564,0,0,1-21.6-9.65q.5-.475,1.163-1.137t1.337-1.437q.675-.775,1.263-1.6A9.119,9.119,0,0,0-16.9-15.45h-3.225a.711.711,0,0,1-.625-.337,1.264,1.264,0,0,1-.225-.712v-1.85h12.15v1.85a1.51,1.51,0,0,1-.238.712.682.682,0,0,1-.613.337H-12.95a9.575,9.575,0,0,0,.913,1.65,18.663,18.663,0,0,0,1.2,1.575q.638.75,1.3,1.412T-8.35-9.675a.765.765,0,0,1,.25.55.806.806,0,0,1-.325.625L-9.5-7.5a2.238,2.238,0,0,1-.275.2.525.525,0,0,1-.275.075.735.735,0,0,1-.575-.3q-1.175-1.125-2.3-2.387a23.63,23.63,0,0,1-2.025-2.613,22.127,22.127,0,0,1-2.075,2.638Q-18.2-8.6-19.35-7.5a.916.916,0,0,1-.575.25.72.72,0,0,1-.5-.25ZM19.125-13H22.15v1.85a1.2,1.2,0,0,1-.237.725.727.727,0,0,1-.613.325H19.125v4.975a.736.736,0,0,1-.312.613,1.184,1.184,0,0,1-.738.238h-2.15V-19h2.15a1.184,1.184,0,0,1,.738.238.736.736,0,0,1,.312.613ZM2.25-16.075a.736.736,0,0,1-.612-.312,1.184,1.184,0,0,1-.238-.738v-1.85h9.1a1.555,1.555,0,0,1,1.05.45l1.7,1.7a1.555,1.555,0,0,1,.45,1.05v4.95a.734.734,0,0,1-.337.65,1.264,1.264,0,0,1-.713.225H10.5v-6.125ZM5.725,1.1h12.75V2.925a1.238,1.238,0,0,1-.237.75A.727.727,0,0,1,17.625,4H5.725A1.412,1.412,0,0,1,4.7,3.55L3,2.125a1.458,1.458,0,0,1-.475-1.05v-5.75h2.15a1.264,1.264,0,0,1,.713.225.711.711,0,0,1,.338.625ZM14.75-7a1.245,1.245,0,0,1-.225.725.7.7,0,0,1-.6.325H1.2a.736.736,0,0,1-.613-.313A1.184,1.184,0,0,1,.35-7V-8.85H4.625v-4.3H6.75a1.238,1.238,0,0,1,.75.238.727.727,0,0,1,.325.613v3.45H14.75ZM41.575-19a1.238,1.238,0,0,1,.75.238.727.727,0,0,1,.325.613V1.65a.979.979,0,0,1-.325.7l-.712.712-.713.713A1,1,0,0,1,40.25,4h-.8V-19Zm-17.3,1.35H35.9v8.725a1.184,1.184,0,0,1-.237.738.736.736,0,0,1-.613.312H27.475V-3.9H35.9v1.85a1.2,1.2,0,0,1-.237.725A.727.727,0,0,1,35.05-1H27.475a1.511,1.511,0,0,1-1.025-.425l-1.725-1.75a1.283,1.283,0,0,1-.45-1v-6.6H32.7V-14.75H25.125a.727.727,0,0,1-.612-.325,1.2,1.2,0,0,1-.238-.725Z" transform="translate(188 123.152)" fill="#3f3f3f"/>
    <path id="패스_8" data-name="패스 8" d="M-55.309-7.02a2.545,2.545,0,0,1-.949,1.69,2.977,2.977,0,0,1-1.916.636,2.822,2.822,0,0,1-2.051-.779,2.586,2.586,0,0,1-.8-1.934,2.592,2.592,0,0,1,.8-1.925,2.812,2.812,0,0,1,2.057-.782,2.968,2.968,0,0,1,1.91.636A2.514,2.514,0,0,1-55.321-7.8h1.945v-2.437h.879v5.678h-.879V-7.02Zm-2.865-2.338a1.952,1.952,0,0,0-1.438.551,1.892,1.892,0,0,0-.554,1.4,1.925,1.925,0,0,0,.548,1.418,1.947,1.947,0,0,0,1.444.551,1.962,1.962,0,0,0,1.456-.551,1.925,1.925,0,0,0,.548-1.418,1.892,1.892,0,0,0-.554-1.4A1.967,1.967,0,0,0-58.174-9.357ZM-59.469.791V-3.937h.861v1.717h5.244V-3.937h.867V.791Zm6.105-2.244h-5.244V.012h5.244Zm4.586-4.02V-9.838h7v4.365Zm6.135-3.586h-5.273v2.807h5.273ZM-44.829-3.17V1.055h-.891V-3.17h-4.8v-.779H-40.03v.779ZM-30.6,1.055v-11.3h.879v11.3Zm-2.209-2.865a9.424,9.424,0,0,1-1.778-1.825,6.069,6.069,0,0,1-1.052-1.9A6.872,6.872,0,0,1-36.71-3.51a8.967,8.967,0,0,1-1.746,1.84l-.674-.586a7.025,7.025,0,0,0,2.221-2.394,5.949,5.949,0,0,0,.826-2.968V-9.469h.867v1.811A5.619,5.619,0,0,0-34.4-4.793a6.758,6.758,0,0,0,2.206,2.3Zm13.943-4.043v3.861h-.873v-8.256h.873v3.609h1.705v.785Zm-3.023-3.709a6.2,6.2,0,0,1-1.793,3.917,9.4,9.4,0,0,1-3.3,2.271l-.609-.68A7.884,7.884,0,0,0-24.56-5.947,5.177,5.177,0,0,0-22.92-8.771h-4v-.791ZM-25.738.609V-2.83h.873V-.182h6.316V.609Zm20.265-5.6H-7.318V1.055h-.891v-11.3h.879v4.477h1.857ZM-9.9-9.182q0,3.287-.217,5.807l-.855-.059q.07-.621.132-2.335t.062-2.634h-4.8v-.779Zm.92,7.934q-3.059.17-7.57.17l-.082-.768q.6,0,2.83-.029V-5.783h.879v3.9L-9.035-2ZM4.378-7.02a2.545,2.545,0,0,1-.949,1.69,2.977,2.977,0,0,1-1.916.636A2.822,2.822,0,0,1-.538-5.473a2.586,2.586,0,0,1-.8-1.934,2.592,2.592,0,0,1,.8-1.925,2.812,2.812,0,0,1,2.057-.782,2.968,2.968,0,0,1,1.91.636A2.514,2.514,0,0,1,4.366-7.8H6.312v-2.437h.879v5.678H6.312V-7.02ZM1.513-9.357a1.952,1.952,0,0,0-1.438.551,1.892,1.892,0,0,0-.554,1.4A1.925,1.925,0,0,0,.069-5.988a1.947,1.947,0,0,0,1.444.551,1.962,1.962,0,0,0,1.456-.551,1.925,1.925,0,0,0,.548-1.418,1.892,1.892,0,0,0-.554-1.4A1.967,1.967,0,0,0,1.513-9.357ZM.218.791V-3.937h.861v1.717H6.323V-3.937h.867V.791ZM6.323-1.453H1.079V.012H6.323Zm4.586-4.02V-9.838h7v4.365Zm6.135-3.586H11.77v2.807h5.273ZM14.858-3.17V1.055h-.891V-3.17h-4.8v-.779H19.657v.779ZM31.846,1.055v-11.3h.879v11.3ZM27.756-4V-1.74q2.631-.064,3.422-.117l.047.756q-3.246.188-7.729.188l-.082-.779q1.852,0,3.451-.035V-3.984a3,3,0,0,1-1.907-.876,2.545,2.545,0,0,1-.706-1.825,2.469,2.469,0,0,1,.876-1.951A3.224,3.224,0,0,1,27.322-9.4a3.083,3.083,0,0,1,2.142.75A2.514,2.514,0,0,1,30.3-6.686a2.529,2.529,0,0,1-.683,1.8A3.025,3.025,0,0,1,27.756-4Zm-.492-4.635a2.162,2.162,0,0,0-1.515.542,1.811,1.811,0,0,0-.595,1.4,1.82,1.82,0,0,0,.592,1.4,2.146,2.146,0,0,0,1.518.548A2.19,2.19,0,0,0,28.8-5.291a1.806,1.806,0,0,0,.6-1.395,1.8,1.8,0,0,0-.606-1.4A2.206,2.206,0,0,0,27.264-8.631Zm18.6,9.686v-11.3h.879v11.3ZM43.654-1.811a9.424,9.424,0,0,1-1.778-1.825,6.069,6.069,0,0,1-1.052-1.9A6.872,6.872,0,0,1,39.751-3.51a8.967,8.967,0,0,1-1.746,1.84l-.674-.586a7.025,7.025,0,0,0,2.221-2.394,5.949,5.949,0,0,0,.826-2.968V-9.469h.867v1.811a5.619,5.619,0,0,0,.817,2.865,6.758,6.758,0,0,0,2.206,2.3ZM57.6-5.854v3.861h-.873v-8.256H57.6v3.609H59.3v.785ZM54.573-9.562A6.2,6.2,0,0,1,52.78-5.646a9.4,9.4,0,0,1-3.3,2.271l-.609-.68A7.884,7.884,0,0,0,51.9-5.947a5.177,5.177,0,0,0,1.641-2.824h-4v-.791ZM50.723.609V-2.83H51.6V-.182h6.316V.609Zm-126.705,10.2v5.115h-3.047v2.637h4.8v.791H-84.718v-.791h4.8V15.922h-3.059V10.807Zm-.879,4.318V11.6h-5.227v3.527Zm5.236-.691V10.162h7.1v.779h-6.229v2.713h6.41v.779Zm4,2.35v4.26h-.891v-4.26h-4.8V16H-62.83v.779Zm9.323-4.764v-.768h3.885V9.869h.867v1.383h3.885v.768Zm-.926,7.33V18.57h2.83v-2.1A1.866,1.866,0,0,1-57.7,14.756a1.772,1.772,0,0,1,.973-1.538,5.218,5.218,0,0,1,2.736-.6,5.185,5.185,0,0,1,2.73.6,1.773,1.773,0,0,1,.967,1.538,1.9,1.9,0,0,1-1.283,1.717v2.1h2.83v.779Zm5.244-5.988a4.463,4.463,0,0,0-2.057.381,1.14,1.14,0,0,0-.715,1.014,1.152,1.152,0,0,0,.721,1.02,4.411,4.411,0,0,0,2.051.387,4.373,4.373,0,0,0,2.045-.387,1.151,1.151,0,0,0,.715-1.02,1.14,1.14,0,0,0-.712-1.014A4.428,4.428,0,0,0-53.987,13.361Zm-1.535,3.4V18.57h3.07V16.76a7.478,7.478,0,0,1-1.535.146A7.37,7.37,0,0,1-55.522,16.76Zm12.935-2.977a5.425,5.425,0,0,1-2.684-.542,1.631,1.631,0,0,1-.937-1.45,1.633,1.633,0,0,1,.94-1.447A5.4,5.4,0,0,1-42.587,9.8a5.469,5.469,0,0,1,2.689.536,1.627,1.627,0,0,1,.932,1.456,1.629,1.629,0,0,1-.935,1.453A5.447,5.447,0,0,1-42.587,13.783Zm0-3.287a4.535,4.535,0,0,0-2.01.357,1.065,1.065,0,0,0-.7.938,1.071,1.071,0,0,0,.709.949,4.542,4.542,0,0,0,2,.357,4.484,4.484,0,0,0,2-.363,1.077,1.077,0,0,0,.715-.943,1.071,1.071,0,0,0-.712-.932A4.481,4.481,0,0,0-42.587,10.5Zm-3.551,10.441v-2.52h6.229V17.369h-6.229v-.715h1.318v-1.2h-3.012v-.732h10.488v.732h-3.012v1.2h1.307v2.455h-6.229v1.1h6.527v.732Zm4.916-4.283v-1.2h-2.73v1.2Zm13.193-.387V13.086h-2.7v-.791h2.7V9.752h.873v6.516Zm-2.309-.574a7.409,7.409,0,0,1-1.544-1.151,4.861,4.861,0,0,1-1.081-1.38,5.69,5.69,0,0,1-1.1,1.553,6.411,6.411,0,0,1-1.588,1.266l-.621-.6A5.484,5.484,0,0,0-34.228,13.7a3.759,3.759,0,0,0,.809-2.276v-.387H-35.9v-.779h5.818v.779H-32.57v.387a3.336,3.336,0,0,0,.841,2.139,5,5,0,0,0,1.983,1.494Zm2.309,5.361V17.686h-6.48v-.779h7.354v4.148Zm4.451-7.717a2.344,2.344,0,0,1,1.043-2.024,4.673,4.673,0,0,1,2.748-.735,4.651,4.651,0,0,1,2.736.735,2.344,2.344,0,0,1,1.043,2.024,2.4,2.4,0,0,1-1.04,2.048,4.568,4.568,0,0,1-2.739.753,4.605,4.605,0,0,1-2.748-.75A2.392,2.392,0,0,1-23.578,13.338Zm.908,0a1.7,1.7,0,0,0,.785,1.474,3.63,3.63,0,0,0,2.1.542,3.593,3.593,0,0,0,2.083-.542,1.7,1.7,0,0,0,.782-1.474,1.676,1.676,0,0,0-.785-1.456,3.626,3.626,0,0,0-2.08-.536,3.679,3.679,0,0,0-2.095.533A1.672,1.672,0,0,0-22.67,13.338ZM-25.031,19.3v-.779h10.488V19.3Zm12.982-6.123h6.4V11.5h-6.375v-.768h7.248V13.93h-6.381V15.8H-4.45v.779H-7.942v2.057h4.8v.779H-13.631v-.779h4.811V16.578h-3.229ZM.843,11.41v-.721H3.731V9.635H4.61v1.055H7.5v.721Zm8.637,2.736v2.279H8.606V9.752h.873v3.6h1.693v.8Zm-8.9,2.145L.491,15.57q.791,0,3.24-.047v-.779a3.676,3.676,0,0,1-1.752-.469,1.156,1.156,0,0,1-.621-.984,1.2,1.2,0,0,1,.75-1.046,4.371,4.371,0,0,1,2.068-.407,4.309,4.309,0,0,1,2.063.41,1.2,1.2,0,0,1,.744,1.043,1.145,1.145,0,0,1-.624,1,3.809,3.809,0,0,1-1.761.457V15.5q1.863-.029,3.164-.117l.088.691q-.967.076-3.627.146T.579,16.291Zm3.6-3.791q-1.934,0-1.934.791t1.934.791q1.922,0,1.922-.791T4.177,12.5ZM2.46,20.961V18.594H8.618v-.873H2.46V17h7.02v2.279H3.321v.961H9.79v.721Zm12.2-7.295A1.79,1.79,0,0,1,13.514,12a1.712,1.712,0,0,1,.932-1.55A5.284,5.284,0,0,1,17.1,9.9a5.284,5.284,0,0,1,2.654.548A1.712,1.712,0,0,1,20.686,12a1.768,1.768,0,0,1-1.16,1.67v1.605h2.818v.779H11.856v-.779h2.807ZM17.1,10.643q-2.678,0-2.678,1.354a1.1,1.1,0,0,0,.665,1,4.4,4.4,0,0,0,2.013.357,4.4,4.4,0,0,0,2.013-.357,1.1,1.1,0,0,0,.665-1Q19.778,10.643,17.1,10.643Zm-1.559,4.629h3.105V13.953a7.41,7.41,0,0,1-1.547.141,7.589,7.589,0,0,1-1.559-.152ZM17.1,21a5.3,5.3,0,0,1-2.692-.557,1.733,1.733,0,0,1,.006-3.073,5.28,5.28,0,0,1,2.687-.56,5.28,5.28,0,0,1,2.687.56,1.733,1.733,0,0,1,.006,3.073A5.3,5.3,0,0,1,17.1,21Zm0-3.445a4.453,4.453,0,0,0-2.027.363,1.1,1.1,0,0,0-.686,1,1.087,1.087,0,0,0,.683.987,4.546,4.546,0,0,0,2.03.354,4.549,4.549,0,0,0,2.027-.354,1.087,1.087,0,0,0,.686-.987,1.1,1.1,0,0,0-.688-1A4.488,4.488,0,0,0,17.1,17.551Zm6.238-6v-.744h2.906V9.57h.873v1.236h2.918v.744Zm8.771,2.3v2.2h-.873v-6.3h.873v3.334h1.705v.768Zm-5.432,1.957a3.7,3.7,0,0,1-2.054-.489,1.538,1.538,0,0,1-.006-2.628,3.7,3.7,0,0,1,2.071-.492,3.671,3.671,0,0,1,2.068.5,1.519,1.519,0,0,1,.738,1.313,1.5,1.5,0,0,1-.747,1.307A3.739,3.739,0,0,1,26.678,15.811Zm.012-2.912a2.809,2.809,0,0,0-1.421.3.912.912,0,0,0-.513.812.886.886,0,0,0,.521.8,2.913,2.913,0,0,0,1.412.29,2.833,2.833,0,0,0,1.406-.293.89.89,0,0,0,.51-.8.917.917,0,0,0-.5-.809A2.734,2.734,0,0,0,26.689,12.9Zm-1.512,8.051V18.418h6.07v-.984h-6.07v-.756h6.932v2.461h-6.07v1.066h6.375v.744Zm21.7-6.562a7,7,0,0,1-2.648-.946,4.426,4.426,0,0,1-1.646-1.456,4.7,4.7,0,0,1-1.67,1.471,7.792,7.792,0,0,1-2.6,1l-.539-.732a6.462,6.462,0,0,0,3.05-1.116A2.539,2.539,0,0,0,42.142,10.6v-.492h.879V10.6a2.505,2.505,0,0,0,1.289,2A6.257,6.257,0,0,0,47.4,13.666Zm-3.861,2.168v4.5h-.879v-4.5h-4.8v-.779H47.831v.779Zm16.929-.562V9.752h.879v6.24ZM55.116,15.5a2.872,2.872,0,0,1-2.065-.768,2.571,2.571,0,0,1-.806-1.945,2.564,2.564,0,0,1,.8-1.937,3.188,3.188,0,0,1,4.14,0,2.567,2.567,0,0,1,.8,1.939,2.578,2.578,0,0,1-.8,1.948A2.866,2.866,0,0,1,55.116,15.5Zm0-4.67a1.955,1.955,0,0,0-1.441.548,1.9,1.9,0,0,0-.551,1.409,1.917,1.917,0,0,0,.551,1.421,2.177,2.177,0,0,0,2.892,0,1.914,1.914,0,0,0,.554-1.418,1.9,1.9,0,0,0-.554-1.4A1.961,1.961,0,0,0,55.116,10.83Zm6.393,9.961a4.665,4.665,0,0,1-1.2-.94,4.279,4.279,0,0,1-.85-1.181,4.287,4.287,0,0,1-.835,1.242,4.931,4.931,0,0,1-1.228,1l-.65-.58a4.132,4.132,0,0,0,1.641-1.371,3.282,3.282,0,0,0,.627-1.928v-.492h.867v.492a3.154,3.154,0,0,0,.647,1.91,3.538,3.538,0,0,0,1.632,1.248ZM56.78,20a3.743,3.743,0,0,1-1.459-1.465,5.1,5.1,0,0,1-2.115,2.355l-.674-.557a4.587,4.587,0,0,0,1.7-1.418,3.156,3.156,0,0,0,.645-1.881v-.48h.85v.48a2.421,2.421,0,0,0,.486,1.5,2.5,2.5,0,0,0,1.207.891Zm6.05-.7v-.779h4.8V15.91H64.605V10.818h6.938V11.6H65.484v3.527h6.24v.785H68.52v2.613h4.8V19.3Zm11.4-2.83v-.768h4.8V14.469H75.994V11.826h6.094V10.771H75.994V10h6.961v2.578H76.861V13.7h6.357v.768h-3.3v1.236h4.8v.768Zm7.887,4.582v-2.7h-6.4v-.791H82.99v3.492ZM-88.395,35.605v-2.35h-1.318v2.35h-.867V29.98h.867v2.5h1.318V29.752h.873v5.854Zm-5.783-.223a2.535,2.535,0,0,1-1.8-.724,2.533,2.533,0,0,1-.765-1.931,2.548,2.548,0,0,1,.765-1.942,2.535,2.535,0,0,1,1.8-.724,2.535,2.535,0,0,1,1.8.724,2.548,2.548,0,0,1,.765,1.942,2.533,2.533,0,0,1-.765,1.931A2.535,2.535,0,0,1-94.178,35.383Zm0-4.564a1.682,1.682,0,0,0-1.23.507,1.89,1.89,0,0,0-.51,1.4,1.856,1.856,0,0,0,.513,1.392,1.694,1.694,0,0,0,1.228.5,1.694,1.694,0,0,0,1.228-.5,1.856,1.856,0,0,0,.513-1.392,1.89,1.89,0,0,0-.51-1.4A1.682,1.682,0,0,0-94.178,30.818Zm-.422,9.926V36.232h.867v1.641h5.35V36.232h.861v4.512Zm6.217-2.1h-5.35v1.33h5.35Zm14.064,2.408V35.441h-1.488v5.268h-.879V29.98h.879v4.682h1.488v-4.91h.873v11.3Zm-3.012-3.416a34.667,34.667,0,0,1-4.811.188V30.678h.873v6.369a32.7,32.7,0,0,0,3.85-.164Zm14.341,3.416v-11.3h.873v11.3ZM-67.794,36a3.081,3.081,0,0,1-2.127-.768,2.48,2.48,0,0,1-.861-1.934,2.479,2.479,0,0,1,.855-1.916,3.061,3.061,0,0,1,2.133-.773,3.051,3.051,0,0,1,2.13.779,2.481,2.481,0,0,1,.858,1.91,2.485,2.485,0,0,1-.855,1.937A3.082,3.082,0,0,1-67.794,36Zm0-4.617a2.139,2.139,0,0,0-1.488.539,1.772,1.772,0,0,0-.6,1.377,1.757,1.757,0,0,0,.612,1.386,2.161,2.161,0,0,0,1.474.536,2.16,2.16,0,0,0,1.488-.536,1.768,1.768,0,0,0,.6-1.386,1.767,1.767,0,0,0-.6-1.383A2.161,2.161,0,0,0-67.794,31.387ZM-71.527,39l-.082-.756q1.512,0,4.222-.059t3.6-.135l.053.756q-.92.076-3.63.135T-71.527,39Zm22.5-3.434V29.752h.891V35.57Zm-4.74-.4a2.927,2.927,0,0,1-2.071-.735,2.44,2.44,0,0,1-.794-1.872,2.415,2.415,0,0,1,.794-1.86,2.941,2.941,0,0,1,2.071-.729,2.947,2.947,0,0,1,2.071.732,2.409,2.409,0,0,1,.8,1.857,2.43,2.43,0,0,1-.8,1.869A2.936,2.936,0,0,1-53.766,35.166Zm0-4.441a2.05,2.05,0,0,0-1.453.5,1.733,1.733,0,0,0-.539,1.333,1.778,1.778,0,0,0,.539,1.351,2.022,2.022,0,0,0,1.453.513,2.022,2.022,0,0,0,1.453-.513,1.778,1.778,0,0,0,.539-1.351,1.733,1.733,0,0,0-.539-1.333A2.05,2.05,0,0,0-53.766,30.725Zm-1.342,10.066V38.055H-49V36.977h-6.105V36.2h6.973v2.613h-6.111v1.2h6.422v.779Zm17.482-4.512V33.074h-2.637v-.779h2.637V29.752h.879v6.527Zm-2.426-.645a7.118,7.118,0,0,1-1.541-1.166,5.083,5.083,0,0,1-1.084-1.406,5.985,5.985,0,0,1-1.113,1.579,6.594,6.594,0,0,1-1.576,1.28l-.621-.6a5.42,5.42,0,0,0,2.033-1.682,3.817,3.817,0,0,0,.82-2.314v-.287h-2.484v-.779H-39.8v.779h-2.484v.287a3.381,3.381,0,0,0,.85,2.168A5.056,5.056,0,0,0-39.459,35Zm-.164,5.256a5.1,5.1,0,0,1-2.733-.612,1.825,1.825,0,0,1-.964-1.585,1.812,1.812,0,0,1,.961-1.579,5.139,5.139,0,0,1,2.736-.606,5.139,5.139,0,0,1,2.736.606,1.812,1.812,0,0,1,.961,1.579,1.825,1.825,0,0,1-.964,1.585A5.1,5.1,0,0,1-40.215,40.891Zm0-3.639a4.179,4.179,0,0,0-2.051.407,1.19,1.19,0,0,0-.709,1.034,1.187,1.187,0,0,0,.712,1.037,4.208,4.208,0,0,0,2.048.4,4.237,4.237,0,0,0,2.045-.4,1.185,1.185,0,0,0,.715-1.04,1.187,1.187,0,0,0-.709-1.037A4.2,4.2,0,0,0-40.215,37.252Zm14.447-2.531v3.457h-.879V29.752h.879V33.93h1.693v.791Zm-2.473-4.2a36.711,36.711,0,0,1-.182,3.949l-.85-.059a31.141,31.141,0,0,0,.158-3.111h-4.752V30.52Zm.768,5.6q-.791.064-3.337.129t-3.923.064l-.082-.779q1.5,0,2.783-.035V32.992h.873v2.5q2.186-.029,3.639-.123Zm-5.35,4.553V37.41h.873v2.484h6.48v.779Zm17.88.381v-11.3h.873v11.3ZM-22.5,38.617V34.135h4.3V31.527h-4.3v-.779h5.174v4.143h-4.295v2.947a35.107,35.107,0,0,0,5.385-.24l.1.756A45.66,45.66,0,0,1-22.5,38.617Zm21.64,2.438v-11.3H.018v11.3Zm-2.268-10.26A7.864,7.864,0,0,1-4.471,35.1a10.515,10.515,0,0,1-3.744,3.313l-.668-.709a8.373,8.373,0,0,0,3.17-2.355,7.057,7.057,0,0,0,1.652-3.779H-8.42v-.779ZM4.029,33.59v-3.6H4.9v2.818H11.1v.779ZM2.142,35.605v-.779H12.63v.779Zm5.244,5.309a5.412,5.412,0,0,1-2.728-.565,1.709,1.709,0,0,1,0-3.07,5.412,5.412,0,0,1,2.728-.565,5.412,5.412,0,0,1,2.728.565,1.709,1.709,0,0,1,0,3.07A5.412,5.412,0,0,1,7.386,40.914Zm0-3.457a4.572,4.572,0,0,0-2.057.366A1.048,1.048,0,0,0,5.324,39.8a4.534,4.534,0,0,0,2.063.369,4.537,4.537,0,0,0,2.06-.369,1.05,1.05,0,0,0,0-1.98A4.6,4.6,0,0,0,7.386,37.457Zm11.4-3.674a5.425,5.425,0,0,1-2.684-.542,1.587,1.587,0,0,1,0-2.9,5.4,5.4,0,0,1,2.681-.545,5.469,5.469,0,0,1,2.689.536,1.6,1.6,0,0,1,0,2.909A5.447,5.447,0,0,1,18.786,33.783Zm0-3.287a4.535,4.535,0,0,0-2.01.357.983.983,0,0,0,.006,1.887,4.542,4.542,0,0,0,2,.357,4.484,4.484,0,0,0,2-.363.973.973,0,0,0,0-1.875A4.481,4.481,0,0,0,18.786,30.5Zm-5.244,4.969v-.721H24.03v.721Zm1.693,5.473V38.354h6.229v-1.1H15.236V36.52h7.09v2.52H16.1v1.166h6.527v.732Zm21.189-5.812v5.93h-.873v-11.3h.873v4.594h1.957v.779Zm-2.531,3.064a9.29,9.29,0,0,1-1.77-1.819,6.473,6.473,0,0,1-1.061-1.9,6.907,6.907,0,0,1-1.055,2,9.041,9.041,0,0,1-1.752,1.86l-.674-.586a7.068,7.068,0,0,0,2.209-2.394,5.949,5.949,0,0,0,.826-2.968V30.531h.873v1.811a5.608,5.608,0,0,0,.817,2.871,6.8,6.8,0,0,0,2.2,2.291Zm7.943-4.523A1.79,1.79,0,0,1,40.688,32a1.712,1.712,0,0,1,.932-1.55,5.284,5.284,0,0,1,2.654-.548,5.284,5.284,0,0,1,2.654.548A1.712,1.712,0,0,1,47.859,32a1.768,1.768,0,0,1-1.16,1.67v1.605h2.818v.779H39.029v-.779h2.807Zm2.438-3.023Q41.6,30.643,41.6,32a1.1,1.1,0,0,0,.665,1,4.4,4.4,0,0,0,2.013.357,4.4,4.4,0,0,0,2.013-.357,1.1,1.1,0,0,0,.665-1Q46.951,30.643,44.273,30.643Zm-1.559,4.629H45.82V33.953a7.41,7.41,0,0,1-1.547.141,7.589,7.589,0,0,1-1.559-.152ZM44.273,41a5.3,5.3,0,0,1-2.692-.557,1.733,1.733,0,0,1,.006-3.073,5.28,5.28,0,0,1,2.687-.56,5.28,5.28,0,0,1,2.687.56,1.733,1.733,0,0,1,.006,3.073A5.3,5.3,0,0,1,44.273,41Zm0-3.445a4.453,4.453,0,0,0-2.027.363,1.1,1.1,0,0,0-.686,1,1.087,1.087,0,0,0,.683.987,4.546,4.546,0,0,0,2.03.354A4.549,4.549,0,0,0,46.3,39.9a1.087,1.087,0,0,0,.686-.987,1.1,1.1,0,0,0-.688-1A4.488,4.488,0,0,0,44.273,37.551Zm15,3.5V35.74H57.929V40.7h-.861V29.969h.861v4.992h1.342V29.752h.879v11.3Zm-8.818-8.5v-.779h2.508V30.027h.879v1.752h2.508v.779Zm2.977,5.76a2.484,2.484,0,0,1-1.793-.7,2.55,2.55,0,0,1,0-3.562,2.634,2.634,0,0,1,3.583-.006,2.572,2.572,0,0,1,0,3.574A2.478,2.478,0,0,1,53.429,38.318Zm0-4.2a1.607,1.607,0,0,0-1.216.486,1.861,1.861,0,0,0,0,2.467,1.768,1.768,0,0,0,2.42,0,1.852,1.852,0,0,0,0-2.473A1.617,1.617,0,0,0,53.429,34.117ZM67.519,36.15v2.432h4.8v.779H61.829v-.779h4.8V36.15H63.523V30.725H64.4v1.957h5.355V30.725h.861V36.15Zm2.232-2.678H64.4v1.881h5.355Zm12.168,7.582v-11.3h.873v11.3Zm-2.051-.346V34.422H77.9v-.779h1.969V29.98h.861V40.709Zm-1.553-2.3a8.112,8.112,0,0,1-2.121-3.533,6.563,6.563,0,0,1-.853,1.9,8.964,8.964,0,0,1-1.415,1.787l-.686-.551A5.9,5.9,0,0,0,75,35.784a6.572,6.572,0,0,0,.768-2.974V30.578h.867v2.244a6.322,6.322,0,0,0,.688,2.813,6.623,6.623,0,0,0,1.649,2.2Zm6.314.861v-.779h2.713V35.605a2.553,2.553,0,0,1-.231-4.28,5.552,5.552,0,0,1,5.522,0,2.566,2.566,0,0,1-.229,4.28v2.883h2.713v.779Zm2.338-5.877a1.688,1.688,0,0,0,.8,1.479,3.721,3.721,0,0,0,2.106.536,3.677,3.677,0,0,0,2.1-.539,1.777,1.777,0,0,0-.006-2.965,4.316,4.316,0,0,0-4.2,0A1.708,1.708,0,0,0,86.967,33.391Zm1.248,2.578v2.52h3.316v-2.52a5.653,5.653,0,0,1-1.658.217A6.2,6.2,0,0,1,88.215,35.969Zm8.365,4.16a.622.622,0,0,1-.46-.193.636.636,0,0,1-.19-.463.646.646,0,0,1,.19-.466.617.617,0,0,1,.46-.2.634.634,0,0,1,.469.2.641.641,0,0,1,.193.466.632.632,0,0,1-.193.463A.638.638,0,0,1,96.58,40.129Zm-179.6,17.662V49.752h.873v8.039Zm-1.957-1.318a6.431,6.431,0,0,1-1.641-1.1A5.077,5.077,0,0,1-87.745,54a5.533,5.533,0,0,1-1.178,1.547,6.619,6.619,0,0,1-1.605,1.178l-.65-.674A4.9,4.9,0,0,0-89.116,54.6a3.083,3.083,0,0,0,.914-1.969V51.85h-2.619V51.07h2.631V49.764h.873V51.07h2.607v.779h-2.607v.785a2.768,2.768,0,0,0,.926,1.846A4.475,4.475,0,0,0-84.4,55.752ZM-89.1,60.686V57.094h.891v2.824h6.369v.768Zm13.791.369V55.822h-4.705v-.791h7.857q.135-1.389.135-4.008h-6.287v-.779h7.16q0,2.9-.164,4.787h1.787v.791h-4.91v5.232Zm15.695-5.93v5.93h-.873v-11.3h.873v4.594h1.846v.779Zm-4.934.867V58.2q2.438-.059,3.34-.123l.047.756q-.791.064-3.451.129t-4.049.064l-.1-.779q1.793,0,3.34-.035V56a2.944,2.944,0,0,1-1.9-.882,2.569,2.569,0,0,1-.7-1.819,2.468,2.468,0,0,1,.873-1.957,3.212,3.212,0,0,1,2.18-.756,3.015,3.015,0,0,1,2.112.75,2.53,2.53,0,0,1,.823,1.963,2.543,2.543,0,0,1-.674,1.8A3,3,0,0,1-64.553,55.992Zm-.48-4.635a2.126,2.126,0,0,0-1.5.539,1.826,1.826,0,0,0-.583,1.406,1.827,1.827,0,0,0,.586,1.4,2.115,2.115,0,0,0,1.5.545,2.138,2.138,0,0,0,1.512-.548,1.82,1.82,0,0,0,.592-1.4,1.824,1.824,0,0,0-.586-1.4A2.146,2.146,0,0,0-65.033,51.357Zm16.457,9.7v-11.3h.873v11.3ZM-53.381,56a3.081,3.081,0,0,1-2.127-.768A2.48,2.48,0,0,1-56.37,53.3a2.479,2.479,0,0,1,.855-1.916,3.061,3.061,0,0,1,2.133-.773,3.051,3.051,0,0,1,2.13.779,2.481,2.481,0,0,1,.858,1.91,2.485,2.485,0,0,1-.855,1.937A3.082,3.082,0,0,1-53.381,56Zm0-4.617a2.139,2.139,0,0,0-1.488.539,1.772,1.772,0,0,0-.6,1.377,1.757,1.757,0,0,0,.612,1.386,2.161,2.161,0,0,0,1.474.536,2.16,2.16,0,0,0,1.488-.536,1.768,1.768,0,0,0,.6-1.386,1.767,1.767,0,0,0-.6-1.383A2.161,2.161,0,0,0-53.381,51.387ZM-57.114,59l-.082-.756q1.512,0,4.222-.059t3.6-.135l.053.756q-.92.076-3.63.135T-57.114,59Zm22.5-3.434V49.752h.891V55.57Zm-4.74-.4a2.927,2.927,0,0,1-2.071-.735,2.44,2.44,0,0,1-.794-1.872,2.415,2.415,0,0,1,.794-1.86,2.941,2.941,0,0,1,2.071-.729,2.947,2.947,0,0,1,2.071.732,2.409,2.409,0,0,1,.8,1.857,2.43,2.43,0,0,1-.8,1.869A2.936,2.936,0,0,1-39.353,55.166Zm0-4.441a2.05,2.05,0,0,0-1.453.5,1.733,1.733,0,0,0-.539,1.333,1.778,1.778,0,0,0,.539,1.351,2.022,2.022,0,0,0,1.453.513,2.022,2.022,0,0,0,1.453-.513,1.778,1.778,0,0,0,.539-1.351,1.733,1.733,0,0,0-.539-1.333A2.05,2.05,0,0,0-39.353,50.725Zm-1.342,10.066V58.055h6.105V56.977h-6.105V56.2h6.973v2.613h-6.111v1.2h6.422v.779Zm17.482-4.512V53.074h-2.637v-.779h2.637V49.752h.879v6.527Zm-2.426-.645a7.118,7.118,0,0,1-1.541-1.166,5.083,5.083,0,0,1-1.084-1.406,5.985,5.985,0,0,1-1.113,1.579,6.594,6.594,0,0,1-1.576,1.28l-.621-.6a5.42,5.42,0,0,0,2.033-1.682,3.817,3.817,0,0,0,.82-2.314v-.287H-31.2v-.779h5.818v.779h-2.484v.287a3.381,3.381,0,0,0,.85,2.168A5.056,5.056,0,0,0-25.046,55Zm-.164,5.256a5.1,5.1,0,0,1-2.733-.612,1.825,1.825,0,0,1-.964-1.585,1.812,1.812,0,0,1,.961-1.579,5.139,5.139,0,0,1,2.736-.606,5.139,5.139,0,0,1,2.736.606,1.812,1.812,0,0,1,.961,1.579,1.825,1.825,0,0,1-.964,1.585A5.1,5.1,0,0,1-25.8,60.891Zm0-3.639a4.179,4.179,0,0,0-2.051.407,1.19,1.19,0,0,0-.709,1.034,1.187,1.187,0,0,0,.712,1.037,4.208,4.208,0,0,0,2.048.4,4.237,4.237,0,0,0,2.045-.4,1.185,1.185,0,0,0,.715-1.04,1.187,1.187,0,0,0-.709-1.037A4.2,4.2,0,0,0-25.8,57.252ZM-8.692,50.1a36.359,36.359,0,0,1-.146,3.785l-.838-.064q.105-1.236.105-2.936h-6.252V50.1Zm-8.953,5.391v-.779h4.453V52.418h.861v2.291h5.174v.779Zm5.221,5.385a5.159,5.159,0,0,1-2.722-.595,1.792,1.792,0,0,1-.952-1.573,1.811,1.811,0,0,1,.949-1.585,5.115,5.115,0,0,1,2.725-.6,5.089,5.089,0,0,1,2.713.6,1.811,1.811,0,0,1,.949,1.585,1.792,1.792,0,0,1-.952,1.573A5.132,5.132,0,0,1-12.424,60.873Zm0-3.609a4.226,4.226,0,0,0-2.024.4,1.18,1.18,0,0,0-.712,1.046,1.168,1.168,0,0,0,.709,1.04,4.277,4.277,0,0,0,2.027.39,4.277,4.277,0,0,0,2.027-.39,1.168,1.168,0,0,0,.709-1.04,1.18,1.18,0,0,0-.715-1.046A4.229,4.229,0,0,0-12.424,57.264ZM-1,54.779a4.731,4.731,0,0,1-2.684-.65,2.039,2.039,0,0,1-.955-1.775,2.061,2.061,0,0,1,.967-1.775A4.644,4.644,0,0,1-1,49.91a4.687,4.687,0,0,1,2.7.668,2.064,2.064,0,0,1,.961,1.775,2.04,2.04,0,0,1-.961,1.77A4.752,4.752,0,0,1-1,54.779Zm0-4.113a3.747,3.747,0,0,0-2.007.454,1.4,1.4,0,0,0-.718,1.233,1.394,1.394,0,0,0,.718,1.225A3.728,3.728,0,0,0-1,54.035a3.728,3.728,0,0,0,2.007-.457,1.411,1.411,0,0,0,0-2.458A3.747,3.747,0,0,0-1,50.666ZM-3.415,61.043V56.865h-2.83v-.791H4.243v.791H1.413v4.178H.534V56.865h-3.07v4.178ZM13.245,50.807h3.9v.779H14.106V54.85h3.182v.768H13.245Zm-4.383,0h3.7v.779H9.741V54.85h2.977v.768H8.862Zm-1.02,8.461v-.779h4.8V56.256h.891v2.232h4.8v.779ZM28.1,54.914v3.252h-.873V49.752H28.1v4.365H29.8v.8Zm-8.771-2.871v-.779h2.918V49.8h.891v1.465h2.912v.779Zm3.363,4.863a3.079,3.079,0,0,1-2.024-.618,1.9,1.9,0,0,1-.747-1.521,1.883,1.883,0,0,1,.747-1.506,3.109,3.109,0,0,1,2.036-.615,3.121,3.121,0,0,1,2.033.612,1.877,1.877,0,0,1,.75,1.509,1.9,1.9,0,0,1-.753,1.515A3.1,3.1,0,0,1,22.688,56.906Zm.012-3.516a2.294,2.294,0,0,0-1.406.387,1.187,1.187,0,0,0-.516.99,1.206,1.206,0,0,0,.519,1,2.272,2.272,0,0,0,1.4.393,2.272,2.272,0,0,0,1.4-.393,1.206,1.206,0,0,0,.519-1,1.187,1.187,0,0,0-.516-.99A2.294,2.294,0,0,0,22.7,53.391ZM21.223,60.85V57.721h.861v2.35h6.363v.779Zm20.9-5.66v5.865h-.873v-11.3h.873V54.41h2.027v.779Zm-2.783-4.43q-.129,4.811-5.086,7.623l-.674-.709A8.414,8.414,0,0,0,36.763,55.3,6.809,6.809,0,0,0,38.4,51.539H34.062V50.76Zm7.275,2.83v-3.6h.873v2.818h6.193v.779Zm-1.887,2.016v-.779H55.218v.779Zm5.244,5.309a5.412,5.412,0,0,1-2.728-.565,1.709,1.709,0,0,1,0-3.07,5.412,5.412,0,0,1,2.728-.565,5.412,5.412,0,0,1,2.728.565,1.709,1.709,0,0,1,0,3.07A5.412,5.412,0,0,1,49.973,60.914Zm0-3.457a4.572,4.572,0,0,0-2.057.366,1.048,1.048,0,0,0-.006,1.978,4.534,4.534,0,0,0,2.063.369,4.537,4.537,0,0,0,2.06-.369,1.05,1.05,0,0,0,0-1.98A4.6,4.6,0,0,0,49.973,57.457Zm9.144-7.863h.873V50.93H62.9V51.7H56.211V50.93h2.906Zm5.865,4.213v2.555H64.11V49.752h.873v3.275h1.588v.779Zm-5.408,2.461a3.284,3.284,0,0,1-2.039-.568,1.745,1.745,0,0,1,.009-2.865,3.918,3.918,0,0,1,4.084,0,1.734,1.734,0,0,1,0,2.859A3.31,3.31,0,0,1,59.575,56.268ZM59.586,53a2.441,2.441,0,0,0-1.418.36,1.047,1.047,0,0,0,.006,1.808,3.012,3.012,0,0,0,2.824,0A1.047,1.047,0,0,0,61,53.364,2.441,2.441,0,0,0,59.586,53Zm-1.559,7.934V56.988h.861v1.295h5.232V56.988h.861v3.949Zm6.094-1.9H58.889V60.17h5.232Zm11.927,2.016v-11.3h.879v11.3Zm-.861-3.574a40.1,40.1,0,0,1-6.434.264V50.713h.873v6.252H70.4a29.271,29.271,0,0,0,4.676-.24ZM87.724,55v6.059h-.873v-11.3h.873v4.453h1.992V55Zm-1.957,2.689q-.961.117-1.963.141t-4.061.023v-7.1h5.279v.779h-4.4V57.07A48.8,48.8,0,0,0,85.7,56.93Zm5.113,2.443a.622.622,0,0,1-.46-.193.636.636,0,0,1-.19-.463.646.646,0,0,1,.19-.466.617.617,0,0,1,.46-.2.634.634,0,0,1,.469.2.641.641,0,0,1,.193.466.632.632,0,0,1-.193.463A.638.638,0,0,1,90.88,60.129Z" transform="translate(188 170.152)" fill="#444"/>
    <line id="선_2" data-name="선 2" x2="100" transform="translate(137.5 135.5)" fill="none" stroke="#533aff" stroke-width="2"/>
  </g>
</svg>
