<svg xmlns="http://www.w3.org/2000/svg" width="147.34" height="19.68" viewBox="0 0 147.34 19.68">
  <path id="패스_3" data-name="패스 3" d="M15.36-11.6H18.3v1.38a.86.86,0,0,1-.16.52.5.5,0,0,1-.42.22H15.36v2.92a.471.471,0,0,1-.22.41.9.9,0,0,1-.52.15H13v-9.1h1.62a.86.86,0,0,1,.52.16.5.5,0,0,1,.22.42ZM.58-14.58h10.6v1.38a.873.873,0,0,1-.16.51.49.49,0,0,1-.42.23H9.38v4.1h1.8v1.38a.86.86,0,0,1-.16.52.5.5,0,0,1-.42.22H1.16a.483.483,0,0,1-.43-.23.914.914,0,0,1-.15-.51V-8.36h1.8v-4.1H1.16a.483.483,0,0,1-.43-.23.914.914,0,0,1-.15-.51ZM7.02-8.36v-4.1H4.74v4.1ZM2.8-4.92H15.36v4.2a.914.914,0,0,1-.15.51.483.483,0,0,1-.43.23H5.16V1.24h10.2V2.36a.914.914,0,0,1-.15.51.483.483,0,0,1-.43.23H4.9a1,1,0,0,1-.4-.07,1.159,1.159,0,0,1-.34-.25L3.14,1.42A2.053,2.053,0,0,1,2.86.95,1.309,1.309,0,0,1,2.8.52V-1.84H13V-3.06H3.38a.483.483,0,0,1-.43-.23A.914.914,0,0,1,2.8-3.8Zm16.36-9.1h7.32v6.88a.86.86,0,0,1-.16.52.514.514,0,0,1-.44.22H21.52v3.38h4.96v1.38a.873.873,0,0,1-.16.51.508.508,0,0,1-.44.23H21.62a1.038,1.038,0,0,1-.76-.32L19.5-2.6a1.032,1.032,0,0,1-.34-.74V-8.52h4.96V-11.9H19.74a.49.49,0,0,1-.42-.23.873.873,0,0,1-.16-.51ZM30.3-15.1a.868.868,0,0,1,.53.17.5.5,0,0,1,.23.41V1.3a.689.689,0,0,1-.22.5L29.7,2.94a.98.98,0,0,1-.46.16H28.7V-6.58H27.6a.5.5,0,0,1-.42-.22.86.86,0,0,1-.16-.52V-8.7H28.7v-6.4Zm3.66,0a.905.905,0,0,1,.53.16.49.49,0,0,1,.23.42V1.3a.689.689,0,0,1-.22.5L33.36,2.94a.98.98,0,0,1-.46.16h-.54V-15.1ZM36.34-.98H53.08V.4a.962.962,0,0,1-.14.51.46.46,0,0,1-.42.23H36.9a.466.466,0,0,1-.41-.23A.914.914,0,0,1,36.34.4Zm4.68-2.56a1.038,1.038,0,0,1-.76-.32L38.9-5.22a1.038,1.038,0,0,1-.32-.76V-14H50.86v1.38a.86.86,0,0,1-.16.52.5.5,0,0,1-.42.22H40.94v2.04h9.4v1.38a.826.826,0,0,1-.17.52.522.522,0,0,1-.43.22h-8.8v2.06h9.92v1.38a.86.86,0,0,1-.16.52.5.5,0,0,1-.42.22Zm31.96-.82a.873.873,0,0,1,.51.16.49.49,0,0,1,.23.42V2.34a.868.868,0,0,1-.17.53.515.515,0,0,1-.43.23H63.6a1.052,1.052,0,0,1-.76-.34L61.48,1.4a1.038,1.038,0,0,1-.32-.76v-5h1.62a.914.914,0,0,1,.51.15.483.483,0,0,1,.23.43v1.04h7.84V-4.36Zm-7.1-2.86a4.174,4.174,0,0,1-3.14,1.34A4.2,4.2,0,0,1,59.6-7.2a4.435,4.435,0,0,1-1.3-3.2,4.436,4.436,0,0,1,.35-1.76,4.707,4.707,0,0,1,.95-1.44,4.331,4.331,0,0,1,1.41-.97,4.314,4.314,0,0,1,1.73-.35,4.246,4.246,0,0,1,3.14,1.32,4.435,4.435,0,0,1,1.3,3.2A4.412,4.412,0,0,1,65.88-7.22ZM73.5-15.1a.9.9,0,0,1,.52.15.471.471,0,0,1,.22.41v8.52a.474.474,0,0,1-.23.4.873.873,0,0,1-.51.16H71.88V-9.24H70.24v3.22a.474.474,0,0,1-.23.4.873.873,0,0,1-.51.16H67.88V-15.1H69.5a.914.914,0,0,1,.51.15.466.466,0,0,1,.23.41v3.18h1.64V-15.1ZM60.44-10.38a2.433,2.433,0,0,0,.66,1.7,2.175,2.175,0,0,0,1.64.72,2.113,2.113,0,0,0,1.62-.72,2.374,2.374,0,0,0,.68-1.72,2.374,2.374,0,0,0-.68-1.72,2.113,2.113,0,0,0-1.62-.72,2.175,2.175,0,0,0-1.64.72,2.458,2.458,0,0,0-.66,1.72ZM71.36.98V-.62H63.52V.98ZM94.18-15.1a.914.914,0,0,1,.51.15.483.483,0,0,1,.23.43V-4.44a.483.483,0,0,1-.23.43.914.914,0,0,1-.51.15H92.56V-15.1ZM84.7.98H94.92V2.34a.963.963,0,0,1-.15.52.478.478,0,0,1-.43.24H84.8a.891.891,0,0,1-.4-.08,1.359,1.359,0,0,1-.34-.26L82.68,1.62a1.159,1.159,0,0,1-.25-.34,1,1,0,0,1-.07-.4V-3.64h1.6a.914.914,0,0,1,.51.15.483.483,0,0,1,.23.43Zm3.78-6.66a20.218,20.218,0,0,1-1.98-2.1Q85.32-9.24,84.96-9.8a17.891,17.891,0,0,1-1.68,2.12q-.58.66-1.06,1.16t-.86.84a.45.45,0,0,1-.72,0l-.8-.82q-.38-.44-.14-.76a20.161,20.161,0,0,0,1.51-1.51,19.542,19.542,0,0,0,1.27-1.57,6.188,6.188,0,0,0,1.28-2.6,1.458,1.458,0,0,0,.02-.24V-14.8H85.4a1.09,1.09,0,0,1,.58.11.4.4,0,0,1,.16.35v.9a2.68,2.68,0,0,0,.1.72,9.711,9.711,0,0,0,1.24,2.46,15.968,15.968,0,0,0,2.68,3,.519.519,0,0,1,.16.38.515.515,0,0,1-.22.4l-.86.82A.483.483,0,0,1,88.48-5.68ZM110.5-3.56a3.64,3.64,0,0,1,1.8,3.02,3.552,3.552,0,0,1-1.82,3,7.376,7.376,0,0,1-4.34,1.26,7.376,7.376,0,0,1-4.34-1.26,3.558,3.558,0,0,1-1.8-3,2.745,2.745,0,0,1,.46-1.64,4.878,4.878,0,0,1,1.35-1.37,6.988,6.988,0,0,1,1.97-.93,7.651,7.651,0,0,1,2.36-.32A7.556,7.556,0,0,1,110.5-3.56ZM103.48,1a5.273,5.273,0,0,0,2.66.64A5.316,5.316,0,0,0,108.82,1a2.651,2.651,0,0,0,.85-.72,1.383,1.383,0,0,0,.29-.82,1.383,1.383,0,0,0-.29-.82,2.651,2.651,0,0,0-.85-.72,5.931,5.931,0,0,0-5.36,0,2.588,2.588,0,0,0-.82.72,1.415,1.415,0,0,0-.28.82,1.415,1.415,0,0,0,.28.82A2.536,2.536,0,0,0,103.48,1Zm8.64-16.1a.9.9,0,0,1,.52.15.471.471,0,0,1,.22.41V-5.5a.5.5,0,0,1-.22.42.86.86,0,0,1-.52.16H110.5V-8.74h-2.88a.49.49,0,0,1-.42-.23.873.873,0,0,1-.16-.51v-1.38h3.46V-15.1Zm-15,7.64a19.743,19.743,0,0,0,2.25-2,10,10,0,0,0,1.49-1.98H97.88a.478.478,0,0,1-.43-.24.963.963,0,0,1-.15-.52v-1.36h3.86v-2.4h1.62a.838.838,0,0,1,.51.17.515.515,0,0,1,.23.43v1.8h3.86v1.36a.905.905,0,0,1-.16.53.49.49,0,0,1-.42.23h-2.98a15.774,15.774,0,0,0,3.76,3.98.421.421,0,0,1,.17.37.556.556,0,0,1-.23.41l-.86.8a.475.475,0,0,1-.76,0q-.98-.84-1.94-1.83a14.913,14.913,0,0,1-1.58-1.89,13.709,13.709,0,0,1-1.57,1.92,18.193,18.193,0,0,1-2.03,1.8.719.719,0,0,1-.36.16.463.463,0,0,1-.36-.14l-.8-.84Q96.88-7.14,97.12-7.46ZM129.56-8.7h2.94v1.38a.86.86,0,0,1-.16.52.5.5,0,0,1-.42.22h-2.36V1.3a.689.689,0,0,1-.22.5L128.2,2.94a.98.98,0,0,1-.46.16h-.54V-15.1h1.6a.868.868,0,0,1,.53.17.5.5,0,0,1,.23.41Zm-8.38-4.34h4.12v1.38a.86.86,0,0,1-.16.52.5.5,0,0,1-.42.22h-9.44a.5.5,0,0,1-.42-.22.86.86,0,0,1-.16-.52v-1.38h4.12v-2.38h1.62a.86.86,0,0,1,.52.16.5.5,0,0,1,.22.42Zm-4.44,4.3a4.343,4.343,0,0,1,3.26-1.4,4.343,4.343,0,0,1,3.26,1.4,4.719,4.719,0,0,1,1.36,3.38,4.743,4.743,0,0,1-1.36,3.4A4.343,4.343,0,0,1,120-.56a4.365,4.365,0,0,1-3.28-1.4,4.736,4.736,0,0,1-1.34-3.4A4.719,4.719,0,0,1,116.74-8.74ZM120-2.7a2.2,2.2,0,0,0,1.68-.76,2.764,2.764,0,0,0,.7-1.88,2.671,2.671,0,0,0-.7-1.88A2.181,2.181,0,0,0,120-8a2.142,2.142,0,0,0-1.68.78,2.671,2.671,0,0,0-.7,1.88,2.764,2.764,0,0,0,.7,1.88A2.2,2.2,0,0,0,120-2.7Zm22.2-9.62a1.038,1.038,0,0,1,.32.76V-1.48a.5.5,0,0,1-.22.42.86.86,0,0,1-.52.16h-1.62v-11H134a.483.483,0,0,1-.43-.23.914.914,0,0,1-.15-.51v-1.38h6.66a1.032,1.032,0,0,1,.74.34Zm4.98-2.78a.873.873,0,0,1,.51.16.49.49,0,0,1,.23.42V1.32a.689.689,0,0,1-.22.5l-1.14,1.14a.633.633,0,0,1-.46.14h-.54V-15.1Z" transform="translate(-0.58 15.96)" fill="#fff"/>
</svg>
