<svg xmlns="http://www.w3.org/2000/svg" width="303.664" height="46.012" viewBox="0 0 303.664 46.012">
  <path id="패스_6" data-name="패스 6" d="M-71.451-6.906v8.4h-1.237V-14.518h1.237v6.491h2.706v1.121Zm-7.7,4.341a3.536,3.536,0,0,1-2.938-1.453A6.388,6.388,0,0,1-83.214-8.01a6.411,6.411,0,0,1,1.108-4,3.541,3.541,0,0,1,2.951-1.436A3.531,3.531,0,0,1-76.2-11.99a6.428,6.428,0,0,1,1.108,3.98A6.425,6.425,0,0,1-76.2-4.022,3.534,3.534,0,0,1-79.155-2.565Zm0-9.778a2.38,2.38,0,0,0-2.054,1.166,5.6,5.6,0,0,0-.784,3.167A5.6,5.6,0,0,0-81.2-4.856a2.378,2.378,0,0,0,2.046,1.187,2.378,2.378,0,0,0,2.042-1.2,5.581,5.581,0,0,0,.8-3.146,5.631,5.631,0,0,0-.78-3.163A2.375,2.375,0,0,0-79.155-12.343ZM-55.318,1.494V-6.458H-57.36V1h-1.22v-15.2h1.22v6.632h2.042v-6.956h1.245V1.494ZM-66.806-2.175V-8.417h4.9v-3.536h-4.9v-1.1h6.134v5.711h-4.9v4.084h1.826a32.614,32.614,0,0,0,4.159-.158l.158,1.038a10.687,10.687,0,0,1-1.83.17Q-62.49-2.175-66.806-2.175Zm31.071-3.1V-9.812H-39.47v-1.1h3.735v-3.6h1.245v9.247Zm-3.437-.913a10.083,10.083,0,0,1-2.183-1.652A7.2,7.2,0,0,1-42.89-9.828a8.479,8.479,0,0,1-1.577,2.237A9.341,9.341,0,0,1-46.7-5.777l-.88-.855A7.678,7.678,0,0,0-44.7-9.015a5.408,5.408,0,0,0,1.162-3.279V-12.7h-3.52v-1.1h8.243v1.1h-3.52v.407a4.79,4.79,0,0,0,1.2,3.071,7.163,7.163,0,0,0,2.8,2.133ZM-39.4,1.262A7.228,7.228,0,0,1-43.276.394a2.585,2.585,0,0,1-1.365-2.245A2.567,2.567,0,0,1-43.28-4.088,7.28,7.28,0,0,1-39.4-4.947a7.28,7.28,0,0,1,3.876.859,2.567,2.567,0,0,1,1.361,2.237A2.585,2.585,0,0,1-35.531.394,7.228,7.228,0,0,1-39.4,1.262Zm0-5.155a5.921,5.921,0,0,0-2.905.577,1.686,1.686,0,0,0-1,1.465A1.682,1.682,0,0,0-42.3-.382a5.961,5.961,0,0,0,2.9.573,6,6,0,0,0,2.9-.569,1.678,1.678,0,0,0,1.013-1.473,1.682,1.682,0,0,0-1-1.469A5.957,5.957,0,0,0-39.4-3.893Zm15.81-1.561v3.445h6.8V-.9H-31.654v-1.1h6.8V-5.454h-4.4V-13.14h1.237v2.772h7.587V-13.14h1.22v7.687Zm3.163-3.793h-7.587v2.665h7.587Zm17.727.9H-13.089v-3.461h8.807V-13.19h-8.807v-1.054H-3.061v3.4h-8.807V-9.4H-2.7Zm2.059,2.4H-15.5V-7.006H-.646Zm-2.025,7.28H-13.138v-3.5h8.89V-3.553h-8.89V-4.607h10.11v3.42h-8.89V.274h9.247ZM16.356-5.288V-9.795H12.529v-1.121h3.827v-3.6h1.237v9.23ZM13.085-6.1A10.5,10.5,0,0,1,10.9-7.732,6.887,6.887,0,0,1,9.367-9.687a8.06,8.06,0,0,1-1.561,2.2,9.083,9.083,0,0,1-2.25,1.793l-.88-.847a7.769,7.769,0,0,0,2.9-2.386,5.326,5.326,0,0,0,1.146-3.225V-12.7H5.2v-1.1h8.243v1.1H9.923v.548a4.725,4.725,0,0,0,1.191,3.03,7.084,7.084,0,0,0,2.81,2.117Zm3.271,7.6V-3.279H7.175v-1.1H17.593V1.494ZM29.576-7.5a5.935,5.935,0,0,1-1.241,3.656,3.553,3.553,0,0,1-2.8,1.274,3.54,3.54,0,0,1-2.947-1.457A6.391,6.391,0,0,1,21.466-8.01a6.414,6.414,0,0,1,1.108-4,3.545,3.545,0,0,1,2.959-1.44,3.525,3.525,0,0,1,2.8,1.274A5.854,5.854,0,0,1,29.559-8.6h2.963v-5.918h1.237V1.494H32.522V-7.5Zm-4.042-4.848a2.372,2.372,0,0,0-2.063,1.17,5.655,5.655,0,0,0-.776,3.163,5.61,5.61,0,0,0,.789,3.163,2.378,2.378,0,0,0,2.05,1.179,2.378,2.378,0,0,0,2.042-1.2,5.581,5.581,0,0,0,.8-3.146,5.631,5.631,0,0,0-.78-3.163A2.375,2.375,0,0,0,25.533-12.343ZM50.266-7.886A9.9,9.9,0,0,1,46.585-9.2a6.636,6.636,0,0,1-2.4-2.1,6.615,6.615,0,0,1-2.345,2.117,10.1,10.1,0,0,1-3.706,1.4l-.764-1.038A9.143,9.143,0,0,0,41.4-10.21a4.238,4.238,0,0,0,2.121-2.606H38.4v-1.1H49.959v1.1h-5.13a4.08,4.08,0,0,0,2.075,2.59A9.231,9.231,0,0,0,51-8.89ZM44.813-4.947V1.494H43.551V-4.947h-6.8v-1.1H51.611v1.1ZM64.972,1.494V-14.518h1.245V1.494ZM61.842-2.565a13.351,13.351,0,0,1-2.519-2.586,8.6,8.6,0,0,1-1.49-2.685,9.735,9.735,0,0,1-1.519,2.864,12.7,12.7,0,0,1-2.474,2.606l-.955-.83a9.951,9.951,0,0,0,3.146-3.391,8.428,8.428,0,0,0,1.17-4.2v-2.623h1.229v2.565A7.961,7.961,0,0,0,59.589-6.79a9.574,9.574,0,0,0,3.125,3.254Zm19.3-.257V-7.313h-3.2v1.569H70.6v-7.869h7.346v1.577h3.2v-2.482h1.245v11.7Zm-4.433-9.687H71.842v5.661h4.864Zm4.433,1.544h-3.2v2.582h3.2Zm-8.55,12V-4.009h1.245V-.066h9.04v1.1ZM-139.29,20.5v3.387h-1.237v-8.4h1.237v3.91h2.416v1.1Zm-11.928-3.279v-1.1h8.649v1.1Zm9.5,5.728a14.6,14.6,0,0,1-2.822.224h-7.122V22.081h2.158l-.174-4.067h1.212l.166,4.067h2.822l.166-4.067h1.212l-.174,4.051a14.514,14.514,0,0,0,2.449-.174Zm-7.346,8.176V27.344h8.55V25.85h-8.55V24.762h9.77v3.677h-8.55v1.577h9v1.1Zm25.82.374V15.482h1.262V31.494Zm-2.889-.423V23.334H-128.4v-1.1h2.274V15.806h1.22V31.071Zm-8.583-2.988V21.649h4.433V18.03h-4.433v-1.1h5.678V22.72h-4.441v4.25a41.189,41.189,0,0,0,5.445-.216l.133,1.054A51.863,51.863,0,0,1-134.711,28.083Zm27.738-9.953h-8.94v2.316h8.483v1.1h-8.483v2.191h9.2v1.1h-10.417v-7.8h10.16Zm-12.559,10.849v-1.1h14.858v1.1Zm28.609-5.794v8.309h-1.237V15.482h1.237v6.6h2.872v1.1Zm-3.943-6.275q-.183,6.815-7.205,10.8l-.955-1a11.919,11.919,0,0,0,4.507-3.362,9.646,9.646,0,0,0,2.324-5.329h-6.151v-1.1Zm24.19,5.545v5.063h-1.237V15.482h1.237v5.869h2.482v1.1Zm-2.366,2.582q-1.4.1-4.914.2t-5.213.1l-.125-1.1q2.457,0,4.524-.05V22.4A4.149,4.149,0,0,1-81.3,21.371a2.84,2.84,0,0,1-.926-2.146,2.865,2.865,0,0,1,1.1-2.312A4.492,4.492,0,0,1-78.171,16a4.438,4.438,0,0,1,2.938.909,2.882,2.882,0,0,1,1.087,2.312,2.865,2.865,0,0,1-.9,2.133A4.037,4.037,0,0,1-77.523,22.4v1.727q3.3-.083,4.416-.166Zm-5.13-7.977a3.305,3.305,0,0,0-2.067.594,1.887,1.887,0,0,0-.772,1.573,1.888,1.888,0,0,0,.768,1.556,3.269,3.269,0,0,0,2.071.6,3.218,3.218,0,0,0,2.063-.606,1.9,1.9,0,0,0,.76-1.552,1.9,1.9,0,0,0-.764-1.569A3.253,3.253,0,0,0-78.171,17.059Zm-2.5,14.045V26.58h1.237V30h9.164v1.1Zm25.463-6.375V19.956h-3.735V18.844h3.735V15.482h1.245v9.247Zm-3.437-.913a10.083,10.083,0,0,1-2.183-1.652,7.2,7.2,0,0,1-1.536-1.992,8.479,8.479,0,0,1-1.577,2.237,9.341,9.341,0,0,1-2.233,1.814l-.88-.855a7.678,7.678,0,0,0,2.88-2.382,5.408,5.408,0,0,0,1.162-3.279V16h1.2v1.7a4.79,4.79,0,0,0,1.2,3.071,7.163,7.163,0,0,0,2.8,2.133Zm-.232,7.446a7.228,7.228,0,0,1-3.872-.867,2.585,2.585,0,0,1-1.365-2.245,2.567,2.567,0,0,1,1.361-2.237,7.28,7.28,0,0,1,3.876-.859A7.28,7.28,0,0,1-55,25.912a2.567,2.567,0,0,1,1.361,2.237A2.585,2.585,0,0,1-55,30.394,7.228,7.228,0,0,1-58.875,31.262Zm0-5.155a5.921,5.921,0,0,0-2.905.577,1.686,1.686,0,0,0-1,1.465,1.682,1.682,0,0,0,1.009,1.469,5.961,5.961,0,0,0,2.9.573,6,6,0,0,0,2.9-.569,1.678,1.678,0,0,0,1.013-1.473,1.682,1.682,0,0,0-1-1.469A5.957,5.957,0,0,0-58.875,26.107Zm23.725,5.387V15.482H-33.9V31.494Zm-11.663-2.855-.116-1.087h.872q2.465,0,3.943-.033V23.691h-3.47V17.009H-37.7v1.1h-6.649v4.474h6.84v1.1h-3.37v3.793q3.154-.042,4.541-.174l.083,1.071q-1.453.116-5.138.187T-46.812,28.639ZM-28.5,21.434V16.063h1.237V20.33H-18.5v1.1Zm-2.673,3.329V23.642H-16.31v1.121Zm2.6,6.118V26.124h1.245v3.636h8.857V30.88Zm25.945.614V23.168H-4.684V31H-5.9v-15.2h1.22v6.259h2.059V15.482H-1.38V31.494Zm-4.458-4.557q-2.324.241-6.815.241V16.893h6.143V18h-4.914v8.077h1.478a33.6,33.6,0,0,0,4.026-.191ZM3.373,20.33h9.064V17.964H3.406V16.876H13.674V21.4H4.634v2.648h9.5v1.1H9.191v2.914h6.8v1.1H1.131v-1.1H7.946V25.152H3.373Zm30.258.133v3.262H32.394V15.482h1.237v3.876h2.416v1.1Zm-7.886,2.723a4.108,4.108,0,0,1-2.934-1.058,3.719,3.719,0,0,1,0-5.333,4.121,4.121,0,0,1,2.93-1.054,4.139,4.139,0,0,1,2.93,1.054,3.69,3.69,0,0,1,0,5.329A4.12,4.12,0,0,1,25.745,23.185Zm0-6.375a2.861,2.861,0,0,0-2.05.73,2.518,2.518,0,0,0-.772,1.917,2.525,2.525,0,0,0,.772,1.93,2.87,2.87,0,0,0,2.05.726,2.87,2.87,0,0,0,2.05-.726,2.525,2.525,0,0,0,.772-1.93,2.518,2.518,0,0,0-.772-1.917A2.861,2.861,0,0,0,25.745,16.81ZM23.927,31.121V27.244H32.41V25.717H23.927v-1.1h9.7v3.7H25.147v1.7h8.915v1.1ZM46.369,24.9V23.791h2.98V20.545H46.46v-1.1h2.889V15.482h1.245V31.494H49.349V24.9Zm-.224,2.673a49.431,49.431,0,0,1-7.529.357V21.591h5.42V18.039H38.649v-1.1H45.3v5.728H39.853v4.184q3.237,0,4.175-.042a13.43,13.43,0,0,0,1.934-.232Zm19.587-9.5H57.148v4.98h8.84v1.112H55.9v-7.2h9.828ZM53.388,28.722v-1.1H68.247v1.1Zm28.053,2.772V15.482h1.237V31.494Zm-10.7-3.453v-6.35h6.093V18H70.742v-1.1h7.33v5.869H71.987v4.175a49.735,49.735,0,0,0,7.628-.34l.141,1.071A64.686,64.686,0,0,1,70.742,28.041Zm27.306-3.279v-9.28h1.237v9.28Zm-2.889-.357v-3.52H92.611V19.8h2.548V15.806h1.2v8.6Zm-1.976-8q-.257,5.761-6.217,8.566L86.078,24a9.776,9.776,0,0,0,3.993-2.673,6.944,6.944,0,0,0,1.768-3.835H86.95V16.4Zm6.666,14.8a6.942,6.942,0,0,1-1.731-1.374A6.119,6.119,0,0,1,96.944,28.2a6.054,6.054,0,0,1-1.2,1.76A7.579,7.579,0,0,1,94,31.395l-.9-.813a6.067,6.067,0,0,0,2.345-2,4.707,4.707,0,0,0,.867-2.71v-.623h1.2v.623a4.481,4.481,0,0,0,.913,2.706,5.071,5.071,0,0,0,2.341,1.785Zm-6.715-1.121a5.047,5.047,0,0,1-2.059-2.092,6.549,6.549,0,0,1-1.22,1.847,7.321,7.321,0,0,1-1.768,1.49l-.955-.78a6.513,6.513,0,0,0,2.378-2,4.488,4.488,0,0,0,.917-2.677V25.26h1.229v.606A3.514,3.514,0,0,0,92.333,28a3.45,3.45,0,0,0,1.706,1.274Zm22.135-8.857a10.031,10.031,0,0,1-3.619-1.241,6.741,6.741,0,0,1-2.366-2.021,6.748,6.748,0,0,1-2.345,1.98,9.867,9.867,0,0,1-3.59,1.266l-.73-1a8.489,8.489,0,0,0,4.283-1.461q1.751-1.245,1.751-2.432v-.54h1.229v.54q0,1.212,1.751,2.461a8.352,8.352,0,0,0,4.283,1.448Zm-13.431,2.59V22.7H116.7v1.112Zm2.449,7.238V25.086h1.22v1.992h7.5V25.086h1.22v5.968Zm8.724-2.889h-7.5v1.8h7.5Zm17.046,3.329V15.482H131.3V31.494Zm-1.22-5.063q-1.295.374-9.114.374V16.843h1.237V25.7h1.1a41.467,41.467,0,0,0,6.624-.34Zm17.76-3.52v8.583h-1.237V15.482H146.6v6.309h2.822v1.121Zm-2.772,3.81q-1.361.166-2.781.2t-5.752.033V16.893h7.479V18h-6.234V25.85a69.126,69.126,0,0,0,7.188-.2Zm7.243,3.461a.881.881,0,0,1-.652-.274.9.9,0,0,1-.27-.656.916.916,0,0,1,.27-.66.875.875,0,0,1,.652-.278.9.9,0,0,1,.664.278.908.908,0,0,1,.274.66.9.9,0,0,1-.274.656A.9.9,0,0,1,151.068,30.183Z" transform="translate(151.658 14.518)" fill="#444"/>
</svg>
