<svg xmlns="http://www.w3.org/2000/svg" width="89.62" height="19.68" viewBox="0 0 89.62 19.68">
  <path id="패스_7" data-name="패스 7" d="M15.98-4.36a.873.873,0,0,1,.51.16.49.49,0,0,1,.23.42V2.34a.868.868,0,0,1-.17.53.515.515,0,0,1-.43.23H6.6a1.052,1.052,0,0,1-.76-.34L4.48,1.4A1.038,1.038,0,0,1,4.16.64v-5H5.78a.914.914,0,0,1,.51.15.483.483,0,0,1,.23.43v1.04h7.84V-4.36ZM8.88-7.22A4.174,4.174,0,0,1,5.74-5.88,4.2,4.2,0,0,1,2.6-7.2a4.435,4.435,0,0,1-1.3-3.2,4.436,4.436,0,0,1,.35-1.76A4.707,4.707,0,0,1,2.6-13.6a4.331,4.331,0,0,1,1.41-.97,4.314,4.314,0,0,1,1.73-.35A4.246,4.246,0,0,1,8.88-13.6a4.435,4.435,0,0,1,1.3,3.2A4.412,4.412,0,0,1,8.88-7.22ZM16.5-15.1a.9.9,0,0,1,.52.15.471.471,0,0,1,.22.41v8.52a.474.474,0,0,1-.23.4.873.873,0,0,1-.51.16H14.88V-9.24H13.24v3.22a.474.474,0,0,1-.23.4.873.873,0,0,1-.51.16H10.88V-15.1H12.5a.914.914,0,0,1,.51.15.466.466,0,0,1,.23.41v3.18h1.64V-15.1ZM3.44-10.38a2.433,2.433,0,0,0,.66,1.7,2.175,2.175,0,0,0,1.64.72,2.113,2.113,0,0,0,1.62-.72,2.374,2.374,0,0,0,.68-1.72,2.374,2.374,0,0,0-.68-1.72,2.113,2.113,0,0,0-1.62-.72,2.175,2.175,0,0,0-1.64.72,2.458,2.458,0,0,0-.66,1.72ZM14.36.98V-.62H6.52V.98ZM37.18-15.1a.914.914,0,0,1,.51.15.483.483,0,0,1,.23.43V-4.44a.483.483,0,0,1-.23.43.914.914,0,0,1-.51.15H35.56V-15.1ZM27.7.98H37.92V2.34a.963.963,0,0,1-.15.52.478.478,0,0,1-.43.24H27.8a.891.891,0,0,1-.4-.08,1.359,1.359,0,0,1-.34-.26L25.68,1.62a1.159,1.159,0,0,1-.25-.34,1,1,0,0,1-.07-.4V-3.64h1.6a.914.914,0,0,1,.51.15.483.483,0,0,1,.23.43Zm3.78-6.66a20.217,20.217,0,0,1-1.98-2.1Q28.32-9.24,27.96-9.8a17.891,17.891,0,0,1-1.68,2.12q-.58.66-1.06,1.16t-.86.84a.45.45,0,0,1-.72,0l-.8-.82q-.38-.44-.14-.76a20.162,20.162,0,0,0,1.51-1.51,19.542,19.542,0,0,0,1.27-1.57,6.188,6.188,0,0,0,1.28-2.6,1.457,1.457,0,0,0,.02-.24V-14.8H28.4a1.09,1.09,0,0,1,.58.11.4.4,0,0,1,.16.35v.9a2.679,2.679,0,0,0,.1.72,9.711,9.711,0,0,0,1.24,2.46,15.968,15.968,0,0,0,2.68,3,.519.519,0,0,1,.16.38.515.515,0,0,1-.22.4l-.86.82A.483.483,0,0,1,31.48-5.68ZM53.5-3.56A3.64,3.64,0,0,1,55.3-.54a3.552,3.552,0,0,1-1.82,3,7.376,7.376,0,0,1-4.34,1.26A7.376,7.376,0,0,1,44.8,2.46a3.558,3.558,0,0,1-1.8-3,2.745,2.745,0,0,1,.46-1.64,4.878,4.878,0,0,1,1.35-1.37,6.988,6.988,0,0,1,1.97-.93,7.651,7.651,0,0,1,2.36-.32A7.556,7.556,0,0,1,53.5-3.56ZM46.48,1a5.273,5.273,0,0,0,2.66.64A5.316,5.316,0,0,0,51.82,1a2.651,2.651,0,0,0,.85-.72,1.383,1.383,0,0,0,.29-.82,1.383,1.383,0,0,0-.29-.82,2.651,2.651,0,0,0-.85-.72,5.931,5.931,0,0,0-5.36,0,2.588,2.588,0,0,0-.82.72,1.415,1.415,0,0,0-.28.82,1.415,1.415,0,0,0,.28.82A2.536,2.536,0,0,0,46.48,1Zm8.64-16.1a.9.9,0,0,1,.52.15.471.471,0,0,1,.22.41V-5.5a.5.5,0,0,1-.22.42.86.86,0,0,1-.52.16H53.5V-8.74H50.62a.49.49,0,0,1-.42-.23.873.873,0,0,1-.16-.51v-1.38H53.5V-15.1Zm-15,7.64a19.743,19.743,0,0,0,2.25-2,10,10,0,0,0,1.49-1.98H40.88a.478.478,0,0,1-.43-.24.963.963,0,0,1-.15-.52v-1.36h3.86v-2.4h1.62a.838.838,0,0,1,.51.17.515.515,0,0,1,.23.43v1.8h3.86v1.36a.905.905,0,0,1-.16.53.49.49,0,0,1-.42.23H46.82a15.774,15.774,0,0,0,3.76,3.98.421.421,0,0,1,.17.37.556.556,0,0,1-.23.41l-.86.8a.475.475,0,0,1-.76,0q-.98-.84-1.94-1.83A14.912,14.912,0,0,1,45.38-9.6a13.709,13.709,0,0,1-1.57,1.92,18.192,18.192,0,0,1-2.03,1.8.719.719,0,0,1-.36.16.463.463,0,0,1-.36-.14l-.8-.84Q39.88-7.14,40.12-7.46ZM72.56-8.7H75.5v1.38a.86.86,0,0,1-.16.52.5.5,0,0,1-.42.22H72.56V1.3a.689.689,0,0,1-.22.5L71.2,2.94a.98.98,0,0,1-.46.16H70.2V-15.1h1.6a.868.868,0,0,1,.53.17.5.5,0,0,1,.23.41Zm-8.38-4.34H68.3v1.38a.86.86,0,0,1-.16.52.5.5,0,0,1-.42.22H58.28a.5.5,0,0,1-.42-.22.86.86,0,0,1-.16-.52v-1.38h4.12v-2.38h1.62a.86.86,0,0,1,.52.16.5.5,0,0,1,.22.42Zm-4.44,4.3A4.343,4.343,0,0,1,63-10.14a4.343,4.343,0,0,1,3.26,1.4,4.719,4.719,0,0,1,1.36,3.38,4.743,4.743,0,0,1-1.36,3.4A4.343,4.343,0,0,1,63-.56a4.365,4.365,0,0,1-3.28-1.4,4.736,4.736,0,0,1-1.34-3.4A4.719,4.719,0,0,1,59.74-8.74ZM63-2.7a2.2,2.2,0,0,0,1.68-.76,2.764,2.764,0,0,0,.7-1.88,2.671,2.671,0,0,0-.7-1.88A2.181,2.181,0,0,0,63-8a2.142,2.142,0,0,0-1.68.78,2.671,2.671,0,0,0-.7,1.88,2.764,2.764,0,0,0,.7,1.88A2.2,2.2,0,0,0,63-2.7Zm22.2-9.62a1.038,1.038,0,0,1,.32.76V-1.48a.5.5,0,0,1-.22.42.86.86,0,0,1-.52.16H83.16v-11H77a.483.483,0,0,1-.43-.23.914.914,0,0,1-.15-.51v-1.38h6.66a1.032,1.032,0,0,1,.74.34Zm4.98-2.78a.873.873,0,0,1,.51.16.49.49,0,0,1,.23.42V1.32a.689.689,0,0,1-.22.5L89.56,2.96a.633.633,0,0,1-.46.14h-.54V-15.1Z" transform="translate(-1.3 15.96)" fill="#fff"/>
</svg>
