<svg xmlns="http://www.w3.org/2000/svg" width="361.327" height="34.031" viewBox="0 0 361.327 34.031">
  <path id="패스_2" data-name="패스 2" d="M28.535-44.108a1.7,1.7,0,0,1,.993.308.984.984,0,0,1,.445.856v17.255a.984.984,0,0,1-.445.856,1.7,1.7,0,0,1-.993.308H25.591V-44.108ZM12.478-16.583H29.973v2.5a1.784,1.784,0,0,1-.308,1.01.974.974,0,0,1-.856.462H12.478a1.73,1.73,0,0,1-.736-.137,2.864,2.864,0,0,1-.668-.479L8.747-15.179a1.934,1.934,0,0,1-.616-1.4v-7.909h2.91a1.775,1.775,0,0,1,.993.291.974.974,0,0,1,.445.873Zm6.162-11.127q-1.575-1.541-3.115-3.27a32.361,32.361,0,0,1-2.773-3.578,30.3,30.3,0,0,1-2.842,3.612Q8.3-29.181,6.692-27.675a1.047,1.047,0,0,1-.753.342.909.909,0,0,1-.685-.342L3.885-29.113A1.174,1.174,0,0,1,3.406-30a1.1,1.1,0,0,1,.205-.616q.856-.787,2.037-2.054a34.7,34.7,0,0,0,2.26-2.688,21.071,21.071,0,0,0,1.849-2.876,6.14,6.14,0,0,0,.8-2.653v-2.7h2.944a1.927,1.927,0,0,1,1.13.24.854.854,0,0,1,.308.719V-41.1a7.2,7.2,0,0,0,.8,2.79,20.388,20.388,0,0,0,1.763,2.91,27.845,27.845,0,0,0,2.191,2.67q1.164,1.25,2.088,2.071a1.025,1.025,0,0,1,.308.753,1.212,1.212,0,0,1-.411.856l-1.472,1.369a1.113,1.113,0,0,1-.787.377A1.159,1.159,0,0,1,18.641-27.709ZM56.917-24.32q3.15,2.26,3.15,5.307,0,3.115-3.184,5.307A13,13,0,0,1,49.35-11.55,15.032,15.032,0,0,1,45.876-12a12.723,12.723,0,0,1-3.458-1.369,9.067,9.067,0,0,1-2.67-2.328,5.293,5.293,0,0,1-1.078-3.321,5.394,5.394,0,0,1,.839-2.893A8.236,8.236,0,0,1,41.8-24.286a11.613,11.613,0,0,1,3.406-1.609,14.422,14.422,0,0,1,4.143-.582A13.064,13.064,0,0,1,56.917-24.32ZM43.051-19.013a2.254,2.254,0,0,0,.668,1.66,5.078,5.078,0,0,0,1.643,1.078,10.133,10.133,0,0,0,2.071.616,10.579,10.579,0,0,0,1.917.205h.034a10.308,10.308,0,0,0,1.9-.205,10.579,10.579,0,0,0,2.071-.616,5.241,5.241,0,0,0,1.678-1.078,2.225,2.225,0,0,0,.685-1.66,2.281,2.281,0,0,0-.685-1.678,5.092,5.092,0,0,0-1.678-1.1,9.773,9.773,0,0,0-2.088-.6,11.507,11.507,0,0,0-1.917-.188,11.065,11.065,0,0,0-1.866.188,8.909,8.909,0,0,0-2.054.616,5.366,5.366,0,0,0-1.66,1.113A2.368,2.368,0,0,0,43.051-19.013ZM59.587-44.108a1.683,1.683,0,0,1,1.01.308.964.964,0,0,1,.428.822V-27.5a1.008,1.008,0,0,1-.428.839,1.622,1.622,0,0,1-1.01.325H56.643v-6.539H51.884a1,1,0,0,1-.839-.445,1.643,1.643,0,0,1-.325-.993V-36.85h5.923v-7.258ZM34.013-29.455a1.932,1.932,0,0,1-.308-.411,1.018,1.018,0,0,1-.137-.514.859.859,0,0,1,.411-.753q1.986-1.678,3.509-3.167A15.008,15.008,0,0,0,40-37.5H35.211a.945.945,0,0,1-.822-.462,2.018,2.018,0,0,1-.342-1.01v-2.5h6.608v-4.108H43.6a1.8,1.8,0,0,1,.959.359,1.068,1.068,0,0,1,.479.8v2.944h6.608v2.5a1.7,1.7,0,0,1-.325,1.027,1,1,0,0,1-.839.445H45.721a18.2,18.2,0,0,0,2.636,3.27q1.541,1.524,3.458,3.167a1.051,1.051,0,0,1,.342.822,1.19,1.19,0,0,1-.086.428,1.12,1.12,0,0,1-.257.394q-.377.377-.753.719l-.753.685a.985.985,0,0,1-.719.308,1,1,0,0,1-.377-.068,2.1,2.1,0,0,1-.377-.205,28.647,28.647,0,0,1-3.2-2.979,39.73,39.73,0,0,1-2.756-3.287q-.616.822-1.352,1.695T40-30.859q-.787.822-1.609,1.558a20.08,20.08,0,0,1-1.575,1.284,1.939,1.939,0,0,1-.342.223,1.341,1.341,0,0,1-.411.12.986.986,0,0,1-.685-.342ZM97.692-44.108a1.668,1.668,0,0,1,.976.325.986.986,0,0,1,.462.839v27.115a1.429,1.429,0,0,1-.411.993l-1.986,1.951a1.473,1.473,0,0,1-.89.274h-1.1v-16.57H92.282v13.352a1.409,1.409,0,0,1-.479.993l-.976.976-.976.976a1.327,1.327,0,0,1-.856.274H87.9v-31.5h2.91a1.7,1.7,0,0,1,1.027.325,1,1,0,0,1,.445.839v9.791h2.465V-44.108ZM71.3-27.264a8.8,8.8,0,0,1,.565-3.115,8.881,8.881,0,0,1,1.558-2.67,7.551,7.551,0,0,1,2.4-1.866,6.868,6.868,0,0,1,3.115-.7,6.792,6.792,0,0,1,3.081.7,7.749,7.749,0,0,1,2.414,1.866,8.429,8.429,0,0,1,1.558,2.67,9.047,9.047,0,0,1,.548,3.115,9.191,9.191,0,0,1-.548,3.133,8.388,8.388,0,0,1-1.558,2.688,7.749,7.749,0,0,1-2.414,1.866,6.792,6.792,0,0,1-3.081.7,6.868,6.868,0,0,1-3.115-.7,7.551,7.551,0,0,1-2.4-1.866,8.83,8.83,0,0,1-1.558-2.688A8.942,8.942,0,0,1,71.3-27.264Zm7.6,4.382a3.023,3.023,0,0,0,1.369-.325,3.365,3.365,0,0,0,1.13-.924,4.636,4.636,0,0,0,.753-1.387,5.071,5.071,0,0,0,.274-1.678,5.178,5.178,0,0,0-.274-1.712,4.636,4.636,0,0,0-.753-1.387,3.562,3.562,0,0,0-1.13-.941,2.9,2.9,0,0,0-1.369-.342,2.8,2.8,0,0,0-1.352.342,3.444,3.444,0,0,0-1.1.941,4.868,4.868,0,0,0-.736,1.387,5.07,5.07,0,0,0-.274,1.678,5.222,5.222,0,0,0,.274,1.695,4.581,4.581,0,0,0,.736,1.387,3.536,3.536,0,0,0,1.1.924A2.8,2.8,0,0,0,78.9-22.882Zm2.225-17.7h6.06v2.533a1.621,1.621,0,0,1-.325,1.01,1.008,1.008,0,0,1-.839.428H71.843A.986.986,0,0,1,71-37.073a1.668,1.668,0,0,1-.325-.976v-2.533h6.06v-4.074h2.944a1.643,1.643,0,0,1,.993.325,1,1,0,0,1,.445.839ZM109.64-30.311a1.143,1.143,0,0,1-.308-.787,1.174,1.174,0,0,1,.479-.89L113.44-34.8q1.678-1.438,2.807-2.482a15.384,15.384,0,0,0,1.609-1.66l.359-.411q.12-.137.205-.24a1.54,1.54,0,0,0,.154-.223q.068-.12.171-.325h-6.676a1.068,1.068,0,0,1-.8-.479,1.8,1.8,0,0,1-.359-.959v-2.533h21.945v2.533a1.975,1.975,0,0,1-.342.976.974.974,0,0,1-.856.462h-6.71a23.3,23.3,0,0,0,4.108,4.382q2.362,1.951,4.725,3.732a1.048,1.048,0,0,1,.479.89,1.186,1.186,0,0,1-.308.822l-1.2,1.438a1.393,1.393,0,0,1-.89.445,1.887,1.887,0,0,1-.787-.274q-2.362-1.678-4.759-3.732a39.336,39.336,0,0,1-4.451-4.485q-1.13,1.232-2.225,2.311t-2.225,2.071q-1.13.993-2.328,1.934t-2.533,1.934a1.519,1.519,0,0,1-.753.24,1.267,1.267,0,0,1-.959-.445Zm-2.294,3.252h29.032v2.533a1.621,1.621,0,0,1-.325,1.01,1.008,1.008,0,0,1-.839.428H124.053v7.258a1.429,1.429,0,0,1-.411.993l-1.986,1.951a1.473,1.473,0,0,1-.89.274h-1.1V-23.087h-11.2a.967.967,0,0,1-.8-.445,1.643,1.643,0,0,1-.325-.993Zm56.969-17.05a1.7,1.7,0,0,1,1.027.325,1,1,0,0,1,.445.839v27.115a1.429,1.429,0,0,1-.411.993l-1.986,1.951a1.473,1.473,0,0,1-.89.274h-1.1V-27.47h-4.793a1.008,1.008,0,0,1-.839-.428,1.621,1.621,0,0,1-.325-1.01v-2.533H161.4v-3.081h-4.793a1,1,0,0,1-.839-.445,1.643,1.643,0,0,1-.325-.993v-2.533H161.4v-5.615Zm-7.053,21.363a1.113,1.113,0,0,1,.377.787,1.153,1.153,0,0,1-.514.89l-1.541,1.3a1.276,1.276,0,0,1-.753.274,1.081,1.081,0,0,1-.856-.479,20.28,20.28,0,0,1-1.678-2.037q-.89-1.215-1.763-2.551t-1.643-2.653q-.77-1.318-1.318-2.345a18.358,18.358,0,0,1-1.1,2.106q-.753,1.284-1.678,2.67t-1.917,2.722a23.132,23.132,0,0,1-1.814,2.191,1.463,1.463,0,0,1-.77.445.846.846,0,0,1-.77-.342l-1.575-1.267a1.1,1.1,0,0,1-.445-.856,1.456,1.456,0,0,1,.377-.856q1.2-1.438,2.516-3.27a38.9,38.9,0,0,0,2.431-3.834,25.813,25.813,0,0,0,1.832-4.074,12.055,12.055,0,0,0,.719-3.954V-42.26h2.944a2.06,2.06,0,0,1,.993.24.771.771,0,0,1,.445.719v3.321a12.869,12.869,0,0,0,.907,4.742,27.307,27.307,0,0,0,2.174,4.365A51.678,51.678,0,0,0,157.262-22.745Zm37.865-21.363a1.7,1.7,0,0,1,1.027.325,1,1,0,0,1,.445.839v27.081a1.514,1.514,0,0,1-.411.993l-1.951,1.917a1.249,1.249,0,0,1-.924.342h-1.1v-16.57h-4.793a1.008,1.008,0,0,1-.839-.428,1.621,1.621,0,0,1-.325-1.01v-2.533h5.957V-44.108Zm-7.053,21.363a1.113,1.113,0,0,1,.377.787,1.153,1.153,0,0,1-.514.89l-1.541,1.3a1.276,1.276,0,0,1-.753.274,1.081,1.081,0,0,1-.856-.479,20.282,20.282,0,0,1-1.678-2.037q-.89-1.215-1.763-2.551T179.7-27.213q-.77-1.318-1.318-2.345a18.363,18.363,0,0,1-1.1,2.106q-.753,1.284-1.678,2.67T173.7-22.06a23.135,23.135,0,0,1-1.815,2.191,1.463,1.463,0,0,1-.77.445.846.846,0,0,1-.77-.342l-1.575-1.267a1.1,1.1,0,0,1-.445-.856,1.456,1.456,0,0,1,.377-.856q1.2-1.438,2.516-3.27a38.906,38.906,0,0,0,2.431-3.834,25.814,25.814,0,0,0,1.832-4.074,12.055,12.055,0,0,0,.719-3.954V-42.26h2.944a2.06,2.06,0,0,1,.993.24.771.771,0,0,1,.445.719v3.321a12.869,12.869,0,0,0,.907,4.742,27.31,27.31,0,0,0,2.174,4.365A51.678,51.678,0,0,0,188.075-22.745Zm48.307-14.961v2.533a1.7,1.7,0,0,1-.308.993.984.984,0,0,1-.856.445h-3.869v5.341a.933.933,0,0,1-.462.839,1.8,1.8,0,0,1-.976.291h-2.944V-44.108h2.944a1.731,1.731,0,0,1,.976.308.974.974,0,0,1,.462.856v5.238ZM209.506-25.416h21.843v11.332a1.859,1.859,0,0,1-.291,1.01.964.964,0,0,1-.873.462h-16.3a1.826,1.826,0,0,1-.77-.137,2.366,2.366,0,0,1-.633-.479l-2.328-2.362a2.152,2.152,0,0,1-.514-.633,1.826,1.826,0,0,1-.137-.77Zm4.382,8.833h13.078v-4.862H213.889Zm4.279-22.664H207.795a.974.974,0,0,1-.856-.462,1.731,1.731,0,0,1-.308-.976v-2.533H218.2a1.826,1.826,0,0,1,.77.137,2.367,2.367,0,0,1,.633.479l2.328,2.362a2.366,2.366,0,0,1,.479.633,1.826,1.826,0,0,1,.137.77v9.073a.974.974,0,0,1-.445.873,1.775,1.775,0,0,1-.993.291h-2.944Zm36.975,16.5a1.254,1.254,0,0,1,.342.787,1.108,1.108,0,0,1-.479.89l-1.575,1.3a1.236,1.236,0,0,1-.719.274,1.02,1.02,0,0,1-.856-.479,20.278,20.278,0,0,1-1.678-2.037q-.89-1.215-1.763-2.551t-1.66-2.653q-.787-1.318-1.335-2.345a18.36,18.36,0,0,1-1.1,2.106q-.753,1.284-1.678,2.67T240.73-22.06a23.137,23.137,0,0,1-1.815,2.191,1.465,1.465,0,0,1-.753.445.906.906,0,0,1-.787-.342l-1.541-1.267a1.1,1.1,0,0,1-.445-.856,1.26,1.26,0,0,1,.377-.856q1.164-1.438,2.482-3.27a38.9,38.9,0,0,0,2.431-3.834,25.812,25.812,0,0,0,1.832-4.074,12.055,12.055,0,0,0,.719-3.954V-42.26h2.944a2.06,2.06,0,0,1,.993.24.771.771,0,0,1,.445.719v3.321a12.869,12.869,0,0,0,.907,4.742,25.665,25.665,0,0,0,2.208,4.365A46.924,46.924,0,0,0,255.143-22.745Zm12.051-10.408v2.533a1.775,1.775,0,0,1-.291.993.974.974,0,0,1-.873.445h-3.869v13.318a1.375,1.375,0,0,1-.445.993l-1.951,1.951a.961.961,0,0,1-.377.24,1.645,1.645,0,0,1-.514.068h-1.1v-31.5h2.91a1.784,1.784,0,0,1,1.01.308,1,1,0,0,1,.462.89v9.757Zm24.684,7.429a1.568,1.568,0,0,1,1.01.342,1.054,1.054,0,0,1,.428.856v10.476a1.643,1.643,0,0,1-.325.993,1,1,0,0,1-.839.445h-16.3a2.048,2.048,0,0,1-1.438-.616l-2.294-2.328a1.922,1.922,0,0,1-.65-1.438v-8.73h2.944a1.568,1.568,0,0,1,1.01.342,1.054,1.054,0,0,1,.428.856v1.575h13.078v-2.773ZM284-33.906a6.665,6.665,0,0,1-.616,2.859,7.117,7.117,0,0,1-1.643,2.26,7.844,7.844,0,0,1-2.379,1.489,7.453,7.453,0,0,1-2.824.548,7.542,7.542,0,0,1-2.859-.548,7.844,7.844,0,0,1-2.379-1.489,6.9,6.9,0,0,1-1.626-2.26,6.826,6.826,0,0,1-.6-2.859,7.34,7.34,0,0,1,1.061-3.595h-1.917a1.008,1.008,0,0,1-.839-.428,1.621,1.621,0,0,1-.325-1.01v-2.533h7.292v-4.108h2.944a1.643,1.643,0,0,1,.993.325,1,1,0,0,1,.445.839v2.944h7.292v2.533a1.621,1.621,0,0,1-.325,1.01,1.008,1.008,0,0,1-.839.428h-1.917A7.477,7.477,0,0,1,284-33.906Zm9.312-3.8h5.033v2.533a1.621,1.621,0,0,1-.325,1.01,1.008,1.008,0,0,1-.839.428h-3.869v5.307a1,1,0,0,1-.445.839,1.643,1.643,0,0,1-.993.325h-2.944V-44.108h2.944a1.643,1.643,0,0,1,.993.325,1,1,0,0,1,.445.839Zm-20.062,3.8a2.9,2.9,0,0,0,.257,1.215,3.2,3.2,0,0,0,.7.993,3.452,3.452,0,0,0,1.044.685,3.14,3.14,0,0,0,1.25.257h.034a3.424,3.424,0,0,0,1.284-.24,3.208,3.208,0,0,0,1.044-.668,3.148,3.148,0,0,0,.7-1.01,3.02,3.02,0,0,0,.257-1.232,2.925,2.925,0,0,0-.976-2.26,3.315,3.315,0,0,0-2.311-.89,3.224,3.224,0,0,0-1.284.257,3.238,3.238,0,0,0-1.027.685,3.633,3.633,0,0,0-.7.993A2.749,2.749,0,0,0,273.254-33.906Zm15.68,17.323v-2.4H275.856v2.4ZM304.306-23.4H316.7v2.533a1.57,1.57,0,0,1-.325.976,1.008,1.008,0,0,1-.839.428H304.306a2.07,2.07,0,0,1-1.4-.582l-2.362-2.328a2.048,2.048,0,0,1-.616-1.438V-42.26h2.944a1.621,1.621,0,0,1,1.01.325,1.008,1.008,0,0,1,.428.839Zm19.309-20.713a1.7,1.7,0,0,1,1.027.325,1,1,0,0,1,.445.839v27.115a1.341,1.341,0,0,1-.445.959l-.976.976-.976.976a1.362,1.362,0,0,1-.89.308h-1.1v-31.5ZM345.8-42.26v2.533a1.643,1.643,0,0,1-.325.993,1,1,0,0,1-.839.445H334.3V-23.43h11.5V-20.9a1.621,1.621,0,0,1-.325,1.01,1.008,1.008,0,0,1-.839.428H334.3a2.07,2.07,0,0,1-1.4-.582l-2.362-2.4a1.756,1.756,0,0,1-.616-1.369V-42.26Zm13.831,9.107v2.533a1.775,1.775,0,0,1-.291.993.974.974,0,0,1-.873.445H354.6v13.318a1.375,1.375,0,0,1-.445.993L352.2-12.919a.961.961,0,0,1-.377.24,1.645,1.645,0,0,1-.514.068h-1.1v-31.5h2.91a1.784,1.784,0,0,1,1.01.308,1,1,0,0,1,.462.89v9.757Zm.719,17.186v-4.382h4.382v2.807a1.461,1.461,0,0,1-.462,1.1,1.681,1.681,0,0,1-1.113.479Z" transform="translate(-3.406 45.581)" fill="#3f3f3f"/>
</svg>
